<?xml version="1.0" standalone="no"?>
<!DOCTYPE svg PUBLIC "-//W3C//DTD SVG 20010904//EN"
 "http://www.w3.org/TR/2001/REC-SVG-20010904/DTD/svg10.dtd">
<svg version="1.0" xmlns="http://www.w3.org/2000/svg"
 width="1920.000000pt" height="982.000000pt" viewBox="0 0 1920.000000 982.000000"
 preserveAspectRatio="xMidYMid meet">

<g transform="translate(0.000000,982.000000) scale(0.100000,-0.100000)"
fill="#000000" stroke="none">
<path d="M8143 9454 c-3 -8 -1 -20 5 -26 16 -16 42 -2 42 22 0 24 -38 28 -47
4z"/>
<path d="M7320 9325 c0 -128 7 -157 28 -119 8 14 10 14 21 0 20 -24 74 -20
100 8 69 74 -5 214 -85 161 l-24 -15 0 50 c0 43 -3 50 -20 50 -19 0 -20 -7
-20 -135z m126 0 c25 -38 8 -89 -29 -93 -16 -2 -35 2 -43 9 -17 14 -19 80 -2
97 20 20 56 14 74 -13z"/>
<path d="M8270 9325 c0 -109 3 -135 14 -135 8 0 17 7 20 16 6 16 8 16 24 0 28
-25 77 -21 101 9 63 82 0 207 -81 161 l-28 -15 0 49 c0 47 -2 50 -25 50 l-25
0 0 -135z m125 11 c21 -15 25 -67 5 -90 -16 -21 -66 -21 -74 0 -10 26 -7 79 6
92 16 16 40 15 63 -2z"/>
<path d="M10160 9325 c0 -128 1 -135 20 -135 18 0 20 7 20 59 0 73 22 108 63
97 26 -6 27 -8 27 -81 0 -73 1 -75 25 -75 23 0 25 3 25 53 0 114 -39 166 -100
135 -14 -7 -28 -14 -32 -16 -5 -2 -8 19 -8 47 0 44 -3 51 -20 51 -19 0 -20 -7
-20 -135z"/>
<path d="M6832 9434 c-18 -12 -22 -24 -20 -52 3 -35 7 -39 68 -69 52 -26 65
-37 65 -55 0 -20 -6 -23 -42 -26 -34 -2 -45 1 -55 17 -15 24 -48 28 -48 6 0
-9 11 -27 25 -40 19 -20 34 -25 73 -25 62 0 95 24 95 68 0 41 -15 57 -74 78
-56 21 -74 37 -65 59 7 20 70 20 86 0 19 -23 49 -19 43 5 -12 47 -103 68 -151
34z"/>
<path d="M9046 9433 c-4 -10 -25 -69 -46 -130 l-39 -113 24 0 c18 0 25 7 30
30 6 29 9 30 60 30 51 0 54 -1 60 -30 5 -23 12 -30 30 -30 l24 0 -43 128 c-39
115 -45 127 -68 130 -17 2 -28 -3 -32 -15z m52 -99 c16 -56 17 -54 -23 -54
-40 0 -40 1 -19 64 18 53 25 51 42 -10z"/>
<path d="M9240 9321 c0 -124 1 -131 20 -131 17 0 20 7 20 50 l0 50 44 0 c59 0
90 25 90 74 0 56 -29 79 -109 84 l-65 4 0 -131z m114 83 c10 -4 16 -18 16 -35
0 -31 -23 -49 -64 -49 -24 0 -26 3 -26 45 0 43 1 45 29 45 16 0 36 -3 45 -6z"/>
<path d="M9470 9320 c0 -123 1 -130 20 -130 19 0 20 7 20 130 0 123 -1 130
-20 130 -19 0 -20 -7 -20 -130z"/>
<path d="M9712 9430 c-22 -21 -27 -45 -16 -75 4 -10 36 -30 71 -46 55 -24 64
-32 61 -51 -2 -19 -10 -24 -45 -26 -34 -3 -44 1 -53 17 -15 28 -50 29 -43 1
22 -84 193 -76 193 9 0 35 -19 52 -92 85 -32 14 -58 29 -58 33 0 32 85 47 96
18 7 -17 44 -21 44 -5 0 6 -11 22 -25 35 -32 33 -101 35 -133 5z"/>
<path d="M11340 9320 l0 -133 66 6 c80 6 114 28 132 85 12 35 12 49 0 84 -18
57 -52 79 -132 85 l-66 6 0 -133z m135 65 c56 -55 18 -155 -60 -155 l-35 0 0
90 0 90 35 0 c25 0 44 -8 60 -25z"/>
<path d="M7580 9378 c-29 -15 -38 -59 -17 -76 8 -7 32 -18 53 -26 27 -9 39
-19 39 -32 0 -25 -47 -31 -69 -9 -9 9 -23 15 -32 13 -14 -3 -13 -7 6 -30 18
-23 29 -28 66 -28 45 0 84 25 84 53 0 20 -31 45 -76 60 -21 8 -39 20 -39 28 0
17 53 25 68 10 15 -15 37 -14 37 3 0 34 -77 56 -120 34z"/>
<path d="M7814 9380 c-57 -23 -73 -116 -29 -164 43 -46 135 -28 135 27 0 21
-36 23 -44 2 -7 -18 -47 -20 -64 -3 -17 17 -15 74 4 92 19 20 38 20 58 1 18
-19 46 -20 46 -2 0 34 -67 64 -106 47z"/>
<path d="M8070 9382 c-8 -3 -20 -12 -27 -21 -11 -14 -12 -14 -13 2 0 10 -8 17
-20 17 -19 0 -20 -7 -20 -95 0 -88 1 -95 20 -95 18 0 20 7 20 63 0 68 10 87
47 87 16 0 23 6 23 19 0 23 -9 30 -30 23z"/>
<path d="M8549 9375 c-53 -29 -62 -114 -17 -162 32 -34 90 -32 118 5 19 24 20
27 5 30 -9 2 -24 -3 -34 -12 -23 -21 -44 -20 -64 2 -31 34 -21 42 48 42 63 0
65 1 65 26 0 30 -50 84 -77 84 -10 -1 -30 -7 -44 -15z m79 -52 c3 -21 -1 -23
-42 -23 -50 0 -51 1 -35 31 15 29 73 23 77 -8z"/>
<path d="M8796 9369 c-22 -17 -26 -18 -26 -5 0 9 -8 16 -20 16 -19 0 -20 -7
-20 -95 0 -88 1 -95 20 -95 17 0 20 7 20 49 0 70 14 101 45 101 18 0 25 5 25
19 0 30 -15 33 -44 10z"/>
<path d="M9979 9375 c-53 -29 -62 -114 -17 -162 31 -33 90 -32 117 3 12 15 21
31 21 35 0 16 -38 10 -44 -7 -4 -10 -16 -14 -38 -12 -25 2 -35 9 -42 31 -19
54 40 113 74 72 7 -8 21 -15 31 -15 16 0 17 3 8 24 -11 23 -47 46 -72 46 -7
-1 -24 -7 -38 -15z"/>
<path d="M10438 9375 c-36 -20 -53 -74 -38 -120 14 -42 44 -65 85 -65 30 0 75
30 75 50 0 16 -36 12 -50 -5 -18 -22 -46 -18 -64 7 -9 12 -16 26 -16 30 0 5
29 8 65 8 58 0 65 2 65 20 0 32 -21 67 -47 79 -31 14 -42 13 -75 -4z m80 -52
c3 -21 -1 -23 -37 -23 -33 0 -41 4 -41 18 0 27 10 33 45 30 22 -2 31 -9 33
-25z"/>
<path d="M10690 9373 c-17 -12 -25 -13 -28 -5 -2 7 -12 12 -23 12 -17 0 -19
-8 -19 -95 0 -95 0 -95 25 -95 24 0 25 2 25 64 0 68 14 96 49 96 31 0 41 -22
41 -92 0 -61 2 -68 20 -68 18 0 20 7 20 64 0 68 14 96 49 96 31 0 41 -22 41
-92 0 -61 2 -68 20 -68 18 0 20 7 20 75 0 67 -3 79 -25 100 -29 30 -55 32 -86
6 -23 -19 -24 -19 -48 0 -29 23 -49 24 -81 2z"/>
<path d="M11033 9380 c-12 -5 -27 -18 -33 -29 -9 -19 -8 -21 13 -21 14 0 30 7
37 15 25 30 70 11 70 -31 0 -19 -4 -21 -48 -16 -55 5 -82 -13 -82 -53 0 -50
72 -75 112 -38 17 15 18 15 18 0 0 -10 8 -17 20 -17 18 0 20 7 20 74 0 55 -4
79 -17 95 -20 24 -77 35 -110 21z m87 -116 c11 -12 -20 -39 -49 -42 -39 -4
-54 23 -25 45 17 12 60 11 74 -3z"/>
<path d="M11644 9376 c-59 -26 -69 -125 -17 -166 68 -54 153 -1 144 90 -5 47
-14 62 -46 76 -41 17 -42 17 -81 0z m74 -38 c7 -7 12 -31 12 -55 0 -32 -5 -45
-20 -53 -58 -31 -102 52 -58 108 13 15 50 16 66 0z"/>
<path d="M11869 9375 c-53 -29 -62 -114 -17 -162 31 -33 90 -32 117 3 12 15
21 31 21 35 0 16 -38 10 -44 -7 -4 -10 -16 -14 -38 -12 -25 2 -35 9 -42 31
-19 54 40 113 74 72 7 -8 21 -15 31 -15 16 0 17 3 8 24 -11 23 -47 46 -72 46
-7 -1 -24 -7 -38 -15z"/>
<path d="M12070 9378 c-29 -15 -38 -59 -17 -76 8 -7 32 -18 53 -26 27 -9 39
-19 39 -32 0 -25 -47 -31 -69 -9 -9 9 -23 15 -32 13 -14 -3 -13 -7 6 -30 18
-23 29 -28 66 -28 45 0 84 25 84 53 0 20 -31 45 -76 60 -21 8 -39 20 -39 28 0
17 53 25 68 10 15 -15 37 -14 37 3 0 34 -77 56 -120 34z"/>
<path d="M7060 9314 c0 -63 11 -101 34 -116 19 -13 63 -9 76 7 7 8 16 15 21
15 5 0 9 -7 9 -15 0 -8 9 -15 20 -15 19 0 20 7 20 95 0 88 -1 95 -20 95 -17 0
-20 -7 -20 -47 0 -64 -18 -97 -54 -101 -38 -5 -46 10 -46 86 0 55 -2 62 -20
62 -18 0 -20 -7 -20 -66z"/>
<path d="M8150 9285 c0 -88 1 -95 20 -95 19 0 20 7 20 95 0 88 -1 95 -20 95
-19 0 -20 -7 -20 -95z"/>
<path d="M2880 8405 l0 -95 51 0 c28 0 59 5 70 10 23 13 26 65 3 78 -14 8 -14
10 0 21 22 18 20 58 -3 71 -11 5 -42 10 -70 10 l-51 0 0 -95z m95 61 c16 -12
17 -16 6 -30 -7 -9 -26 -16 -42 -16 -24 0 -29 4 -29 23 0 13 3 27 7 30 11 11
38 8 58 -7z m10 -101 c0 -16 -8 -21 -37 -23 -35 -3 -38 -1 -38 23 0 24 3 26
38 23 29 -2 37 -7 37 -23z"/>
<path d="M3640 8425 c0 -90 17 -115 78 -115 57 0 74 24 80 115 4 71 4 75 -16
75 -19 0 -21 -6 -24 -77 l-3 -78 -30 -3 c-41 -5 -55 19 -55 95 0 49 -3 63 -15
63 -12 0 -15 -15 -15 -75z"/>
<path d="M3850 8405 c0 -78 3 -95 15 -95 11 0 15 11 15 40 0 29 4 40 15 40 8
0 24 -18 35 -40 13 -26 27 -40 40 -40 25 0 25 5 -1 42 l-21 29 21 23 c47 50
14 96 -67 96 l-52 0 0 -95z m94 59 c9 -8 16 -19 16 -23 0 -16 -25 -31 -52 -31
-24 0 -28 4 -28 28 0 16 3 32 7 35 11 12 41 7 57 -9z"/>
<path d="M4040 8405 l0 -95 60 0 c47 0 60 3 60 15 0 11 -11 15 -40 15 l-40 0
0 80 c0 73 -2 80 -20 80 -19 0 -20 -7 -20 -95z"/>
<path d="M3088 8449 c-21 -12 -24 -39 -5 -39 6 0 20 7 30 15 23 17 47 9 47
-16 0 -15 -7 -19 -39 -19 -49 0 -69 -20 -53 -55 10 -22 17 -25 67 -22 l55 2 0
62 c0 51 -3 64 -19 73 -25 13 -61 12 -83 -1z m72 -88 c0 -15 -29 -33 -45 -27
-28 10 -17 36 15 36 17 0 30 -4 30 -9z"/>
<path d="M3256 8447 c-27 -20 -15 -50 27 -70 20 -9 37 -21 37 -26 0 -18 -22
-23 -46 -10 -28 15 -42 6 -24 -16 15 -18 81 -20 98 -3 25 25 13 49 -33 69 -55
24 -50 43 9 34 l41 -6 -24 21 c-27 23 -59 26 -85 7z"/>
<path d="M3420 8442 c-28 -22 -30 -84 -4 -113 21 -24 67 -25 90 -2 20 21 4 29
-26 13 -16 -9 -25 -8 -36 1 -28 23 -16 39 31 39 38 0 45 3 45 20 0 25 -34 60
-59 60 -10 0 -29 -8 -41 -18z m68 -34 c3 -14 -3 -18 -27 -18 -29 0 -41 17 -24
34 13 13 48 1 51 -16z"/>
<path d="M2875 8085 l-25 -24 0 -261 0 -261 25 -24 24 -25 2386 0 2386 0 24
25 25 24 0 261 0 261 -25 24 -24 25 -2386 0 -2386 0 -24 -25z m4749 -194 c13
-14 16 -33 14 -77 l-3 -59 -43 -3 c-52 -4 -72 10 -72 49 0 24 -4 29 -25 29
-23 0 -25 -3 -25 -51 l0 -52 51 6 c44 5 50 4 47 -11 -3 -14 -15 -17 -63 -17
l-60 0 0 75 0 75 38 3 c21 2 37 8 37 16 0 37 74 50 104 17z m-4658 -57 c29 11
44 -5 44 -50 0 -24 -4 -44 -10 -44 -5 0 -10 18 -10 40 0 28 -4 40 -14 40 -16
0 -26 -21 -26 -56 0 -13 -4 -24 -10 -24 -12 0 -14 113 -2 124 4 4 8 -2 10 -14
2 -14 9 -20 18 -16z m470 14 c-3 -13 -11 -47 -17 -75 -7 -29 -16 -53 -21 -53
-11 0 -10 12 8 85 9 36 21 65 26 65 6 0 8 -10 4 -22z m60 0 c-3 -13 -11 -47
-17 -75 -7 -29 -16 -53 -21 -53 -11 0 -10 12 8 85 9 36 21 65 26 65 6 0 8 -10
4 -22z m484 1 c0 -15 5 -19 19 -14 38 12 69 -53 39 -83 -7 -7 -27 -12 -45 -12
l-33 0 0 65 c0 37 4 65 10 65 6 0 10 -9 10 -21z m880 -45 l0 -65 -37 3 c-36 3
-38 5 -41 40 -2 29 1 39 18 48 11 6 24 9 29 6 5 -3 11 3 14 14 10 38 17 19 17
-46z m50 47 c0 -14 5 -18 19 -14 29 8 57 -40 43 -72 -9 -20 -19 -25 -47 -25
l-35 0 0 65 c0 37 4 65 10 65 6 0 10 -9 10 -19z m670 -46 l0 -65 -33 0 c-18 0
-38 5 -45 12 -30 30 1 95 39 83 14 -5 19 -1 19 14 0 12 5 21 10 21 6 0 10 -28
10 -65z m600 55 c0 -27 -33 -140 -41 -140 -12 0 -12 5 8 83 10 37 21 67 25 67
4 0 8 -5 8 -10z m230 -11 c0 -11 4 -17 10 -14 5 3 19 1 30 -5 17 -9 20 -19 18
-48 -3 -35 -5 -37 -40 -40 l-38 -3 0 65 c0 37 4 66 10 66 6 0 10 -9 10 -21z
m345 11 c3 -5 -1 -10 -9 -10 -9 0 -16 5 -16 10 0 6 4 10 9 10 6 0 13 -4 16
-10z m45 -11 c0 -11 4 -17 10 -14 5 3 19 1 30 -5 17 -9 20 -19 18 -48 -3 -35
-5 -37 -40 -40 l-38 -3 0 65 c0 37 4 66 10 66 6 0 10 -9 10 -21z m-3740 -4 c0
-8 6 -15 13 -16 10 0 10 -2 0 -6 -15 -6 -18 -63 -3 -63 6 0 10 -5 10 -11 0 -6
-8 -9 -17 -7 -27 5 -38 118 -12 118 5 0 9 -7 9 -15z m68 -5 c7 -12 8 -20 2
-20 -5 0 -10 -13 -10 -30 0 -16 5 -30 10 -30 6 0 10 -5 10 -11 0 -6 -8 -9 -17
-7 -13 2 -20 16 -23 43 -9 68 4 94 28 55z m620 0 c7 -12 8 -20 2 -20 -5 0 -10
-13 -10 -30 0 -16 5 -30 10 -30 6 0 10 -5 10 -11 0 -6 -8 -9 -17 -7 -13 2 -20
16 -23 43 -9 68 4 94 28 55z m-524 -13 c12 -9 17 -23 14 -47 -2 -30 -7 -35
-30 -38 -16 -2 -28 -10 -28 -17 0 -8 -4 -17 -10 -20 -6 -4 -10 18 -10 59 0 65
1 67 41 75 3 0 13 -5 23 -12z m97 -3 c11 -13 9 -14 -14 -9 -34 9 -35 -8 -1
-24 36 -16 28 -45 -14 -49 -24 -2 -32 1 -32 12 0 19 16 21 23 4 4 -10 7 -10
17 -1 11 10 8 14 -13 22 -41 16 -35 57 9 60 6 1 17 -6 25 -15z m265 6 c10 0
14 -14 14 -54 0 -59 -14 -80 -51 -74 -33 5 -36 27 -3 25 15 -1 29 3 31 10 3 7
-3 9 -16 6 -27 -7 -51 13 -51 43 0 28 27 57 47 50 8 -3 21 -6 29 -6z m95 0
c10 -6 19 -20 19 -30 0 -16 -7 -20 -30 -20 -30 0 -40 -13 -20 -25 6 -4 18 -1
26 6 16 13 30 6 19 -10 -11 -19 -63 -13 -75 8 -14 28 -13 38 10 61 23 23 25
23 51 10z m155 -6 c18 -15 18 -15 -8 -9 -35 7 -36 -8 -2 -24 34 -15 28 -45
-10 -49 -16 -2 -33 1 -39 7 -16 16 0 26 18 11 12 -10 19 -10 27 -2 8 8 5 14
-14 21 -35 13 -41 26 -22 45 19 20 25 20 50 0z m290 0 c18 -15 18 -15 -8 -9
-35 7 -36 -8 -2 -24 34 -15 28 -45 -10 -49 -16 -2 -33 1 -39 7 -16 16 0 26 18
11 12 -10 19 -10 27 -2 8 8 5 14 -14 21 -35 13 -41 26 -22 45 19 20 25 20 50
0z m222 3 c14 -9 17 -87 3 -87 -6 0 -11 17 -13 37 -4 52 -28 56 -28 4 0 -30
-4 -41 -15 -41 -11 0 -15 11 -15 41 0 52 -24 48 -28 -4 -4 -52 -22 -46 -22 7
0 34 4 45 18 48 30 6 86 3 100 -5z m94 1 c21 -18 27 -39 17 -65 -16 -44 -89
-22 -89 26 0 13 36 51 48 51 5 0 15 -6 24 -12z m106 0 c14 -14 16 -88 3 -88
-6 0 -11 17 -13 38 -2 25 -8 37 -18 37 -10 0 -16 -12 -18 -37 -4 -53 -22 -48
-22 6 0 34 4 46 18 49 30 8 38 7 50 -5z m90 6 c20 -6 22 -13 22 -64 0 -50 -3
-60 -20 -65 -23 -7 -60 2 -60 15 0 5 14 7 30 4 19 -4 30 -2 30 5 0 6 -11 11
-25 11 -37 0 -54 40 -31 75 18 27 20 28 54 19z m112 -14 c36 -36 15 -84 -35
-78 -26 3 -30 8 -33 38 -3 24 2 38 14 47 24 17 31 16 54 -7z m352 8 c21 -18
27 -39 17 -65 -16 -44 -89 -22 -89 26 0 13 36 51 48 51 5 0 15 -6 24 -12z
m106 0 c14 -14 16 -88 3 -88 -6 0 -11 17 -13 38 -2 25 -8 37 -18 37 -10 0 -16
-12 -18 -37 -4 -53 -22 -48 -22 6 0 34 4 46 18 49 30 8 38 7 50 -5z m82 3 c0
-5 -7 -11 -15 -15 -9 -3 -15 -19 -15 -41 0 -19 -4 -35 -10 -35 -5 0 -10 20
-10 44 0 34 4 46 18 49 28 8 32 7 32 -2z m74 -7 c27 -27 20 -44 -20 -44 -31 0
-35 -2 -24 -15 9 -10 17 -12 30 -5 18 10 33 3 24 -11 -8 -13 -58 -11 -72 3
-17 17 -15 48 5 70 20 22 37 23 57 2z m100 0 c21 -20 22 -84 1 -84 -11 0 -15
11 -15 41 0 52 -24 48 -28 -4 -4 -52 -22 -46 -22 7 0 43 4 48 42 55 4 0 14 -6
22 -15z m197 6 c10 -6 19 -20 19 -30 0 -16 -7 -20 -30 -20 -30 0 -40 -13 -20
-25 6 -4 18 -1 26 6 16 13 30 6 19 -10 -11 -19 -63 -13 -75 8 -14 28 -13 38
10 61 23 23 25 23 51 10z m89 1 c0 -5 -7 -11 -15 -15 -9 -3 -15 -19 -15 -41 0
-19 -4 -35 -10 -35 -5 0 -10 20 -10 44 0 34 4 46 18 49 28 8 32 7 32 -2z m115
-7 c9 -9 13 -19 10 -22 -3 -3 -11 0 -17 6 -18 18 -36 14 -43 -8 -8 -26 13 -56
29 -40 5 5 16 10 24 10 12 0 12 -3 2 -15 -15 -18 -51 -20 -68 -3 -17 17 -15
48 5 70 20 22 37 23 58 2z m87 4 c21 -18 27 -39 17 -65 -16 -44 -89 -22 -89
26 0 13 36 51 48 51 5 0 15 -6 24 -12z m156 -1 c14 -9 17 -87 3 -87 -6 0 -11
17 -13 37 -4 52 -28 56 -28 4 0 -30 -4 -41 -15 -41 -11 0 -15 11 -15 41 0 52
-24 48 -28 -4 -4 -52 -22 -46 -22 7 0 34 4 45 18 48 30 6 86 3 100 -5z m148
-3 c18 -15 18 -15 -8 -9 -35 7 -36 -8 -2 -24 34 -15 28 -45 -10 -49 -16 -2
-33 1 -39 7 -16 16 0 26 18 11 12 -10 19 -10 27 -2 8 8 5 14 -14 21 -35 13
-41 26 -22 45 19 20 25 20 50 0z m295 0 c11 -13 9 -14 -14 -9 -34 9 -35 -8 -1
-24 36 -16 28 -45 -14 -49 -24 -2 -32 1 -32 12 0 19 16 21 23 4 4 -10 7 -10
17 -1 11 10 8 14 -13 22 -41 16 -35 57 9 60 6 1 17 -6 25 -15z m94 0 c9 -9 13
-19 10 -22 -3 -3 -11 0 -17 6 -18 18 -36 14 -43 -8 -8 -26 13 -56 29 -40 5 5
16 10 24 10 12 0 12 -3 2 -15 -15 -18 -51 -20 -68 -3 -17 17 -15 48 5 70 20
22 37 23 58 2z m75 7 c0 -5 -7 -11 -15 -15 -9 -3 -15 -19 -15 -41 0 -19 -4
-35 -10 -35 -5 0 -10 20 -10 44 0 34 4 46 18 49 28 8 32 7 32 -2z m221 -1 c10
-6 19 -20 19 -30 0 -16 -7 -20 -30 -20 -30 0 -40 -13 -20 -25 6 -4 18 -1 26 6
16 13 30 6 19 -10 -11 -19 -63 -13 -75 8 -14 28 -13 38 10 61 23 23 25 23 51
10z m89 1 c0 -5 -7 -11 -15 -15 -9 -3 -15 -19 -15 -41 0 -19 -4 -35 -10 -35
-5 0 -10 20 -10 44 0 34 4 46 18 49 28 8 32 7 32 -2z m71 -7 c11 -13 9 -14
-14 -9 -34 9 -35 -8 -1 -24 36 -16 28 -45 -14 -49 -24 -2 -32 1 -32 12 0 19
16 21 23 4 4 -10 7 -10 17 -1 11 10 8 14 -13 22 -41 16 -35 57 9 60 6 1 17 -6
25 -15z m-3721 -4 c0 -5 -7 -10 -15 -10 -8 0 -15 5 -15 10 0 6 7 10 15 10 8 0
15 -4 15 -10z m502 -22 c2 -22 9 -34 21 -36 14 -3 17 4 17 32 0 20 5 36 10 36
6 0 10 -20 10 -45 0 -44 0 -45 -34 -45 -37 0 -46 12 -46 61 0 40 18 37 22 -3z
m2428 -3 c0 -24 5 -35 15 -35 10 0 15 11 15 35 0 19 5 35 10 35 6 0 10 -21 10
-46 0 -45 0 -45 -32 -42 -31 3 -33 6 -36 46 -2 25 1 42 7 42 6 0 11 -16 11
-35z m440 -10 c0 -25 -4 -45 -10 -45 -5 0 -10 20 -10 45 0 25 5 45 10 45 6 0
10 -20 10 -45z m-2540 5 c0 -5 -13 -10 -30 -10 -16 0 -30 5 -30 10 0 6 14 10
30 10 17 0 30 -4 30 -10z m-830 -40 c0 -5 -7 -10 -15 -10 -8 0 -15 5 -15 10 0
6 7 10 15 10 8 0 15 -4 15 -10z m1640 0 c0 -5 -7 -10 -15 -10 -8 0 -15 5 -15
10 0 6 7 10 15 10 8 0 15 -4 15 -10z m760 0 c0 -5 -7 -10 -15 -10 -8 0 -15 5
-15 10 0 6 7 10 15 10 8 0 15 -4 15 -10z"/>
<path d="M3985 7800 c-9 -29 12 -55 32 -38 8 6 13 21 11 32 -4 28 -35 33 -43
6z"/>
<path d="M4804 7806 c-9 -23 0 -51 16 -51 10 0 15 10 15 29 0 32 -21 47 -31
22z"/>
<path d="M4914 7806 c-9 -23 0 -51 16 -51 10 0 15 10 15 29 0 32 -21 47 -31
22z"/>
<path d="M5517 7813 c-12 -12 -7 -51 7 -56 20 -8 39 18 31 43 -6 20 -25 26
-38 13z"/>
<path d="M6414 7806 c-9 -23 0 -51 16 -51 10 0 15 10 15 29 0 32 -21 47 -31
22z"/>
<path d="M6804 7806 c-9 -23 0 -51 16 -51 10 0 15 10 15 29 0 32 -21 47 -31
22z"/>
<path d="M3187 7814 c-10 -10 -9 -52 1 -58 15 -9 34 11 30 34 -3 24 -19 36
-31 24z"/>
<path d="M3534 7805 c-8 -21 3 -45 20 -45 20 0 29 16 21 40 -7 23 -33 27 -41
5z"/>
<path d="M3645 7810 c-3 -5 3 -10 15 -10 12 0 18 5 15 10 -3 6 -10 10 -15 10
-5 0 -12 -4 -15 -10z"/>
<path d="M4404 7806 c-9 -23 0 -51 16 -51 10 0 15 10 15 29 0 32 -21 47 -31
22z"/>
<path d="M4607 7814 c-4 -4 -7 -18 -7 -31 0 -17 6 -23 21 -23 16 0 20 5 17 27
-3 26 -18 39 -31 27z"/>
<path d="M4707 7813 c-11 -11 -8 -51 5 -59 18 -11 39 25 27 47 -10 20 -21 24
-32 12z"/>
<path d="M5064 7806 c-9 -23 0 -51 16 -51 10 0 15 10 15 29 0 32 -21 47 -31
22z"/>
<path d="M5315 7810 c-4 -6 5 -10 20 -10 15 0 24 4 20 10 -3 6 -12 10 -20 10
-8 0 -17 -4 -20 -10z"/>
<path d="M5625 7810 c-3 -5 3 -10 15 -10 12 0 18 5 15 10 -3 6 -10 10 -15 10
-5 0 -12 -4 -15 -10z"/>
<path d="M5914 7806 c-9 -23 0 -51 16 -51 10 0 15 10 15 29 0 32 -21 47 -31
22z"/>
<path d="M6905 7810 c-3 -5 3 -10 15 -10 12 0 18 5 15 10 -3 6 -10 10 -15 10
-5 0 -12 -4 -15 -10z"/>
<path d="M3440 6990 c0 -64 3 -80 15 -80 12 0 15 16 15 80 0 64 -3 80 -15 80
-12 0 -15 -16 -15 -80z"/>
<path d="M3510 6990 c0 -64 3 -80 15 -80 12 0 15 16 15 80 0 64 -3 80 -15 80
-12 0 -15 -16 -15 -80z"/>
<path d="M3910 6991 l0 -79 45 2 c50 2 65 15 65 57 0 34 -23 53 -55 47 -22 -5
-25 -2 -25 23 0 19 -5 29 -15 29 -12 0 -15 -15 -15 -79z m84 -7 c8 -22 -12
-56 -32 -52 -18 3 -27 30 -18 54 7 19 42 18 50 -2z"/>
<path d="M4400 7060 c0 -5 7 -10 15 -10 8 0 15 5 15 10 0 6 -7 10 -15 10 -8 0
-15 -4 -15 -10z"/>
<path d="M4470 6991 l0 -79 45 2 c50 2 65 15 65 57 0 34 -23 53 -55 47 -22 -5
-25 -2 -25 23 0 19 -5 29 -15 29 -12 0 -15 -15 -15 -79z m84 -7 c8 -22 -12
-56 -32 -52 -18 3 -27 30 -18 54 7 19 42 18 50 -2z"/>
<path d="M2886 7044 c-56 -56 1 -166 66 -125 11 7 18 7 18 1 0 -5 5 -10 10
-10 6 0 10 18 10 40 0 38 -2 40 -30 40 -16 0 -30 -4 -30 -10 0 -5 7 -10 16
-10 23 0 13 -34 -12 -38 -28 -4 -46 20 -42 59 4 41 30 59 59 41 24 -15 34 -10
26 13 -8 20 -71 20 -91 -1z"/>
<path d="M3153 7031 c-6 -10 -8 -22 -3 -27 5 -5 10 -27 12 -49 2 -33 7 -41 26
-43 12 -2 22 1 22 7 0 6 -7 11 -15 11 -23 0 -21 77 3 83 16 4 16 5 0 6 -10 0
-18 8 -18 16 0 21 -13 19 -27 -4z"/>
<path d="M3030 7001 c-15 -29 -12 -56 8 -74 23 -21 56 -22 73 -1 11 14 9 15
-24 9 -30 -6 -37 -4 -37 9 0 12 9 16 35 16 27 0 35 4 35 18 0 42 -70 60 -90
23z m64 -22 c-3 -5 -14 -9 -25 -9 -21 0 -26 26 -6 33 15 5 39 -12 31 -24z"/>
<path d="M3307 7006 c-8 -19 6 -20 33 -3 17 10 22 9 30 -3 12 -19 2 -28 -35
-32 -24 -2 -30 -8 -30 -28 0 -23 4 -25 48 -26 l48 -1 -3 51 -3 51 -41 3 c-30
2 -43 -1 -47 -12z m63 -61 c0 -16 -35 -21 -44 -6 -8 12 4 21 26 21 10 0 18 -7
18 -15z"/>
<path d="M3647 7013 c-17 -16 -5 -42 23 -52 44 -15 39 -35 -7 -26 -33 6 -35 5
-24 -9 16 -19 62 -21 79 -4 21 21 13 37 -24 53 -39 16 -38 39 2 29 14 -4 24
-2 24 5 0 12 -62 16 -73 4z"/>
<path d="M3772 6968 l3 -53 48 -2 47 -2 0 55 c0 40 -4 54 -14 54 -10 0 -16
-14 -18 -42 -2 -35 -7 -43 -23 -43 -16 0 -21 8 -23 43 -2 23 -8 42 -13 42 -6
0 -9 -22 -7 -52z"/>
<path d="M4057 7013 c-16 -15 -5 -34 28 -50 19 -9 35 -21 35 -26 0 -5 -16 -7
-35 -4 -35 6 -48 -6 -19 -17 28 -11 61 -6 75 10 11 14 10 19 -10 35 -13 11
-30 19 -38 19 -8 0 -13 6 -10 13 2 6 16 11 31 9 18 -2 25 1 21 7 -7 12 -68 15
-78 4z"/>
<path d="M4180 7001 c-22 -43 2 -91 46 -91 20 0 44 17 44 32 0 13 -28 9 -32
-4 -3 -7 -12 -9 -22 -5 -12 5 -16 15 -14 34 3 25 7 28 37 25 29 -2 32 0 21 13
-18 22 -67 19 -80 -4z"/>
<path d="M4310 6963 c0 -29 5 -53 10 -53 6 0 10 16 10 35 0 24 6 39 20 47 28
18 25 27 -10 26 -29 -1 -30 -2 -30 -55z"/>
<path d="M4400 6965 c0 -42 3 -55 15 -55 12 0 15 13 15 55 0 42 -3 55 -15 55
-12 0 -15 -13 -15 -55z"/>
<path d="M4622 7008 c-16 -16 -15 -60 1 -82 15 -20 68 -19 75 1 2 9 -5 11 -26
7 -21 -4 -31 -2 -35 10 -5 13 1 16 33 16 41 0 47 8 30 41 -12 22 -59 26 -78 7z
m56 -21 c2 -11 -3 -17 -16 -17 -26 0 -34 11 -20 27 14 17 32 12 36 -10z"/>
<path d="M4740 6964 c0 -41 4 -54 15 -54 11 0 15 11 15 41 0 32 4 42 20 46 32
8 23 21 -15 21 l-35 0 0 -54z"/>
<path d="M4837 7013 c-17 -16 -5 -42 23 -52 44 -15 39 -35 -7 -26 -33 6 -35 5
-24 -9 16 -19 62 -21 79 -4 21 21 13 37 -24 53 -39 16 -38 39 2 29 14 -4 24
-2 24 5 0 12 -62 16 -73 4z"/>
<path d="M2870 6335 c0 -60 3 -75 15 -75 10 0 15 10 15 30 0 17 4 30 9 30 6 0
18 -13 28 -30 9 -16 23 -30 30 -30 17 0 16 6 -4 36 -16 25 -16 27 0 36 20 10
22 49 5 66 -7 7 -31 12 -55 12 l-43 0 0 -75z m77 44 c17 -17 4 -39 -23 -39
-19 0 -24 5 -24 25 0 27 26 35 47 14z"/>
<path d="M3683 6381 c-6 -10 -8 -22 -3 -27 5 -5 10 -27 12 -49 2 -33 7 -41 26
-43 12 -2 22 1 22 7 0 6 -7 11 -15 11 -23 0 -21 77 3 83 16 4 16 5 0 6 -10 0
-18 8 -18 16 0 21 -13 19 -27 -4z"/>
<path d="M3018 6344 c-24 -53 46 -112 82 -69 11 14 9 15 -20 13 -19 -2 -35 2
-37 10 -3 8 7 12 31 12 28 0 36 4 36 18 0 47 -72 60 -92 16z m66 -15 c-3 -5
-14 -9 -25 -9 -21 0 -26 26 -6 33 15 5 39 -12 31 -24z"/>
<path d="M3152 6358 c-17 -17 -15 -73 3 -88 8 -7 26 -10 40 -8 21 4 25 1 25
-17 0 -26 25 -52 34 -36 4 5 2 12 -4 16 -5 3 -10 36 -10 73 l0 67 -38 3 c-21
1 -43 -3 -50 -10z m63 -43 c0 -23 -5 -30 -19 -30 -24 0 -41 27 -33 49 4 11 15
16 29 14 18 -2 23 -9 23 -33z"/>
<path d="M3292 6318 l3 -53 48 -2 47 -2 0 55 c0 40 -4 54 -14 54 -10 0 -16
-14 -18 -42 -2 -35 -7 -43 -23 -43 -16 0 -21 8 -23 43 -2 23 -8 42 -13 42 -6
0 -9 -22 -7 -52z"/>
<path d="M3441 6356 c-17 -20 -10 -77 10 -89 17 -11 69 -2 69 12 0 5 -14 8
-31 7 -18 0 -34 5 -36 12 -3 8 7 12 31 12 41 0 47 7 35 38 -10 26 -59 31 -78
8z m59 -22 c0 -8 -8 -14 -18 -14 -25 0 -34 11 -21 26 13 15 39 7 39 -12z"/>
<path d="M3560 6346 c0 -18 8 -27 30 -35 44 -15 39 -35 -7 -26 -33 6 -35 5
-24 -9 24 -29 91 -15 91 19 0 6 -16 19 -36 28 -38 19 -38 41 2 31 14 -4 24 -2
24 5 0 6 -17 11 -40 11 -36 0 -40 -3 -40 -24z"/>
<path d="M3723 5835 c0 -38 2 -53 4 -33 8 69 50 71 63 2 l8 -39 1 37 c1 50
-36 87 -56 56 -5 -9 -10 -3 -14 17 -4 19 -6 5 -6 -40z"/>
<path d="M4010 5879 c0 -15 -5 -19 -19 -14 -39 12 -70 -57 -37 -84 7 -6 25
-10 40 -9 25 2 26 4 26 65 0 35 -2 63 -5 63 -3 0 -5 -9 -5 -21z m0 -66 c0 -28
-24 -40 -45 -23 -20 17 -19 47 2 59 23 13 43 -4 43 -36z"/>
<path d="M3372 5828 l1 -63 6 55 6 55 23 -42 c12 -24 24 -43 27 -43 2 0 13 17
24 38 l20 37 1 -47 c0 -27 5 -48 10 -48 6 0 10 27 10 60 0 73 -16 79 -47 18
l-21 -43 -18 43 c-26 64 -44 55 -42 -20z"/>
<path d="M3640 5846 c0 -59 8 -76 34 -75 16 1 17 2 4 6 -14 4 -18 15 -18 59 0
30 -4 54 -10 54 -5 0 -10 -20 -10 -44z"/>
<path d="M3546 5854 c-19 -18 -20 -38 -6 -65 13 -23 43 -25 61 -2 13 15 12 15
-8 2 -20 -12 -25 -12 -38 2 -12 12 -14 21 -6 42 13 33 25 34 45 5 13 -18 16
-19 16 -6 0 10 -9 22 -19 28 -25 13 -27 13 -45 -6z"/>
<path d="M3846 5854 c-33 -32 -14 -84 31 -84 35 0 51 41 29 75 -19 29 -38 32
-60 9z m54 -35 c0 -33 -22 -48 -45 -29 -19 16 -19 35 0 54 22 22 45 9 45 -25z"/>
<path d="M3164 5846 c-10 -26 4 -48 28 -44 17 2 23 10 23 28 0 18 -6 26 -23
28 -13 2 -25 -3 -28 -12z"/>
<path d="M4060 5850 c0 -5 5 -10 10 -10 6 0 10 5 10 10 0 6 -4 10 -10 10 -5 0
-10 -4 -10 -10z"/>
<path d="M4060 5790 c0 -5 5 -10 10 -10 6 0 10 5 10 10 0 6 -4 10 -10 10 -5 0
-10 -4 -10 -10z"/>
<path d="M3375 5695 c-22 -22 -25 -32 -25 -105 0 -73 3 -83 25 -105 24 -24 27
-25 185 -25 158 0 161 1 185 25 22 22 25 32 25 105 0 73 -3 83 -25 105 -24 24
-27 25 -185 25 -158 0 -161 -1 -185 -25z m130 -64 c3 -6 -7 -9 -22 -8 -26 2
-28 -1 -28 -33 0 -25 5 -36 18 -38 10 -2 17 3 17 12 0 8 -8 17 -17 19 -11 3
-7 5 10 6 22 1 27 -3 27 -24 0 -21 -5 -25 -28 -25 -35 0 -52 16 -52 50 0 14 5
31 12 38 14 14 54 16 63 3z m68 2 c-13 -2 -23 -11 -23 -19 0 -8 10 -15 23 -15
l22 -2 -22 -4 c-14 -3 -23 -12 -23 -23 0 -11 9 -20 23 -23 16 -3 13 -5 -10 -6
l-33 -1 0 50 0 50 33 -1 c23 -1 26 -3 10 -6z m105 0 c-14 -3 -18 -15 -18 -49
0 -24 -4 -44 -10 -44 -5 0 -10 20 -10 44 0 34 -4 46 -17 49 -10 3 2 5 27 5 25
0 37 -2 28 -5z"/>
<path d="M2870 4945 c0 -60 3 -75 15 -75 10 0 15 10 15 30 0 17 4 30 9 30 6 0
18 -13 28 -30 9 -16 23 -30 30 -30 17 0 16 6 -4 36 -16 25 -16 27 0 36 20 10
22 49 5 66 -7 7 -31 12 -55 12 l-43 0 0 -75z m77 44 c17 -17 4 -39 -23 -39
-19 0 -24 5 -24 25 0 27 26 35 47 14z"/>
<path d="M3018 4954 c-24 -53 46 -112 82 -69 11 14 9 15 -20 13 -19 -2 -35 2
-37 10 -3 8 7 12 31 12 28 0 36 4 36 18 0 47 -72 60 -92 16z m66 -15 c-3 -5
-14 -9 -25 -9 -21 0 -26 26 -6 33 15 5 39 -12 31 -24z"/>
<path d="M3147 4973 c-16 -15 -5 -34 28 -50 40 -19 36 -38 -7 -29 -21 4 -28 2
-25 -7 2 -7 21 -12 43 -12 33 0 39 4 42 23 3 18 -3 25 -28 33 -37 13 -34 35 4
31 18 -2 25 1 21 7 -7 12 -68 15 -78 4z"/>
<path d="M3270 4898 c0 -63 3 -78 15 -78 9 0 15 9 15 25 0 20 5 25 23 25 45 0
69 48 47 91 -9 15 -20 19 -55 17 l-45 -1 0 -79z m75 27 c0 -23 -4 -30 -20 -30
-15 0 -21 8 -23 33 -3 30 -1 33 20 30 18 -2 23 -9 23 -33z"/>
<path d="M3408 4954 c-10 -21 -9 -31 3 -52 29 -52 99 -33 99 27 0 36 -17 51
-57 51 -26 0 -36 -6 -45 -26z m76 -10 c8 -22 -12 -56 -32 -52 -18 3 -27 30
-18 54 7 19 42 18 50 -2z"/>
<path d="M3550 4923 c0 -29 5 -53 10 -53 6 0 10 13 10 29 0 42 9 61 30 61 21
0 30 -19 30 -61 0 -16 5 -29 10 -29 12 0 13 79 2 98 -5 7 -26 11 -50 10 l-42
-1 0 -54z"/>
<path d="M3690 4956 c0 -18 8 -27 30 -35 44 -15 39 -35 -7 -26 -33 6 -35 5
-24 -9 24 -29 91 -15 91 19 0 6 -16 19 -36 28 -38 19 -38 41 2 31 14 -4 24 -2
24 5 0 6 -17 11 -40 11 -36 0 -40 -3 -40 -24z"/>
<path d="M3808 4954 c-24 -53 46 -112 82 -69 11 14 9 15 -20 13 -19 -2 -35 2
-37 10 -3 8 7 12 31 12 28 0 36 4 36 18 0 47 -72 60 -92 16z m66 -15 c-3 -5
-14 -9 -25 -9 -21 0 -26 26 -6 33 15 5 39 -12 31 -24z"/>
<path d="M3950 4560 c0 -5 5 -10 10 -10 6 0 10 5 10 10 0 6 -4 10 -10 10 -5 0
-10 -4 -10 -10z"/>
<path d="M5210 4550 c0 -11 -5 -20 -11 -20 -8 0 -8 -4 -1 -13 6 -7 12 -33 15
-57 l4 -45 1 53 c1 34 6 52 15 52 8 0 7 4 -3 10 -13 9 -12 12 4 25 19 15 19
15 -2 15 -15 0 -22 -6 -22 -20z"/>
<path d="M5960 4560 c0 -5 5 -10 11 -10 5 0 7 5 4 10 -3 6 -8 10 -11 10 -2 0
-4 -4 -4 -10z"/>
<path d="M6502 4545 c-17 -36 -14 -105 4 -135 8 -14 13 -17 10 -8 -14 47 -17
89 -7 124 12 45 9 54 -7 19z"/>
<path d="M7080 4560 c0 -5 5 -10 10 -10 6 0 10 5 10 10 0 6 -4 10 -10 10 -5 0
-10 -4 -10 -10z"/>
<path d="M7439 4553 c14 -27 14 -118 1 -144 -7 -11 -7 -19 -1 -19 16 0 34 70
28 113 -3 22 -13 47 -22 56 -16 15 -17 14 -6 -6z"/>
<path d="M4083 4490 c0 -41 2 -56 4 -33 2 23 11 47 19 53 22 19 42 -4 47 -53
3 -40 4 -40 5 9 2 55 -11 71 -49 59 -13 -4 -19 0 -22 17 -2 13 -4 -11 -4 -52z"/>
<path d="M5551 4495 l-1 -70 32 -2 c39 -3 58 12 58 44 0 44 -18 66 -50 59 -24
-4 -29 -2 -33 17 -2 12 -5 -9 -6 -48z m63 9 c20 -19 20 -35 2 -60 -12 -15 -18
-17 -33 -8 -22 14 -29 50 -13 70 16 18 25 18 44 -2z"/>
<path d="M6011 4495 l-1 -70 32 -2 c41 -3 58 12 58 52 0 39 -21 59 -54 51 -20
-5 -25 -2 -29 16 -2 13 -5 -8 -6 -47z m69 11 c16 -20 9 -56 -13 -70 -15 -9
-21 -7 -33 8 -18 25 -18 41 2 60 19 20 28 20 44 2z"/>
<path d="M6971 4495 l-1 -71 29 -2 c16 -1 36 5 45 14 35 35 6 101 -40 90 -18
-5 -24 -1 -27 16 -2 13 -5 -9 -6 -47z m53 19 c22 -8 22 -70 0 -78 -35 -13 -60
44 -32 72 14 14 12 14 32 6z"/>
<path d="M4003 4535 c-6 -7 -8 -16 -3 -21 5 -5 10 -27 12 -49 2 -31 7 -40 23
-43 18 -2 18 -2 3 8 -12 7 -18 23 -18 45 0 22 6 38 18 44 15 9 15 10 0 11 -9
0 -18 4 -20 9 -1 5 -8 3 -15 -4z"/>
<path d="M7363 4535 c-6 -7 -8 -16 -3 -21 5 -5 10 -27 12 -49 2 -31 7 -40 23
-43 18 -2 18 -2 3 8 -12 7 -18 23 -18 45 0 22 6 38 18 44 15 9 15 10 0 11 -9
0 -18 4 -20 9 -1 5 -8 3 -15 -4z"/>
<path d="M2872 4470 c1 -49 2 -51 5 -13 3 30 11 47 26 58 22 15 22 15 -6 13
-26 -2 -27 -4 -25 -58z"/>
<path d="M2944 4505 c-22 -33 -11 -73 21 -81 29 -7 55 1 55 17 0 8 -4 8 -15
-1 -17 -14 -55 -4 -55 16 0 10 12 14 40 14 44 0 47 5 24 38 -20 29 -50 28 -70
-3z m54 3 c19 -19 14 -28 -18 -28 -41 0 -40 33 1 39 3 1 10 -4 17 -11z"/>
<path d="M3062 4518 c-20 -20 -14 -35 18 -47 17 -5 30 -15 30 -21 0 -18 -29
-23 -47 -9 -14 12 -16 12 -11 -1 6 -21 52 -24 68 -6 10 13 10 19 0 31 -7 8
-18 15 -26 15 -18 0 -28 20 -16 32 8 8 16 7 28 -3 15 -12 17 -12 12 1 -6 19
-40 24 -56 8z"/>
<path d="M3162 4455 c1 -44 3 -68 5 -53 4 24 8 27 33 21 25 -4 31 -1 41 20 23
50 -19 108 -56 77 -10 -8 -14 -8 -18 2 -3 7 -5 -23 -5 -67z m62 49 c20 -19 20
-35 2 -60 -12 -15 -18 -17 -33 -8 -22 14 -29 50 -13 70 16 18 25 18 44 -2z"/>
<path d="M3292 4518 c-7 -7 -12 -26 -12 -43 0 -36 15 -55 45 -55 29 0 45 19
45 51 0 47 -49 76 -78 47z m52 -14 c20 -19 20 -35 2 -60 -12 -15 -18 -17 -33
-8 -22 14 -29 50 -13 70 16 18 25 18 44 -2z"/>
<path d="M3401 4470 l2 -55 6 43 c8 49 21 65 44 56 11 -4 17 -21 20 -52 4 -42
4 -41 3 8 l-1 55 -37 0 -38 1 1 -56z"/>
<path d="M3521 4511 c-12 -21 -1 -34 37 -46 13 -4 21 -12 19 -18 -5 -15 -47
-22 -47 -8 0 6 -5 11 -11 11 -8 0 -7 -5 1 -16 19 -22 64 -14 68 12 2 16 -4 24
-27 32 -17 6 -31 15 -31 21 0 18 19 22 42 10 21 -11 22 -11 9 4 -18 23 -48 21
-60 -2z"/>
<path d="M3632 4518 c-17 -17 -15 -73 2 -88 18 -14 58 -10 64 8 3 11 0 11 -16
1 -17 -10 -23 -10 -36 0 -26 22 -19 31 24 31 44 0 52 16 24 44 -18 19 -45 21
-62 4z m42 -4 c28 -11 18 -34 -14 -34 -32 0 -37 9 -18 28 14 14 12 14 32 6z"/>
<path d="M3791 4513 c1 -28 23 -83 34 -83 5 -1 14 16 20 37 l12 38 13 -42 c7
-24 16 -43 20 -43 4 0 12 18 19 41 7 23 15 47 18 55 3 8 1 14 -5 14 -5 0 -13
-16 -16 -35 -10 -49 -23 -52 -31 -5 -4 22 -10 40 -15 40 -5 0 -15 -19 -23 -42
l-14 -43 -12 43 c-12 43 -22 55 -20 25z"/>
<path d="M3963 4475 c0 -33 2 -45 4 -27 2 18 2 45 0 60 -2 15 -4 0 -4 -33z"/>
<path d="M4260 4515 c-14 -17 0 -21 16 -5 13 13 46 2 41 -14 -2 -6 -17 -13
-33 -16 -23 -4 -29 -10 -29 -30 0 -22 4 -25 38 -25 l37 -1 0 47 c0 34 -5 49
-16 53 -25 10 -41 7 -54 -9z m58 -57 c-7 -21 -36 -34 -49 -21 -6 6 -8 16 -5
22 10 15 59 14 54 -1z"/>
<path d="M4372 4470 c1 -48 2 -50 5 -13 5 46 27 73 45 55 6 -6 15 -31 19 -54
l6 -43 2 46 c1 53 -13 70 -53 67 -25 -2 -26 -5 -24 -58z"/>
<path d="M4550 4515 c-15 -18 1 -20 18 -3 10 10 16 8 29 -5 18 -17 13 -22 -32
-29 -14 -2 -20 -11 -20 -28 0 -22 4 -25 38 -25 37 -1 37 0 37 40 0 59 -39 87
-70 50z m58 -57 c-7 -21 -36 -34 -49 -21 -6 6 -8 16 -5 22 10 15 59 14 54 -1z"/>
<path d="M4650 4474 c0 -30 5 -54 10 -54 6 0 10 19 10 41 0 28 6 46 17 54 15
11 14 13 -10 13 -26 0 -27 -3 -27 -54z"/>
<path d="M4732 4470 c1 -49 2 -51 5 -13 3 30 11 47 26 58 22 15 22 15 -6 13
-26 -2 -27 -4 -25 -58z"/>
<path d="M4810 4515 c-15 -18 1 -20 18 -3 10 10 16 8 29 -5 18 -17 13 -22 -32
-29 -14 -2 -20 -11 -20 -28 0 -22 4 -25 38 -25 37 -1 37 0 37 40 0 59 -39 87
-70 50z m58 -57 c-7 -21 -36 -34 -49 -21 -6 6 -8 16 -5 22 10 15 59 14 54 -1z"/>
<path d="M4924 4469 c21 -60 21 -60 1 -76 -19 -14 -19 -15 -1 -11 13 2 27 23
43 67 13 35 22 69 20 75 -2 6 -10 -8 -17 -31 -7 -24 -16 -43 -20 -43 -4 0 -12
18 -19 40 -6 22 -15 40 -20 40 -4 0 1 -27 13 -61z"/>
<path d="M5086 4508 c-20 -29 -20 -52 0 -72 32 -32 84 -8 84 38 0 26 -28 56
-53 56 -9 0 -23 -10 -31 -22z m48 6 c25 -9 21 -71 -4 -79 -11 -3 -24 -3 -30 0
-14 9 -13 58 2 73 14 14 12 14 32 6z"/>
<path d="M5331 4511 c-12 -21 -1 -34 37 -46 13 -4 21 -12 19 -18 -5 -15 -47
-22 -47 -8 0 6 -5 11 -11 11 -8 0 -7 -5 1 -16 19 -22 64 -14 68 12 2 16 -4 24
-27 32 -17 6 -31 15 -31 21 0 18 19 22 42 10 21 -11 22 -11 9 4 -18 23 -48 21
-60 -2z"/>
<path d="M5432 4489 c-2 -53 10 -68 50 -66 27 2 28 4 26 57 -1 49 -2 50 -5 13
-5 -49 -25 -72 -47 -53 -8 6 -17 30 -19 53 l-4 42 -1 -46z"/>
<path d="M5682 4521 c-21 -13 -10 -44 17 -51 14 -3 26 -11 29 -18 6 -18 -26
-26 -45 -11 -14 12 -16 12 -11 -1 6 -21 52 -24 68 -6 16 20 1 41 -35 50 -14 4
-25 10 -25 15 0 16 32 22 48 9 13 -11 14 -10 10 2 -5 18 -37 24 -56 11z"/>
<path d="M5786 4514 c-31 -31 -12 -94 28 -94 13 0 29 7 36 15 8 9 9 15 2 15
-6 0 -14 -4 -17 -10 -19 -31 -58 12 -48 51 6 22 33 33 47 19 16 -16 30 -12 16
5 -16 19 -44 19 -64 -1z"/>
<path d="M5892 4470 c1 -49 2 -51 5 -13 3 30 11 47 26 58 22 15 22 15 -6 13
-26 -2 -27 -4 -25 -58z"/>
<path d="M5963 4475 c0 -33 2 -45 4 -27 2 18 2 45 0 60 -2 15 -4 0 -4 -33z"/>
<path d="M6142 4518 c-17 -17 -15 -73 2 -88 18 -14 58 -10 64 8 3 11 0 11 -16
1 -17 -10 -23 -10 -36 0 -26 22 -19 31 24 31 44 0 52 16 24 44 -18 19 -45 21
-62 4z m42 -4 c28 -11 18 -34 -14 -34 -32 0 -37 9 -18 28 14 14 12 14 32 6z"/>
<path d="M6252 4470 c1 -50 2 -51 5 -13 3 28 11 47 24 57 20 14 20 14 -5 12
-25 -1 -26 -3 -24 -56z"/>
<path d="M6332 4518 c-20 -20 -14 -35 18 -47 17 -5 30 -15 30 -21 0 -18 -29
-23 -47 -9 -14 12 -16 12 -11 -1 6 -21 52 -24 68 -6 10 13 10 19 0 31 -7 8
-18 15 -26 15 -18 0 -28 20 -16 32 8 8 16 7 28 -3 15 -12 17 -12 12 1 -6 19
-40 24 -56 8z"/>
<path d="M6567 4523 c-14 -13 -7 -25 8 -13 17 14 48 5 43 -13 -3 -6 -18 -14
-34 -17 -23 -4 -29 -10 -29 -30 0 -23 4 -25 43 -26 40 -2 42 0 42 26 0 49 -17
80 -43 80 -13 0 -27 -3 -30 -7z m53 -67 c0 -13 -20 -26 -41 -26 -5 0 -9 9 -9
20 0 15 7 20 25 20 15 0 25 -6 25 -14z"/>
<path d="M6671 4470 l2 -55 6 43 c8 49 21 65 44 56 11 -4 17 -21 20 -52 4 -42
4 -41 3 8 l-1 55 -37 0 -38 1 1 -56z"/>
<path d="M6852 4518 c-7 -7 -12 -26 -12 -43 0 -36 15 -55 45 -55 30 0 45 19
45 55 0 36 -15 55 -45 55 -12 0 -26 -5 -33 -12z m56 -10 c30 -30 -2 -93 -36
-71 -21 13 -27 50 -12 69 15 17 32 18 48 2z"/>
<path d="M7092 4477 c-1 -32 -7 -67 -12 -78 -8 -13 -7 -19 0 -19 17 0 21 23
17 91 l-3 64 -2 -58z"/>
<path d="M7142 4518 c-17 -17 -15 -73 2 -88 18 -14 58 -10 64 8 3 11 0 11 -16
1 -17 -10 -23 -10 -36 0 -26 22 -19 31 24 31 44 0 52 16 24 44 -18 19 -45 21
-62 4z m42 -4 c28 -11 18 -34 -14 -34 -32 0 -37 9 -18 28 14 14 12 14 32 6z"/>
<path d="M7262 4518 c-17 -17 -15 -73 2 -88 18 -14 58 -10 64 8 3 11 0 11 -16
1 -17 -10 -23 -10 -36 0 -37 31 -7 93 33 71 12 -6 21 -7 21 -1 0 20 -50 27
-68 9z"/>
<path d="M4210 3981 c0 -13 -8 -21 -22 -23 -18 -2 -23 -10 -23 -33 0 -26 4
-30 28 -31 26 -1 27 1 27 52 0 30 -2 54 -5 54 -3 0 -5 -9 -5 -19z m-2 -53 c-5
-34 -38 -37 -38 -4 0 20 5 26 21 26 15 0 20 -5 17 -22z"/>
<path d="M3362 3978 c-18 -18 -15 -26 18 -43 35 -18 31 -34 -8 -36 -24 -2 -25
-2 -4 -6 23 -4 52 11 52 28 0 5 -14 16 -31 25 -32 16 -30 28 6 37 20 5 20 5 0
6 -12 0 -26 -4 -33 -11z"/>
<path d="M3461 3978 c0 -10 -7 -18 -13 -18 -10 0 -10 -2 -2 -8 7 -4 14 -18 15
-32 3 -15 11 -25 22 -26 12 -1 13 -1 2 3 -21 6 -19 50 3 56 15 4 15 5 0 6 -9
0 -19 9 -21 19 -4 16 -5 16 -6 0z"/>
<path d="M3641 3978 c0 -10 -7 -18 -13 -18 -10 0 -10 -2 -2 -8 7 -4 14 -18 15
-32 3 -15 11 -25 22 -26 12 -1 13 -1 2 3 -21 6 -19 50 3 56 15 4 15 5 0 6 -9
0 -19 9 -21 19 -4 16 -5 16 -6 0z"/>
<path d="M3992 3978 c-7 -7 -12 -26 -12 -44 0 -32 14 -45 48 -43 10 1 6 4 -8
8 -20 6 -25 13 -25 41 0 28 5 35 25 41 21 6 22 7 5 8 -12 1 -26 -4 -33 -11z"/>
<path d="M4526 3981 c-4 -5 3 -7 14 -4 27 7 27 -27 0 -52 -28 -26 -25 -35 13
-34 23 1 26 3 10 6 l-23 4 22 29 c17 24 19 32 8 45 -14 17 -36 20 -44 6z"/>
<path d="M4608 3966 c-8 -20 -8 -32 0 -51 22 -48 66 -21 60 37 -4 44 -42 53
-60 14z m47 5 c3 -5 -5 -17 -17 -25 -12 -9 -18 -16 -12 -16 5 0 16 6 23 13 10
10 12 7 9 -13 -4 -34 -34 -38 -42 -6 -3 13 -3 32 0 40 7 18 29 21 39 7z"/>
<path d="M4702 3978 c-17 -17 -15 -63 4 -79 22 -18 48 0 52 35 6 45 -29 71
-56 44z m41 -5 c4 -3 1 -13 -6 -21 -9 -13 -9 -14 1 -8 8 5 12 0 12 -14 0 -22
-22 -36 -40 -25 -8 5 -7 11 2 23 10 12 10 14 1 8 -14 -8 -19 25 -6 37 8 9 28
9 36 0z"/>
<path d="M4882 3978 c-17 -17 -15 -63 4 -79 22 -18 48 0 52 35 6 45 -29 71
-56 44z m43 -38 c0 -28 -4 -35 -20 -35 -13 0 -21 8 -23 23 -5 34 5 54 25 50
13 -2 18 -13 18 -38z"/>
<path d="M4960 3940 c0 -27 5 -50 10 -50 6 0 10 10 10 23 l1 22 18 -22 c11
-13 23 -23 27 -23 4 0 -3 11 -16 25 l-23 25 23 25 c13 14 20 25 16 25 -4 0
-16 -10 -27 -22 l-18 -23 -1 23 c0 12 -4 22 -10 22 -5 0 -10 -22 -10 -50z"/>
<path d="M3563 3953 c24 -6 21 -21 -5 -25 -32 -4 -30 -33 2 -33 21 0 26 5 28
33 3 28 0 32 -20 31 -17 -1 -18 -3 -5 -6z m17 -43 c0 -5 -7 -10 -15 -10 -8 0
-15 5 -15 10 0 6 7 10 15 10 8 0 15 -4 15 -10z"/>
<path d="M3713 3930 c2 -31 5 -35 30 -36 25 -1 27 2 26 35 -1 36 -1 36 -8 6
-3 -17 -13 -30 -21 -30 -8 0 -18 13 -22 30 -6 29 -6 29 -5 -5z"/>
<path d="M3815 3950 c-8 -14 3 -30 21 -30 20 0 18 -18 -3 -23 -15 -3 -14 -4 1
-3 27 1 32 26 7 33 -28 7 -27 20 2 26 22 4 22 4 0 6 -12 0 -25 -3 -28 -9z"/>
<path d="M4074 3946 c-10 -25 0 -51 20 -54 27 -6 48 25 35 49 -12 22 -47 25
-55 5z m46 -21 c0 -18 -5 -25 -20 -25 -15 0 -20 7 -20 25 0 18 5 25 20 25 15
0 20 -7 20 -25z"/>
<path d="M4254 3946 c-11 -30 0 -51 29 -52 25 -1 25 -1 2 3 -33 6 -32 23 1 23
19 0 25 5 22 18 -4 22 -46 29 -54 8z m46 -6 c0 -5 -9 -10 -20 -10 -11 0 -20 5
-20 10 0 6 9 10 20 10 11 0 20 -4 20 -10z"/>
<path d="M4360 3950 c0 -5 5 -10 10 -10 6 0 10 5 10 10 0 6 -4 10 -10 10 -5 0
-10 -4 -10 -10z"/>
<path d="M4360 3900 c0 -5 5 -10 10 -10 6 0 10 5 10 10 0 6 -4 10 -10 10 -5 0
-10 -4 -10 -10z"/>
<path d="M4888 3803 c7 -3 12 -23 12 -48 0 -25 -5 -45 -12 -48 -7 -3 3 -5 22
-5 19 0 27 2 18 5 -14 3 -18 15 -18 54 0 40 -3 49 -17 48 -11 0 -13 -3 -5 -6z"/>
<path d="M5631 3788 c-5 -13 -16 -40 -25 -62 -17 -42 -21 -60 -6 -36 15 26 50
120 45 120 -3 0 -9 -10 -14 -22z"/>
<path d="M5710 3800 c0 -5 5 -10 10 -10 6 0 10 5 10 10 0 6 -4 10 -10 10 -5 0
-10 -4 -10 -10z"/>
<path d="M3360 3781 c-22 -42 -5 -81 35 -81 18 0 17 2 -5 13 -16 8 -25 21 -25
37 0 16 9 29 25 37 24 12 24 13 3 13 -12 0 -27 -9 -33 -19z"/>
<path d="M3641 3788 c0 -10 -7 -18 -13 -18 -10 0 -10 -2 -2 -8 7 -4 14 -18 15
-32 3 -15 11 -25 22 -26 12 -1 13 -1 2 3 -21 6 -19 50 3 56 15 4 15 5 0 6 -9
0 -19 9 -21 19 -4 16 -5 16 -6 0z"/>
<path d="M3911 3788 c0 -10 -7 -18 -13 -18 -10 0 -10 -2 -2 -8 7 -4 14 -18 15
-32 3 -15 11 -25 22 -26 12 -1 13 -1 2 3 -21 6 -19 50 3 56 15 4 15 5 0 6 -9
0 -19 9 -21 19 -4 16 -5 16 -6 0z"/>
<path d="M4072 3793 c12 -3 18 -18 21 -51 l3 -47 2 47 c2 40 5 47 25 51 12 2
2 4 -23 4 -25 1 -37 -1 -28 -4z"/>
<path d="M5251 3788 c0 -10 -7 -18 -13 -18 -10 0 -10 -2 -2 -8 7 -4 14 -18 15
-32 3 -15 11 -25 22 -26 12 -1 13 -1 2 3 -21 6 -19 50 3 56 15 4 15 5 0 6 -9
0 -19 9 -21 19 -4 16 -5 16 -6 0z"/>
<path d="M3450 3755 c-18 -22 -8 -50 19 -50 28 0 47 25 38 49 -8 20 -40 21
-57 1z m48 -18 c4 -20 -25 -34 -40 -19 -15 15 -1 44 19 40 10 -2 19 -11 21
-21z"/>
<path d="M3530 3736 c0 -20 5 -36 10 -36 6 0 10 13 10 29 0 17 -4 33 -10 36
-6 4 -10 -8 -10 -29z"/>
<path d="M3567 3762 c6 -4 13 -21 16 -37 4 -27 4 -27 6 8 1 29 -3 37 -16 37
-12 0 -14 -3 -6 -8z"/>
<path d="M3720 3755 c-20 -24 -8 -50 25 -52 18 -1 22 1 10 4 -36 9 -40 23 -7
23 34 0 40 8 20 28 -16 16 -33 15 -48 -3z m45 -5 c4 -6 -5 -10 -20 -10 -15 0
-24 4 -20 10 3 6 12 10 20 10 8 0 17 -4 20 -10z"/>
<path d="M3801 3730 l1 -35 7 30 c9 43 39 45 44 3 l4 -33 1 38 c2 36 1 37 -28
35 -28 -2 -30 -5 -29 -38z"/>
<path d="M4167 3734 c17 -34 17 -36 -2 -50 -16 -12 -16 -14 -2 -14 17 0 53 57
43 68 -3 3 -6 0 -6 -6 0 -22 -20 -12 -26 13 -3 14 -10 25 -15 25 -5 0 -1 -16
8 -36z"/>
<path d="M4210 3759 c0 -5 5 -7 10 -4 6 3 10 8 10 11 0 2 -4 4 -10 4 -5 0 -10
-5 -10 -11z"/>
<path d="M4251 3716 c1 -28 3 -43 6 -34 2 9 14 18 26 20 17 2 22 10 22 33 0
26 -4 30 -27 31 -27 1 -28 -1 -27 -50z m49 19 c0 -18 -5 -25 -20 -25 -20 0
-28 28 -13 43 15 16 33 6 33 -18z"/>
<path d="M4344 3756 c-11 -30 0 -51 29 -52 25 -1 25 -1 2 3 -33 6 -32 23 1 23
19 0 25 5 22 18 -4 22 -46 29 -54 8z m46 -6 c0 -5 -9 -10 -20 -10 -11 0 -20 5
-20 10 0 6 9 10 20 10 11 0 20 -4 20 -10z"/>
<path d="M4450 3760 c0 -5 5 -10 10 -10 6 0 10 5 10 10 0 6 -4 10 -10 10 -5 0
-10 -4 -10 -10z"/>
<path d="M4615 3761 c-3 -7 0 -8 9 -5 8 3 21 2 28 -2 9 -6 5 -10 -12 -14 -14
-3 -26 -14 -28 -23 -3 -14 3 -17 28 -15 28 2 31 5 28 33 -2 22 -9 31 -25 33
-11 2 -24 -2 -28 -7z m40 -41 c-3 -5 -13 -10 -21 -10 -8 0 -14 5 -14 10 0 6 9
10 21 10 11 0 17 -4 14 -10z"/>
<path d="M4690 3718 c0 -27 5 -48 10 -48 6 0 10 7 10 15 0 8 6 15 14 15 21 0
38 27 31 49 -4 15 -14 20 -36 18 -28 -2 -29 -4 -29 -49z m55 16 c0 -10 -8 -20
-17 -22 -18 -3 -26 27 -11 42 12 11 28 0 28 -20z"/>
<path d="M4780 3718 c0 -27 5 -48 10 -48 6 0 10 7 10 15 0 8 6 15 14 15 21 0
38 27 31 49 -4 15 -14 20 -36 18 -28 -2 -29 -4 -29 -49z m55 16 c0 -10 -8 -20
-17 -22 -18 -3 -26 27 -11 42 12 11 28 0 28 -20z"/>
<path d="M4978 3763 c6 -2 12 -15 12 -28 0 -13 -6 -26 -12 -28 -7 -3 3 -5 22
-5 19 0 27 2 18 5 -12 3 -18 14 -18 34 0 21 -5 29 -17 28 -11 0 -13 -3 -5 -6z"/>
<path d="M5059 3754 c-17 -21 0 -48 32 -51 24 -2 24 -2 -1 5 -23 7 -26 13 -21
41 0 5 11 12 24 14 21 4 21 4 1 6 -12 0 -27 -6 -35 -15z"/>
<path d="M5173 3764 c24 -8 21 -22 -5 -26 -28 -4 -30 -32 -3 -35 16 -1 16 -1
3 3 -24 7 -23 24 1 24 11 0 22 -8 25 -17 2 -10 4 -2 3 17 -2 27 -7 35 -22 37
-16 1 -16 1 -2 -3z"/>
<path d="M5338 3763 c19 -7 15 -51 -5 -56 -10 -3 -2 -5 17 -5 19 0 29 2 23 5
-7 2 -13 18 -13 34 0 21 -5 29 -17 28 -11 0 -13 -3 -5 -6z"/>
<path d="M5414 3756 c-10 -25 0 -51 20 -54 27 -6 48 25 35 49 -12 22 -47 25
-55 5z m46 -21 c0 -18 -5 -25 -20 -25 -15 0 -20 7 -20 25 0 18 5 25 20 25 15
0 20 -7 20 -25z"/>
<path d="M5501 3731 c1 -36 1 -36 8 -6 8 40 38 46 44 8 4 -28 4 -28 3 2 -1 26
-5 30 -28 31 -26 1 -28 -2 -27 -35z"/>
<path d="M5698 3763 c18 -4 22 -11 22 -39 0 -26 -5 -37 -22 -44 -23 -10 -23
-10 2 -7 22 2 25 7 28 50 3 46 2 47 -25 46 -24 -2 -24 -2 -5 -6z"/>
<path d="M5777 3763 c-13 -13 -7 -24 21 -35 l27 -11 -30 -8 -30 -8 29 2 c39 3
44 24 9 38 l-28 12 25 7 c22 7 22 8 4 9 -11 1 -24 -2 -27 -6z"/>
<path d="M5860 3755 c-18 -22 -1 -50 31 -50 20 0 24 5 24 30 0 23 -5 31 -21
33 -11 2 -27 -4 -34 -13z m50 -20 c0 -18 -5 -25 -19 -25 -24 0 -33 13 -25 34
10 27 44 20 44 -9z"/>
<path d="M5951 3731 c1 -36 1 -36 8 -6 8 40 38 46 44 8 4 -28 4 -28 3 2 -1 26
-5 30 -28 31 -26 1 -28 -2 -27 -35z"/>
<path d="M3998 3743 c6 -2 18 -2 25 0 6 3 1 5 -13 5 -14 0 -19 -2 -12 -5z"/>
<path d="M4450 3710 c0 -5 5 -10 10 -10 6 0 10 5 10 10 0 6 -4 10 -10 10 -5 0
-10 -4 -10 -10z"/>
<path d="M3582 3415 c-1 -11 -12 -25 -24 -30 -27 -12 -32 -58 -8 -62 31 -6 41
12 37 63 -2 27 -4 40 -5 29z m-2 -54 c0 -11 -5 -23 -11 -27 -15 -9 -33 12 -26
30 9 23 37 20 37 -3z"/>
<path d="M3350 3371 c0 -47 2 -51 24 -51 28 0 51 24 40 42 -5 7 -8 22 -9 33 0
14 -8 21 -27 23 -27 3 -28 2 -28 -47z m50 24 c0 -8 -7 -15 -15 -15 -8 0 -15 7
-15 15 0 8 7 15 15 15 8 0 15 -7 15 -15z m5 -45 c0 -8 -8 -16 -17 -18 -13 -2
-18 3 -18 18 0 15 5 20 18 18 9 -2 17 -10 17 -18z"/>
<path d="M3450 3375 c-18 -22 -8 -50 19 -50 28 0 47 25 38 49 -8 20 -40 21
-57 1z m48 -18 c4 -20 -25 -34 -40 -19 -15 15 -1 44 19 40 10 -2 19 -11 21
-21z"/>
<path d="M3620 3385 c0 -4 7 -20 16 -37 15 -30 15 -32 -2 -45 -10 -7 -13 -13
-7 -13 6 0 16 6 22 13 17 21 43 90 32 82 -6 -3 -11 -12 -11 -20 0 -26 -20 -26
-30 -1 -9 23 -20 35 -20 21z"/>
<path d="M3730 3380 c0 -5 5 -10 10 -10 6 0 10 5 10 10 0 6 -4 10 -10 10 -5 0
-10 -4 -10 -10z"/>
<path d="M3730 3330 c0 -5 5 -10 10 -10 6 0 10 5 10 10 0 6 -4 10 -10 10 -5 0
-10 -4 -10 -10z"/>
<path d="M3370 3170 c0 -60 2 -70 18 -69 10 0 12 3 5 6 -8 3 -13 26 -13 63 0
37 5 60 13 63 7 3 5 6 -5 6 -16 1 -18 -9 -18 -69z"/>
<path d="M3567 3043 c-4 -3 -7 -15 -7 -25 0 -10 -7 -21 -15 -24 -14 -6 -14 -8
-1 -18 8 -6 16 -22 18 -35 2 -14 9 -26 16 -27 7 -1 8 0 2 3 -5 2 -10 15 -10
27 0 12 -5 27 -11 33 -8 8 -8 13 0 17 6 4 11 16 11 26 0 10 6 21 13 23 6 3 7
6 1 6 -6 1 -14 -2 -17 -6z"/>
<path d="M3722 2840 c0 -14 2 -19 5 -12 2 6 2 18 0 25 -3 6 -5 1 -5 -13z"/>
<path d="M3750 2839 c0 -11 5 -17 10 -14 6 3 10 13 10 21 0 8 -4 14 -10 14 -5
0 -10 -9 -10 -21z"/>
<path d="M3940 2842 c0 -9 -10 -22 -22 -27 -15 -7 -23 -19 -23 -35 0 -20 5
-25 28 -26 26 -1 27 1 27 52 0 30 -2 54 -5 54 -3 0 -5 -8 -5 -18z m-2 -54 c-4
-29 -38 -38 -38 -10 0 22 8 32 27 32 9 0 13 -8 11 -22z"/>
<path d="M3992 2840 c0 -14 2 -19 5 -12 2 6 2 18 0 25 -3 6 -5 1 -5 -13z"/>
<path d="M4022 2840 c0 -14 2 -19 5 -12 2 6 2 18 0 25 -3 6 -5 1 -5 -13z"/>
<path d="M4262 2840 c0 -14 2 -19 5 -12 2 6 2 18 0 25 -3 6 -5 1 -5 -13z"/>
<path d="M4292 2840 c0 -14 2 -19 5 -12 2 6 2 18 0 25 -3 6 -5 1 -5 -13z"/>
<path d="M4437 2840 c3 -11 7 -20 9 -20 2 0 4 9 4 20 0 11 -4 20 -9 20 -5 0
-7 -9 -4 -20z"/>
<path d="M4472 2840 c0 -14 2 -19 5 -12 2 6 2 18 0 25 -3 6 -5 1 -5 -13z"/>
<path d="M4350 2840 c-13 -8 -12 -10 3 -10 13 0 17 -8 17 -34 0 -24 -5 -36
-17 -39 -10 -3 -2 -5 17 -5 19 0 29 2 23 5 -8 3 -13 23 -13 49 0 45 -4 51 -30
34z"/>
<path d="M3818 2813 c19 -7 15 -51 -5 -56 -10 -3 -2 -5 17 -5 19 0 29 2 23 5
-7 2 -13 18 -13 34 0 21 -5 29 -17 28 -11 0 -13 -3 -5 -6z"/>
<path d="M4090 2810 c0 -5 5 -10 10 -10 6 0 10 5 10 10 0 6 -4 10 -10 10 -5 0
-10 -4 -10 -10z"/>
<path d="M4090 2760 c0 -5 5 -10 10 -10 6 0 10 5 10 10 0 6 -4 10 -10 10 -5 0
-10 -4 -10 -10z"/>
<path d="M4544 2755 c3 -8 -3 -19 -12 -25 -16 -11 -15 -11 1 -6 10 3 21 6 23
6 2 0 4 9 4 20 0 11 -5 20 -11 20 -6 0 -9 -7 -5 -15z"/>
<path d="M3722 2650 c0 -14 2 -19 5 -12 2 6 2 18 0 25 -3 6 -5 1 -5 -13z"/>
<path d="M3750 2649 c0 -11 5 -17 10 -14 6 3 10 13 10 21 0 8 -4 14 -10 14 -5
0 -10 -9 -10 -21z"/>
<path d="M4172 2650 c0 -14 2 -19 5 -12 2 6 2 18 0 25 -3 6 -5 1 -5 -13z"/>
<path d="M4202 2650 c0 -14 2 -19 5 -12 2 6 2 18 0 25 -3 6 -5 1 -5 -13z"/>
<path d="M4437 2650 c3 -11 7 -20 9 -20 2 0 4 9 4 20 0 11 -4 20 -9 20 -5 0
-7 -9 -4 -20z"/>
<path d="M4472 2650 c0 -14 2 -19 5 -12 2 6 2 18 0 25 -3 6 -5 1 -5 -13z"/>
<path d="M4690 2615 c0 -30 5 -55 10 -55 6 0 10 25 10 55 0 30 -4 55 -10 55
-5 0 -10 -25 -10 -55z"/>
<path d="M5242 2650 c0 -14 2 -19 5 -12 2 6 2 18 0 25 -3 6 -5 1 -5 -13z"/>
<path d="M5270 2649 c0 -11 5 -17 10 -14 6 3 10 13 10 21 0 8 -4 14 -10 14 -5
0 -10 -9 -10 -21z"/>
<path d="M4538 2653 c18 -4 22 -11 22 -43 0 -26 -5 -40 -15 -43 -11 -4 -10 -4
2 -3 14 1 19 12 21 49 3 46 2 47 -25 46 -24 -2 -24 -2 -5 -6z"/>
<path d="M4960 2610 c0 -46 2 -50 23 -50 30 0 47 18 47 50 0 32 -17 50 -47 50
-21 0 -23 -4 -23 -50z m55 0 c0 -29 -4 -36 -22 -38 -21 -3 -23 1 -23 38 0 37
2 41 23 38 18 -2 22 -9 22 -38z"/>
<path d="M3801 2590 l1 -35 7 30 c9 43 39 45 44 3 l4 -33 1 38 c2 36 1 37 -28
35 -28 -2 -30 -5 -29 -38z"/>
<path d="M3923 2624 c24 -8 21 -22 -5 -26 -28 -4 -30 -32 -3 -35 16 -1 16 -1
3 3 -24 7 -23 24 1 24 11 0 22 -8 25 -17 2 -10 4 -2 3 17 -2 27 -7 35 -22 37
-16 1 -16 1 -2 -3z"/>
<path d="M3970 2593 c0 -18 5 -33 10 -33 6 0 10 14 10 30 0 40 18 38 23 -2 l4
-33 1 33 c1 17 6 32 11 32 6 0 12 -15 14 -32 l5 -33 -2 35 c-1 33 -3 35 -38
36 -37 1 -38 -1 -38 -33z"/>
<path d="M4074 2616 c-11 -30 0 -51 29 -52 25 -1 25 -1 2 3 -33 6 -32 23 1 23
19 0 25 5 22 18 -4 22 -46 29 -54 8z m46 -6 c0 -5 -9 -10 -20 -10 -11 0 -20 5
-20 10 0 6 9 10 20 10 11 0 20 -4 20 -10z"/>
<path d="M4270 2620 c0 -5 5 -10 10 -10 6 0 10 5 10 10 0 6 -4 10 -10 10 -5 0
-10 -4 -10 -10z"/>
<path d="M4610 2615 c-18 -22 -1 -50 31 -50 20 0 24 5 24 30 0 23 -5 31 -21
33 -11 2 -27 -4 -34 -13z m50 -20 c0 -18 -5 -25 -19 -25 -24 0 -33 13 -25 34
10 27 44 20 44 -9z"/>
<path d="M4727 2622 c6 -4 13 -21 16 -37 4 -27 4 -27 6 8 1 29 -3 37 -16 37
-12 0 -14 -3 -6 -8z"/>
<path d="M4780 2596 c0 -20 5 -36 10 -36 6 0 10 13 10 29 0 17 -4 33 -10 36
-6 4 -10 -8 -10 -29z"/>
<path d="M4817 2622 c6 -4 13 -21 16 -37 4 -27 4 -27 6 8 1 29 -3 37 -16 37
-12 0 -14 -3 -6 -8z"/>
<path d="M5054 2616 c-11 -28 1 -51 25 -51 32 0 49 28 32 49 -17 20 -50 21
-57 2z m54 -19 c4 -20 -25 -34 -40 -19 -15 15 -1 44 19 40 10 -2 19 -11 21
-21z"/>
<path d="M5150 2615 c-20 -24 -8 -50 25 -52 18 -1 22 1 10 4 -36 9 -40 23 -7
23 34 0 40 8 20 28 -16 16 -33 15 -48 -3z m45 -5 c4 -6 -5 -10 -20 -10 -15 0
-24 4 -20 10 3 6 12 10 20 10 8 0 17 -4 20 -10z"/>
<path d="M4270 2570 c0 -5 5 -10 10 -10 6 0 10 5 10 10 0 6 -4 10 -10 10 -5 0
-10 -4 -10 -10z"/>
<path d="M5347 2564 c3 -9 0 -20 -8 -25 -9 -6 -10 -9 -2 -9 15 0 35 35 26 44
-12 12 -22 6 -16 -10z"/>
<path d="M3722 2460 c0 -14 2 -19 5 -12 2 6 2 18 0 25 -3 6 -5 1 -5 -13z"/>
<path d="M3750 2459 c0 -11 5 -17 10 -14 6 3 10 13 10 21 0 8 -4 14 -10 14 -5
0 -10 -9 -10 -21z"/>
<path d="M3981 2427 c-1 -58 -1 -58 27 -55 23 3 27 8 27 33 0 23 -4 30 -20 30
-13 0 -22 9 -26 25 -4 16 -7 5 -8 -33z m49 -22 c0 -18 -5 -25 -20 -25 -20 0
-28 28 -13 43 15 16 33 6 33 -18z"/>
<path d="M4360 2470 c0 -5 5 -10 10 -10 6 0 10 5 10 10 0 6 -4 10 -10 10 -5 0
-10 -4 -10 -10z"/>
<path d="M4431 2428 c-1 -49 2 -58 17 -58 28 0 44 16 40 41 -2 16 -10 24 -23
24 -13 0 -22 9 -26 25 -4 16 -7 5 -8 -32z m47 -20 c-4 -29 -38 -38 -38 -10 0
22 8 32 27 32 9 0 13 -8 11 -22z"/>
<path d="M4660 2460 c0 -13 -7 -20 -20 -20 -10 0 -24 -8 -29 -18 -14 -26 5
-52 34 -50 23 2 25 6 25 55 0 29 -2 53 -5 53 -3 0 -5 -9 -5 -20z m0 -50 c0
-24 -29 -38 -40 -20 -12 19 -1 40 21 40 12 0 19 -7 19 -20z"/>
<path d="M4780 2425 c0 -30 5 -55 10 -55 6 0 10 25 10 55 0 30 -4 55 -10 55
-5 0 -10 -25 -10 -55z"/>
<path d="M5248 2473 c7 -3 12 -23 12 -48 0 -33 -4 -45 -17 -48 -10 -3 -2 -5
17 -5 19 0 29 2 23 5 -8 3 -13 24 -13 54 0 40 -3 49 -17 48 -11 0 -13 -3 -5
-6z"/>
<path d="M5332 2460 c0 -14 2 -19 5 -12 2 6 2 18 0 25 -3 6 -5 1 -5 -13z"/>
<path d="M5360 2459 c0 -11 5 -17 10 -14 6 3 10 13 10 21 0 8 -4 14 -10 14 -5
0 -10 -9 -10 -21z"/>
<path d="M5602 2460 c0 -14 2 -19 5 -12 2 6 2 18 0 25 -3 6 -5 1 -5 -13z"/>
<path d="M5632 2460 c0 -14 2 -19 5 -12 2 6 2 18 0 25 -3 6 -5 1 -5 -13z"/>
<path d="M5772 2425 c0 -42 2 -51 7 -30 8 40 38 46 44 8 4 -28 4 -28 3 2 -1
23 -6 30 -21 30 -13 0 -22 9 -26 25 -4 15 -7 1 -7 -35z"/>
<path d="M6228 2473 c7 -3 12 -23 12 -48 0 -25 -5 -45 -12 -48 -7 -3 3 -5 22
-5 19 0 27 2 18 5 -14 3 -18 15 -18 54 0 40 -3 49 -17 48 -11 0 -13 -3 -5 -6z"/>
<path d="M6492 2460 c0 -14 2 -19 5 -12 2 6 2 18 0 25 -3 6 -5 1 -5 -13z"/>
<path d="M6520 2459 c0 -11 5 -17 10 -14 6 3 10 13 10 21 0 8 -4 14 -10 14 -5
0 -10 -9 -10 -21z"/>
<path d="M4700 2451 c-22 -42 -5 -81 35 -81 18 0 17 2 -5 13 -16 8 -25 21 -25
37 0 16 9 29 25 37 24 12 24 13 3 13 -12 0 -27 -9 -33 -19z"/>
<path d="M5694 2462 c-35 -23 -21 -93 19 -91 22 0 22 0 1 9 -25 10 -36 33 -27
56 3 9 15 20 27 24 13 5 15 9 6 9 -8 0 -20 -3 -26 -7z"/>
<path d="M6397 2418 c-10 -30 -12 -47 -5 -40 16 16 55 15 62 0 9 -19 -3 37
-14 67 -14 37 -24 31 -43 -27z m42 -5 c1 -7 -8 -13 -18 -13 -18 0 -19 3 -9 32
10 28 12 30 19 12 4 -10 8 -25 8 -31z"/>
<path d="M3815 2430 c-8 -14 3 -30 21 -30 20 0 18 -18 -3 -23 -15 -3 -14 -4 1
-3 27 1 32 26 7 33 -28 7 -27 20 2 26 22 4 22 4 0 6 -12 0 -25 -3 -28 -9z"/>
<path d="M3893 2410 c2 -31 5 -35 30 -36 25 -1 27 2 26 35 -1 36 -1 36 -8 6
-3 -17 -13 -30 -21 -30 -8 0 -18 13 -22 30 -6 29 -6 29 -5 -5z"/>
<path d="M4077 2433 c-13 -13 -7 -24 21 -35 l27 -11 -30 -8 -30 -8 29 2 c39 3
44 24 9 38 l-28 12 25 7 c22 7 22 8 4 9 -11 1 -24 -2 -27 -6z"/>
<path d="M4172 2428 c-27 -27 -7 -60 36 -57 10 1 6 4 -8 8 -16 4 -25 14 -25
26 0 12 9 22 25 26 21 6 22 7 5 8 -12 1 -26 -4 -33 -11z"/>
<path d="M4251 2400 c1 -22 3 -27 6 -13 6 32 32 51 44 32 7 -12 9 -11 9 3 0
13 -7 17 -30 15 -27 -2 -30 -5 -29 -37z"/>
<path d="M4353 2433 c10 -3 17 -14 17 -28 0 -14 -7 -25 -17 -28 -10 -3 -2 -5
17 -5 19 0 29 2 23 5 -7 2 -13 18 -13 34 0 24 -4 29 -22 28 -17 -1 -19 -2 -5
-6z"/>
<path d="M4524 2426 c-11 -30 0 -51 29 -52 25 -1 25 -1 2 3 -33 6 -32 23 1 23
19 0 25 5 22 18 -4 22 -46 29 -54 8z m46 -6 c0 -5 -9 -10 -20 -10 -11 0 -20 5
-20 10 0 6 9 10 20 10 11 0 20 -4 20 -10z"/>
<path d="M4817 2432 c6 -4 13 -21 16 -37 4 -27 4 -27 6 8 1 29 -3 37 -16 37
-12 0 -14 -3 -6 -8z"/>
<path d="M4903 2433 c24 -6 21 -21 -5 -25 -32 -4 -30 -33 2 -33 21 0 26 5 28
33 3 28 0 32 -20 31 -17 -1 -18 -3 -5 -6z m17 -43 c0 -5 -7 -10 -15 -10 -8 0
-15 5 -15 10 0 6 7 10 15 10 8 0 15 -4 15 -10z"/>
<path d="M4960 2406 c0 -20 5 -36 10 -36 6 0 10 13 10 29 0 17 -4 33 -10 36
-6 4 -10 -8 -10 -29z"/>
<path d="M4997 2432 c6 -4 13 -21 16 -37 4 -27 4 -27 6 8 1 29 -3 37 -16 37
-12 0 -14 -3 -6 -8z"/>
<path d="M5051 2400 l1 -35 7 30 c9 43 39 45 44 3 l4 -33 1 38 c2 36 1 37 -28
35 -28 -2 -30 -5 -29 -38z"/>
<path d="M5150 2425 c-20 -24 -8 -50 25 -52 18 -1 22 1 10 4 -36 9 -40 23 -7
23 34 0 40 8 20 28 -16 16 -33 15 -48 -3z m45 -5 c4 -6 -5 -10 -20 -10 -15 0
-24 4 -20 10 3 6 12 10 20 10 8 0 17 -4 20 -10z"/>
<path d="M5430 2430 c0 -5 5 -10 10 -10 6 0 10 5 10 10 0 6 -4 10 -10 10 -5 0
-10 -4 -10 -10z"/>
<path d="M5865 2431 c-3 -7 0 -8 9 -5 8 3 21 2 28 -2 9 -6 5 -10 -12 -14 -14
-3 -26 -14 -28 -23 -3 -14 3 -17 28 -15 28 2 31 5 28 33 -2 22 -9 31 -25 33
-11 2 -24 -2 -28 -7z m40 -41 c-3 -5 -13 -10 -21 -10 -8 0 -14 5 -14 10 0 6 9
10 21 10 11 0 17 -4 14 -10z"/>
<path d="M5951 2401 c1 -36 1 -36 8 -6 8 40 38 46 44 8 4 -28 4 -28 3 2 -1 26
-5 30 -28 31 -26 1 -28 -2 -27 -35z"/>
<path d="M6030 2406 c0 -20 5 -36 10 -36 6 0 10 13 10 29 0 17 -4 33 -10 36
-6 4 -10 -8 -10 -29z"/>
<path d="M6067 2432 c6 -4 13 -21 16 -37 4 -27 4 -27 6 8 1 29 -3 37 -16 37
-12 0 -14 -3 -6 -8z"/>
<path d="M6129 2424 c-17 -21 0 -48 32 -51 19 -1 20 -1 4 4 -36 9 -40 23 -7
23 34 0 40 8 20 28 -16 16 -33 15 -49 -4z m46 -4 c4 -6 -5 -10 -20 -10 -15 0
-24 4 -20 10 3 6 12 10 20 10 8 0 17 -4 20 -10z"/>
<path d="M5430 2380 c0 -5 5 -10 10 -10 6 0 10 5 10 10 0 6 -4 10 -10 10 -5 0
-10 -4 -10 -10z"/>
<path d="M3548 2283 c6 -2 12 -13 12 -23 0 -10 5 -22 11 -26 8 -4 8 -9 0 -17
-6 -6 -11 -21 -11 -33 0 -12 -5 -25 -10 -27 -6 -3 -5 -4 2 -3 7 1 15 13 16 27
2 13 7 28 12 33 5 5 5 16 0 25 -5 9 -11 24 -14 34 -3 9 -11 17 -18 16 -10 0
-10 -2 0 -6z"/>
<path d="M3650 2183 c0 -12 -6 -24 -12 -26 -8 -4 -9 -6 -2 -6 20 -2 39 28 26
41 -9 9 -12 7 -12 -9z"/>
<path d="M3567 2093 c-4 -3 -7 -15 -7 -25 0 -10 -7 -21 -15 -24 -14 -6 -14 -8
-1 -18 8 -6 16 -22 18 -35 2 -14 9 -26 16 -27 7 -1 8 0 2 3 -5 2 -10 15 -10
27 0 12 -5 27 -11 33 -8 8 -8 13 0 17 6 4 11 16 11 26 0 10 6 21 13 23 6 3 7
6 1 6 -6 1 -14 -2 -17 -6z"/>
<path d="M3722 1890 c0 -14 2 -19 5 -12 2 6 2 18 0 25 -3 6 -5 1 -5 -13z"/>
<path d="M3750 1889 c0 -11 5 -17 10 -14 6 3 10 13 10 21 0 8 -4 14 -10 14 -5
0 -10 -9 -10 -21z"/>
<path d="M3940 1892 c0 -9 -10 -22 -22 -27 -15 -7 -23 -19 -23 -35 0 -20 5
-25 28 -26 26 -1 27 1 27 52 0 30 -2 54 -5 54 -3 0 -5 -8 -5 -18z m-2 -54 c-4
-29 -38 -38 -38 -10 0 22 8 32 27 32 9 0 13 -8 11 -22z"/>
<path d="M3992 1890 c0 -14 2 -19 5 -12 2 6 2 18 0 25 -3 6 -5 1 -5 -13z"/>
<path d="M4022 1890 c0 -14 2 -19 5 -12 2 6 2 18 0 25 -3 6 -5 1 -5 -13z"/>
<path d="M4262 1890 c0 -14 2 -19 5 -12 2 6 2 18 0 25 -3 6 -5 1 -5 -13z"/>
<path d="M4292 1890 c0 -14 2 -19 5 -12 2 6 2 18 0 25 -3 6 -5 1 -5 -13z"/>
<path d="M4437 1890 c3 -11 7 -20 9 -20 2 0 4 9 4 20 0 11 -4 20 -9 20 -5 0
-7 -9 -4 -20z"/>
<path d="M4472 1890 c0 -14 2 -19 5 -12 2 6 2 18 0 25 -3 6 -5 1 -5 -13z"/>
<path d="M4346 1891 c-4 -5 3 -7 14 -4 27 7 27 -27 0 -52 -28 -26 -25 -35 13
-34 23 1 26 3 10 6 l-23 4 22 29 c17 24 19 32 8 45 -14 17 -36 20 -44 6z"/>
<path d="M3818 1863 c19 -7 15 -51 -5 -56 -10 -3 -2 -5 17 -5 19 0 29 2 23 5
-7 2 -13 18 -13 34 0 21 -5 29 -17 28 -11 0 -13 -3 -5 -6z"/>
<path d="M4090 1860 c0 -5 5 -10 10 -10 6 0 10 5 10 10 0 6 -4 10 -10 10 -5 0
-10 -4 -10 -10z"/>
<path d="M4090 1810 c0 -5 5 -10 10 -10 6 0 10 5 10 10 0 6 -4 10 -10 10 -5 0
-10 -4 -10 -10z"/>
<path d="M4544 1805 c3 -8 -3 -19 -12 -25 -16 -11 -15 -11 1 -6 10 3 21 6 23
6 2 0 4 9 4 20 0 11 -5 20 -11 20 -6 0 -9 -7 -5 -15z"/>
<path d="M3722 1700 c0 -14 2 -19 5 -12 2 6 2 18 0 25 -3 6 -5 1 -5 -13z"/>
<path d="M3750 1699 c0 -11 5 -17 10 -14 6 3 10 13 10 21 0 8 -4 14 -10 14 -5
0 -10 -9 -10 -21z"/>
<path d="M4172 1700 c0 -14 2 -19 5 -12 2 6 2 18 0 25 -3 6 -5 1 -5 -13z"/>
<path d="M4202 1700 c0 -14 2 -19 5 -12 2 6 2 18 0 25 -3 6 -5 1 -5 -13z"/>
<path d="M4437 1700 c3 -11 7 -20 9 -20 2 0 4 9 4 20 0 11 -4 20 -9 20 -5 0
-7 -9 -4 -20z"/>
<path d="M4472 1700 c0 -14 2 -19 5 -12 2 6 2 18 0 25 -3 6 -5 1 -5 -13z"/>
<path d="M5323 1665 c-1 -41 1 -51 6 -30 9 43 39 45 44 3 4 -32 4 -32 5 6 2
36 0 38 -22 34 -21 -4 -26 -1 -29 21 -2 14 -4 -1 -4 -34z"/>
<path d="M5422 1700 c0 -14 2 -19 5 -12 2 6 2 18 0 25 -3 6 -5 1 -5 -13z"/>
<path d="M5452 1700 c0 -14 2 -19 5 -12 2 6 2 18 0 25 -3 6 -5 1 -5 -13z"/>
<path d="M4538 1703 c18 -4 22 -11 22 -43 0 -26 -5 -40 -15 -43 -11 -4 -10 -4
2 -3 14 1 19 12 21 49 3 46 2 47 -25 46 -24 -2 -24 -2 -5 -6z"/>
<path d="M4972 1698 c-18 -18 -15 -26 18 -43 35 -18 31 -34 -8 -36 -24 -2 -25
-2 -4 -6 23 -4 52 11 52 28 0 5 -14 16 -31 25 -32 16 -30 28 6 37 20 5 20 5 0
6 -12 0 -26 -4 -33 -11z"/>
<path d="M5251 1698 c0 -10 -7 -18 -13 -18 -10 0 -10 -2 -2 -8 7 -4 14 -18 15
-32 3 -15 11 -25 22 -26 12 -1 13 -1 2 3 -21 6 -19 50 3 56 15 4 15 5 0 6 -9
0 -19 9 -21 19 -4 16 -5 16 -6 0z"/>
<path d="M3801 1640 l1 -35 7 30 c9 43 39 45 44 3 l4 -33 1 38 c2 36 1 37 -28
35 -28 -2 -30 -5 -29 -38z"/>
<path d="M3923 1674 c24 -8 21 -22 -5 -26 -28 -4 -30 -32 -3 -35 16 -1 16 -1
3 3 -24 7 -23 24 1 24 11 0 22 -8 25 -17 2 -10 4 -2 3 17 -2 27 -7 35 -22 37
-16 1 -16 1 -2 -3z"/>
<path d="M3970 1643 c0 -18 5 -33 10 -33 6 0 10 14 10 30 0 40 18 38 23 -2 l4
-33 1 33 c1 17 6 32 11 32 6 0 12 -15 14 -32 l5 -33 -2 35 c-1 33 -3 35 -38
36 -37 1 -38 -1 -38 -33z"/>
<path d="M4074 1666 c-11 -30 0 -51 29 -52 25 -1 25 -1 2 3 -33 6 -32 23 1 23
19 0 25 5 22 18 -4 22 -46 29 -54 8z m46 -6 c0 -5 -9 -10 -20 -10 -11 0 -20 5
-20 10 0 6 9 10 20 10 11 0 20 -4 20 -10z"/>
<path d="M4270 1670 c0 -5 5 -10 10 -10 6 0 10 5 10 10 0 6 -4 10 -10 10 -5 0
-10 -4 -10 -10z"/>
<path d="M4615 1671 c-3 -7 0 -8 9 -5 8 3 21 2 28 -2 9 -6 5 -10 -12 -14 -14
-3 -26 -14 -28 -23 -3 -14 3 -17 28 -15 28 2 31 5 28 33 -2 22 -9 31 -25 33
-11 2 -24 -2 -28 -7z m40 -41 c-3 -5 -13 -10 -21 -10 -8 0 -14 5 -14 10 0 6 9
10 21 10 11 0 17 -4 14 -10z"/>
<path d="M4690 1646 c0 -20 5 -36 10 -36 6 0 10 13 10 29 0 17 -4 33 -10 36
-6 4 -10 -8 -10 -29z"/>
<path d="M4727 1672 c6 -4 13 -21 16 -37 4 -27 4 -27 6 8 1 29 -3 37 -16 37
-12 0 -14 -3 -6 -8z"/>
<path d="M4789 1664 c-17 -21 0 -48 32 -51 19 -1 20 -1 4 4 -36 9 -40 23 -7
23 34 0 40 8 20 28 -16 16 -33 15 -49 -4z m46 -4 c4 -6 -5 -10 -20 -10 -15 0
-24 4 -20 10 3 6 12 10 20 10 8 0 17 -4 20 -10z"/>
<path d="M5053 1645 c0 -22 2 -30 4 -17 2 12 2 30 0 40 -3 9 -5 -1 -4 -23z"/>
<path d="M5079 1641 c3 -22 6 -28 8 -16 9 45 16 50 23 15 l7 -35 2 36 c1 32
-2 37 -22 37 -20 0 -22 -4 -18 -37z"/>
<path d="M5158 1673 c19 -7 15 -51 -5 -56 -10 -3 -2 -5 17 -5 19 0 29 2 23 5
-7 2 -13 18 -13 34 0 21 -5 29 -17 28 -11 0 -13 -3 -5 -6z"/>
<path d="M4270 1620 c0 -5 5 -10 10 -10 6 0 10 5 10 10 0 6 -4 10 -10 10 -5 0
-10 -4 -10 -10z"/>
<path d="M5523 1616 c3 -7 0 -19 -6 -26 -9 -10 -9 -11 3 -8 18 5 26 48 10 48
-7 0 -10 -6 -7 -14z"/>
<path d="M3722 1510 c0 -14 2 -19 5 -12 2 6 2 18 0 25 -3 6 -5 1 -5 -13z"/>
<path d="M3750 1509 c0 -11 5 -17 10 -14 6 3 10 13 10 21 0 8 -4 14 -10 14 -5
0 -10 -9 -10 -21z"/>
<path d="M3981 1477 c-1 -58 -1 -58 27 -55 23 3 27 8 27 33 0 23 -4 30 -20 30
-13 0 -22 9 -26 25 -4 16 -7 5 -8 -33z m49 -22 c0 -18 -5 -25 -20 -25 -20 0
-28 28 -13 43 15 16 33 6 33 -18z"/>
<path d="M4360 1520 c0 -5 5 -10 10 -10 6 0 10 5 10 10 0 6 -4 10 -10 10 -5 0
-10 -4 -10 -10z"/>
<path d="M4431 1478 c-1 -49 2 -58 17 -58 28 0 44 16 40 41 -2 16 -10 24 -23
24 -13 0 -22 9 -26 25 -4 16 -7 5 -8 -32z m47 -20 c-4 -29 -38 -38 -38 -10 0
22 8 32 27 32 9 0 13 -8 11 -22z"/>
<path d="M4660 1510 c0 -13 -7 -20 -20 -20 -10 0 -24 -8 -29 -18 -14 -26 5
-52 34 -50 23 2 25 6 25 55 0 29 -2 53 -5 53 -3 0 -5 -9 -5 -20z m0 -50 c0
-24 -29 -38 -40 -20 -12 19 -1 40 21 40 12 0 19 -7 19 -20z"/>
<path d="M4780 1475 c0 -30 5 -55 10 -55 6 0 10 25 10 55 0 30 -4 55 -10 55
-5 0 -10 -25 -10 -55z"/>
<path d="M5248 1523 c7 -3 12 -23 12 -48 0 -33 -4 -45 -17 -48 -10 -3 -2 -5
17 -5 19 0 29 2 23 5 -8 3 -13 24 -13 54 0 40 -3 49 -17 48 -11 0 -13 -3 -5
-6z"/>
<path d="M5332 1510 c0 -14 2 -19 5 -12 2 6 2 18 0 25 -3 6 -5 1 -5 -13z"/>
<path d="M5360 1509 c0 -11 5 -17 10 -14 6 3 10 13 10 21 0 8 -4 14 -10 14 -5
0 -10 -9 -10 -21z"/>
<path d="M5602 1510 c0 -14 2 -19 5 -12 2 6 2 18 0 25 -3 6 -5 1 -5 -13z"/>
<path d="M5632 1510 c0 -14 2 -19 5 -12 2 6 2 18 0 25 -3 6 -5 1 -5 -13z"/>
<path d="M5772 1475 c0 -42 2 -51 7 -30 8 40 38 46 44 8 4 -28 4 -28 3 2 -1
23 -6 30 -21 30 -13 0 -22 9 -26 25 -4 15 -7 1 -7 -35z"/>
<path d="M6228 1523 c7 -3 12 -23 12 -48 0 -25 -5 -45 -12 -48 -7 -3 3 -5 22
-5 19 0 27 2 18 5 -14 3 -18 15 -18 54 0 40 -3 49 -17 48 -11 0 -13 -3 -5 -6z"/>
<path d="M6492 1510 c0 -14 2 -19 5 -12 2 6 2 18 0 25 -3 6 -5 1 -5 -13z"/>
<path d="M6520 1509 c0 -11 5 -17 10 -14 6 3 10 13 10 21 0 8 -4 14 -10 14 -5
0 -10 -9 -10 -21z"/>
<path d="M4700 1501 c-22 -42 -5 -81 35 -81 18 0 17 2 -5 13 -16 8 -25 21 -25
37 0 16 9 29 25 37 24 12 24 13 3 13 -12 0 -27 -9 -33 -19z"/>
<path d="M5694 1512 c-35 -23 -21 -93 19 -91 22 0 22 0 1 9 -12 4 -24 15 -27
24 -9 23 2 46 27 56 13 5 15 9 6 9 -8 0 -20 -3 -26 -7z"/>
<path d="M6390 1471 c0 -47 2 -51 24 -51 28 0 51 24 40 42 -5 7 -8 22 -9 33 0
14 -8 21 -27 23 -27 3 -28 2 -28 -47z m50 24 c0 -8 -9 -15 -20 -15 -11 0 -20
7 -20 15 0 8 9 15 20 15 11 0 20 -7 20 -15z m5 -45 c0 -8 -10 -16 -22 -18 -18
-3 -23 2 -23 18 0 16 5 21 23 18 12 -2 22 -10 22 -18z"/>
<path d="M3815 1480 c-8 -14 3 -30 21 -30 20 0 18 -18 -3 -23 -15 -3 -14 -4 1
-3 27 1 32 26 7 33 -28 7 -27 20 2 26 22 4 22 4 0 6 -12 0 -25 -3 -28 -9z"/>
<path d="M3893 1460 c2 -31 5 -35 30 -36 25 -1 27 2 26 35 -1 36 -1 36 -8 6
-3 -17 -13 -30 -21 -30 -8 0 -18 13 -22 30 -6 29 -6 29 -5 -5z"/>
<path d="M4077 1483 c-13 -13 -7 -24 21 -35 l27 -11 -30 -8 -30 -8 29 2 c39 3
44 24 9 38 l-28 12 25 7 c22 7 22 8 4 9 -11 1 -24 -2 -27 -6z"/>
<path d="M4172 1478 c-27 -27 -7 -60 36 -57 10 1 6 4 -8 8 -16 4 -25 14 -25
26 0 12 9 22 25 26 21 6 22 7 5 8 -12 1 -26 -4 -33 -11z"/>
<path d="M4251 1450 c1 -22 3 -27 6 -13 6 32 32 51 44 32 7 -12 9 -11 9 3 0
13 -7 17 -30 15 -27 -2 -30 -5 -29 -37z"/>
<path d="M4353 1483 c10 -3 17 -14 17 -28 0 -14 -7 -25 -17 -28 -10 -3 -2 -5
17 -5 19 0 29 2 23 5 -7 2 -13 18 -13 34 0 24 -4 29 -22 28 -17 -1 -19 -2 -5
-6z"/>
<path d="M4524 1476 c-11 -30 0 -51 29 -52 25 -1 25 -1 2 3 -33 6 -32 23 1 23
19 0 25 5 22 18 -4 22 -46 29 -54 8z m46 -6 c0 -5 -9 -10 -20 -10 -11 0 -20 5
-20 10 0 6 9 10 20 10 11 0 20 -4 20 -10z"/>
<path d="M4817 1482 c6 -4 13 -21 16 -37 4 -27 4 -27 6 8 1 29 -3 37 -16 37
-12 0 -14 -3 -6 -8z"/>
<path d="M4903 1483 c24 -6 21 -21 -5 -25 -32 -4 -30 -33 2 -33 21 0 26 5 28
33 3 28 0 32 -20 31 -17 -1 -18 -3 -5 -6z m17 -43 c0 -5 -7 -10 -15 -10 -8 0
-15 5 -15 10 0 6 7 10 15 10 8 0 15 -4 15 -10z"/>
<path d="M4960 1456 c0 -20 5 -36 10 -36 6 0 10 13 10 29 0 17 -4 33 -10 36
-6 4 -10 -8 -10 -29z"/>
<path d="M4997 1482 c6 -4 13 -21 16 -37 4 -27 4 -27 6 8 1 29 -3 37 -16 37
-12 0 -14 -3 -6 -8z"/>
<path d="M5051 1450 l1 -35 7 30 c9 43 39 45 44 3 l4 -33 1 38 c2 36 1 37 -28
35 -28 -2 -30 -5 -29 -38z"/>
<path d="M5150 1475 c-20 -24 -8 -50 25 -52 18 -1 22 1 10 4 -36 9 -40 23 -7
23 34 0 40 8 20 28 -16 16 -33 15 -48 -3z m45 -5 c4 -6 -5 -10 -20 -10 -15 0
-24 4 -20 10 3 6 12 10 20 10 8 0 17 -4 20 -10z"/>
<path d="M5430 1480 c0 -5 5 -10 10 -10 6 0 10 5 10 10 0 6 -4 10 -10 10 -5 0
-10 -4 -10 -10z"/>
<path d="M5865 1481 c-3 -7 0 -8 9 -5 8 3 21 2 28 -2 9 -6 5 -10 -12 -14 -14
-3 -26 -14 -28 -23 -3 -14 3 -17 28 -15 28 2 31 5 28 33 -2 22 -9 31 -25 33
-11 2 -24 -2 -28 -7z m40 -41 c-3 -5 -13 -10 -21 -10 -8 0 -14 5 -14 10 0 6 9
10 21 10 11 0 17 -4 14 -10z"/>
<path d="M5951 1451 c1 -36 1 -36 8 -6 8 40 38 46 44 8 4 -28 4 -28 3 2 -1 26
-5 30 -28 31 -26 1 -28 -2 -27 -35z"/>
<path d="M6030 1456 c0 -20 5 -36 10 -36 6 0 10 13 10 29 0 17 -4 33 -10 36
-6 4 -10 -8 -10 -29z"/>
<path d="M6067 1482 c6 -4 13 -21 16 -37 4 -27 4 -27 6 8 1 29 -3 37 -16 37
-12 0 -14 -3 -6 -8z"/>
<path d="M6129 1474 c-17 -21 0 -48 32 -51 19 -1 20 -1 4 4 -36 9 -40 23 -7
23 34 0 40 8 20 28 -16 16 -33 15 -49 -4z m46 -4 c4 -6 -5 -10 -20 -10 -15 0
-24 4 -20 10 3 6 12 10 20 10 8 0 17 -4 20 -10z"/>
<path d="M5430 1430 c0 -5 5 -10 10 -10 6 0 10 5 10 10 0 6 -4 10 -10 10 -5 0
-10 -4 -10 -10z"/>
<path d="M3548 1333 c6 -2 12 -13 12 -23 0 -10 5 -22 11 -26 8 -4 8 -9 0 -17
-6 -6 -11 -21 -11 -33 0 -12 -5 -25 -10 -27 -6 -3 -5 -4 2 -3 7 1 15 13 16 27
2 13 7 28 12 33 5 5 5 16 0 25 -5 9 -11 24 -14 34 -3 9 -11 17 -18 16 -10 0
-10 -2 0 -6z"/>
<path d="M3650 1233 c0 -12 -6 -24 -12 -26 -8 -4 -9 -6 -2 -6 20 -2 39 28 26
41 -9 9 -12 7 -12 -9z"/>
<path d="M3552 1070 c-11 -27 -19 -50 -16 -50 7 0 45 92 41 97 -2 2 -14 -19
-25 -47z"/>
<path d="M3642 1070 c-11 -27 -19 -50 -16 -50 7 0 45 92 41 97 -2 2 -14 -19
-25 -47z"/>
<path d="M3820 1050 c0 -5 5 -10 10 -10 6 0 10 5 10 10 0 6 -4 10 -10 10 -5 0
-10 -4 -10 -10z"/>
<path d="M3910 1050 c0 -5 5 -10 10 -10 6 0 10 5 10 10 0 6 -4 10 -10 10 -5 0
-10 -4 -10 -10z"/>
<path d="M4000 1050 c0 -5 5 -10 10 -10 6 0 10 5 10 10 0 6 -4 10 -10 10 -5 0
-10 -4 -10 -10z"/>
<path d="M3373 953 c14 -4 17 -16 17 -63 0 -47 -3 -59 -17 -63 -14 -4 -12 -5
5 -6 21 -1 22 3 22 69 0 66 -1 70 -22 69 -17 -1 -19 -2 -5 -6z"/>
<path d="M19070 115 l24 -25 23 22 c13 12 23 23 23 25 0 2 -21 3 -47 3 l-46 0
23 -25z"/>
<path d="M2870 35 c0 -13 -166 -15 -1435 -15 -950 0 -1435 -3 -1435 -10 0 -7
3207 -10 9600 -10 6393 0 9600 3 9600 10 0 7 -2608 10 -7802 10 -6845 1 -7805
2 -7822 15 -27 20 -96 20 -96 0 0 -13 -38 -15 -292 -13 -161 1 -276 3 -255 5
55 6 45 23 -13 23 -38 0 -50 -4 -50 -15z m678 -12 c-10 -2 -26 -2 -35 0 -10 3
-2 5 17 5 19 0 27 -2 18 -5z"/>
</g>
</svg>
