<?xml version="1.0" standalone="no"?>
<!DOCTYPE svg PUBLIC "-//W3C//DTD SVG 20010904//EN"
 "http://www.w3.org/TR/2001/REC-SVG-20010904/DTD/svg10.dtd">
<svg version="1.0" xmlns="http://www.w3.org/2000/svg"
 width="1900.000000pt" height="986.000000pt" viewBox="0 0 1900.000000 986.000000"
 preserveAspectRatio="xMidYMid meet">

<g transform="translate(0.000000,986.000000) scale(0.100000,-0.100000)"
fill="#000000" stroke="none">
<path d="M0 9850 c0 -7 3173 -10 9500 -10 6327 0 9500 3 9500 10 0 7 -3173 10
-9500 10 -6327 0 -9500 -3 -9500 -10z"/>
<path d="M17425 9641 c-11 -5 -29 -19 -40 -31 -18 -20 -20 -36 -20 -206 l0
-184 28 -27 27 -28 570 0 570 0 27 28 28 27 0 185 0 185 -28 27 -27 28 -558 2
c-306 1 -566 -2 -577 -6z m345 -226 l0 -65 40 0 c22 0 40 -4 40 -10 0 -5 -22
-10 -50 -10 l-50 0 0 75 c0 43 4 75 10 75 6 0 10 -28 10 -65z m350 55 c0 -5
-7 -10 -15 -10 -8 0 -15 5 -15 10 0 6 7 10 15 10 8 0 15 -4 15 -10z m-172 -42
c17 -17 15 -73 -2 -87 -8 -7 -30 -11 -48 -9 -25 2 -35 9 -42 30 -15 43 6 78
47 78 18 0 38 -5 45 -12z m122 -52 c0 -43 -5 -67 -14 -75 -19 -16 -78 -10 -84
8 -3 10 3 12 26 6 18 -3 33 -2 37 4 4 7 -3 11 -17 11 -32 0 -48 18 -48 55 0
41 16 55 62 55 l38 0 0 -64z m50 9 c0 -42 -3 -55 -15 -55 -12 0 -15 13 -15 55
0 42 3 55 15 55 12 0 15 -13 15 -55z m108 -2 c2 -43 0 -53 -12 -53 -12 0 -16
11 -16 46 0 38 -3 45 -17 42 -13 -2 -19 -15 -21 -46 -2 -28 -8 -42 -18 -42
-10 0 -14 14 -14 56 l0 55 48 -3 47 -3 3 -52z"/>
<path d="M17887 9413 c-13 -13 -7 -54 9 -60 24 -9 46 24 33 48 -10 19 -30 25
-42 12z"/>
<path d="M18007 9413 c-11 -10 -8 -51 4 -59 6 -3 18 0 26 9 12 11 13 19 4 36
-12 22 -23 26 -34 14z"/>
<path d="M472 9544 c-12 -8 -22 -21 -22 -28 0 -7 -9 -21 -20 -31 -11 -10 -20
-29 -20 -42 0 -30 19 -30 22 0 1 12 4 -9 8 -48 9 -90 32 -149 58 -153 13 -2
23 4 27 17 5 17 15 21 55 21 40 0 50 -4 55 -21 4 -13 14 -19 27 -17 26 4 58
93 59 168 1 30 4 45 6 33 2 -13 9 -23 14 -23 17 0 9 47 -11 65 -11 10 -20 24
-20 31 0 29 -43 44 -130 44 -61 0 -92 -4 -108 -16z m216 -91 l-3 -58 -105 0
-105 0 -3 58 -3 57 111 0 111 0 -3 -57z m-170 -120 c-2 -10 -10 -18 -18 -18
-8 0 -16 8 -18 18 -2 12 3 17 18 17 15 0 20 -5 18 -17z m162 3 c0 -8 -5 -18
-11 -22 -14 -8 -33 11 -25 25 10 16 36 13 36 -3z"/>
<path d="M12260 9475 c0 -8 5 -15 10 -15 6 0 10 7 10 15 0 8 -4 15 -10 15 -5
0 -10 -7 -10 -15z"/>
<path d="M880 9400 c0 -47 4 -80 10 -80 6 0 10 14 10 30 0 25 4 30 23 30 15 0
29 -11 40 -30 10 -16 23 -30 29 -30 6 0 2 12 -7 27 -17 25 -17 28 0 55 15 27
15 31 1 53 -13 20 -25 25 -61 25 l-45 0 0 -80z m81 60 c40 -22 12 -70 -40 -70
-18 0 -21 6 -21 40 0 34 3 40 21 40 11 0 29 -5 40 -10z"/>
<path d="M1030 9400 l0 -80 58 2 c56 2 56 2 10 5 -46 4 -48 6 -48 34 0 27 3
29 35 29 19 0 35 5 35 10 0 6 -16 10 -35 10 -32 0 -35 2 -35 29 0 28 3 30 43
34 40 3 40 4 -10 5 l-53 2 0 -80z"/>
<path d="M1171 9466 c-23 -28 -9 -60 31 -71 54 -15 68 -32 43 -51 -11 -8 -28
-12 -37 -9 -10 3 -28 8 -40 11 -22 5 -22 5 -4 -10 23 -19 77 -21 94 -4 7 7 12
22 12 34 0 17 -9 25 -37 35 -48 15 -63 27 -57 44 7 18 44 26 67 14 15 -9 18
-8 15 3 -7 19 -72 22 -87 4z"/>
<path d="M1300 9400 l0 -80 58 2 c56 2 56 2 10 5 -46 4 -48 6 -48 34 0 27 2
29 40 29 22 0 40 5 40 10 0 6 -18 10 -40 10 -38 0 -40 2 -40 29 0 28 2 30 48
34 46 3 46 3 -10 5 l-58 2 0 -80z"/>
<path d="M1440 9400 c0 -47 4 -80 10 -80 6 0 10 14 10 30 0 41 31 40 60 -1 26
-35 40 -31 17 5 -14 21 -14 26 -2 36 18 15 20 61 3 78 -7 7 -31 12 -55 12
l-43 0 0 -80z m84 54 c9 -8 16 -22 16 -29 0 -17 -31 -35 -59 -35 -18 0 -21 6
-21 40 0 36 3 40 24 40 14 0 32 -7 40 -16z"/>
<path d="M1570 9475 c0 -15 63 -155 69 -155 6 0 32 56 68 148 3 6 1 12 -4 12
-5 0 -17 -22 -27 -49 -9 -27 -23 -57 -30 -66 -11 -16 -15 -10 -36 44 -19 53
-40 86 -40 66z"/>
<path d="M1740 9400 l0 -80 53 2 52 1 -45 6 c-40 5 -45 9 -48 34 -3 26 -1 27
37 27 23 0 41 5 41 10 0 6 -18 10 -41 10 -38 0 -40 1 -37 28 3 24 8 28 48 33
l45 6 -52 1 -53 2 0 -80z"/>
<path d="M12120 9470 c0 -5 11 -10 25 -10 24 0 25 -2 25 -65 0 -37 4 -65 10
-65 6 0 10 28 10 65 0 63 1 65 25 65 14 0 25 5 25 10 0 6 -27 10 -60 10 -33 0
-60 -4 -60 -10z"/>
<path d="M12430 9405 c0 -43 4 -75 10 -75 6 0 10 11 10 25 0 32 9 32 36 -2 12
-16 25 -25 29 -21 4 4 -2 19 -14 34 -20 25 -20 28 -5 46 26 28 8 35 -21 8
l-25 -23 0 41 c0 23 -4 42 -10 42 -6 0 -10 -32 -10 -75z"/>
<path d="M13204 9472 c-16 -10 -34 -48 -34 -70 0 -11 9 -31 21 -46 25 -32 68
-35 94 -6 23 26 11 39 -15 15 -41 -37 -93 7 -75 64 10 33 37 42 70 25 33 -17
42 -13 20 10 -17 17 -62 21 -81 8z"/>
<path d="M16540 9465 c0 -8 5 -15 10 -15 6 0 10 7 10 15 0 8 -4 15 -10 15 -5
0 -10 -7 -10 -15z"/>
<path d="M12670 9456 c0 -8 -6 -17 -12 -19 -10 -4 -10 -6 0 -6 8 -1 12 -17 12
-46 0 -32 5 -47 15 -52 9 -3 19 -2 23 2 4 4 1 10 -5 12 -8 3 -13 21 -13 43 0
21 6 41 13 43 10 4 10 6 0 6 -7 1 -13 8 -13 16 0 8 -4 15 -10 15 -5 0 -10 -6
-10 -14z"/>
<path d="M13580 9456 c0 -8 -6 -17 -12 -19 -10 -4 -10 -6 0 -6 8 -1 12 -17 12
-46 0 -32 5 -47 15 -52 9 -3 19 -2 23 2 4 4 1 10 -5 12 -8 3 -13 21 -13 43 0
21 6 41 13 43 10 4 10 6 0 6 -7 1 -13 8 -13 16 0 8 -4 15 -10 15 -5 0 -10 -6
-10 -14z"/>
<path d="M13889 9453 c-4 -82 9 -123 40 -123 14 1 14 2 -1 14 -11 8 -18 27
-18 49 0 25 5 37 18 40 16 4 16 5 0 6 -10 0 -18 8 -18 16 0 21 -20 19 -21 -2z"/>
<path d="M16150 9395 c0 -43 4 -75 10 -75 6 0 10 14 10 30 0 23 5 30 19 30 11
0 23 -12 31 -30 7 -16 19 -30 26 -30 12 0 11 5 -3 26 -13 21 -14 30 -5 45 29
45 7 79 -50 79 l-38 0 0 -75z m80 30 c0 -21 -5 -25 -30 -25 -25 0 -30 4 -30
25 0 21 5 25 30 25 25 0 30 -4 30 -25z"/>
<path d="M16709 9443 c-4 -82 9 -123 40 -123 14 1 14 2 -1 14 -11 8 -18 27
-18 49 0 25 5 37 18 40 16 4 16 5 0 6 -10 0 -18 8 -18 16 0 21 -20 19 -21 -2z"/>
<path d="M12260 9385 c0 -30 5 -55 10 -55 6 0 10 25 10 55 0 30 -4 55 -10 55
-5 0 -10 -25 -10 -55z"/>
<path d="M12321 9426 c-17 -20 -10 -77 10 -89 17 -11 69 -2 69 12 0 5 -15 8
-32 7 -30 -1 -33 2 -36 32 -4 36 18 53 43 32 17 -14 31 -8 20 9 -9 16 -61 13
-74 -3z"/>
<path d="M12552 9428 c-7 -7 -12 -26 -12 -43 0 -17 5 -36 12 -43 14 -14 47
-15 68 -2 21 13 5 23 -18 11 -16 -9 -24 -7 -38 7 -17 16 -16 17 29 20 26 2 47
5 47 7 0 2 -4 15 -10 29 -7 20 -17 26 -38 26 -15 0 -33 -5 -40 -12z m58 -13
c11 -13 8 -15 -19 -15 -30 0 -39 9 -24 23 11 11 30 8 43 -8z"/>
<path d="M13329 9416 c-25 -53 24 -108 70 -79 20 12 27 69 10 89 -19 24 -68
18 -80 -10z m66 -26 c0 -31 -3 -35 -25 -35 -29 0 -40 36 -19 61 21 26 44 12
44 -26z"/>
<path d="M13450 9384 c0 -67 18 -72 22 -6 3 39 6 47 23 47 17 0 20 -8 23 -47
2 -27 8 -48 13 -48 6 0 9 22 7 53 l-3 52 -42 1 -43 2 0 -54z"/>
<path d="M13657 9434 c-13 -13 5 -25 19 -13 15 12 44 6 44 -10 0 -6 -16 -13
-36 -17 -31 -6 -35 -10 -32 -33 3 -23 7 -26 46 -27 l42 -1 0 38 c0 57 -8 69
-44 69 -18 0 -36 -3 -39 -6z m63 -64 c0 -18 -37 -31 -49 -16 -6 7 -8 16 -4 19
10 11 53 8 53 -3z"/>
<path d="M13768 9414 c-24 -52 46 -112 81 -70 11 13 8 14 -23 9 -32 -5 -36 -3
-42 22 -9 37 18 65 46 47 27 -16 35 -15 20 3 -21 25 -69 19 -82 -11z"/>
<path d="M14021 9392 c-1 -58 15 -75 50 -53 12 7 19 7 19 1 0 -5 5 -10 10 -10
6 0 10 25 10 55 0 65 -17 74 -22 13 -2 -36 -7 -44 -25 -46 -23 -3 -26 3 -36
68 -3 14 -5 1 -6 -28z"/>
<path d="M14144 9425 c-9 -23 3 -45 25 -45 11 0 23 -5 27 -11 10 -16 -17 -29
-37 -18 -26 13 -33 11 -19 -6 22 -27 80 -16 80 16 0 12 -13 24 -36 34 -42 18
-37 39 8 30 21 -5 28 -4 24 4 -11 16 -66 13 -72 -4z"/>
<path d="M16292 9418 c-17 -17 -15 -73 2 -87 18 -15 68 -11 73 6 3 7 -8 10
-28 10 -18 -1 -34 4 -36 11 -3 8 8 12 36 12 42 0 48 8 31 41 -12 22 -59 26
-78 7z m58 -13 c11 -13 8 -15 -19 -15 -30 0 -39 9 -24 23 11 11 30 8 43 -8z"/>
<path d="M16408 9404 c-17 -38 8 -80 46 -77 21 1 26 -2 24 -15 -3 -13 -12 -16
-38 -14 -25 2 -32 0 -24 -8 6 -6 27 -10 45 -8 l34 3 3 70 3 70 -41 3 c-35 2
-42 -1 -52 -24z m67 -24 c0 -29 -4 -36 -22 -38 -17 -3 -24 3 -29 22 -7 30 11
58 35 54 11 -2 16 -14 16 -38z"/>
<path d="M16540 9375 c0 -30 5 -55 10 -55 6 0 10 25 10 55 0 30 -4 55 -10 55
-5 0 -10 -25 -10 -55z"/>
<path d="M16594 9415 c-8 -20 12 -43 38 -47 12 -2 23 -8 25 -14 6 -17 -27 -26
-44 -13 -15 13 -28 6 -18 -10 9 -16 60 -14 74 3 17 20 3 44 -30 51 -37 8 -32
31 5 28 14 -1 24 2 21 8 -10 15 -65 11 -71 -6z"/>
<path d="M16790 9411 c-14 -28 -12 -57 6 -75 20 -20 58 -21 74 -1 14 17 3 20
-19 6 -9 -6 -22 -6 -33 0 -30 16 -20 29 22 29 32 0 40 4 40 18 0 42 -70 60
-90 23z m68 -8 c2 -9 -7 -13 -28 -13 -28 0 -31 2 -20 15 15 18 41 16 48 -2z"/>
<path d="M16910 9373 c0 -29 5 -53 10 -53 6 0 10 20 10 43 0 36 4 46 23 54 20
10 20 11 -10 10 l-33 0 0 -54z"/>
<path d="M17855 8860 c-7 -22 1 -40 17 -40 6 0 6 6 -2 15 -23 28 -2 28 26 0
19 -19 23 -29 15 -34 -9 -6 -6 -20 11 -52 13 -24 29 -48 36 -52 16 -11 15 -20
-5 -44 -26 -28 -89 -30 -103 -3 -14 26 -46 26 -60 0 -13 -24 -55 -27 -68 -4
-6 11 -11 13 -16 5 -9 -14 -86 -15 -86 -1 0 11 -39 13 -64 4 -9 -3 -13 -10
-10 -15 3 -5 -24 -9 -60 -9 l-65 0 -3 -41 c-3 -41 -4 -42 -57 -59 -29 -9 -57
-24 -63 -33 -12 -21 -48 -22 -48 -1 0 11 -6 14 -20 9 -22 -7 -25 1 -10 25 8
13 13 13 31 2 19 -12 20 -11 15 6 -6 17 0 21 38 26 53 8 85 36 42 36 -15 0
-40 -7 -56 -15 -16 -8 -33 -14 -37 -13 -11 2 -86 -35 -95 -47 -13 -18 -8 -25
17 -25 14 0 25 -4 25 -10 0 -5 -21 -10 -46 -10 -27 0 -43 4 -39 10 3 6 1 10
-4 10 -6 0 -11 -18 -11 -41 0 -22 -4 -38 -9 -35 -5 3 -12 -1 -15 -9 -4 -11
-13 -14 -30 -9 -25 6 -35 -2 -41 -38 -3 -12 -10 -25 -17 -30 -10 -6 -8 -8 5
-8 9 0 17 5 17 10 0 6 6 10 14 10 7 0 16 9 19 20 8 31 27 24 27 -10 0 -16 -4
-30 -10 -30 -6 0 -10 -60 -10 -159 0 -96 -4 -162 -10 -166 -5 -3 -10 -16 -10
-29 0 -12 -4 -26 -9 -31 -5 -6 -11 -28 -13 -50 -3 -44 -12 -55 -45 -55 -16 0
-23 -6 -23 -20 0 -11 -4 -20 -10 -20 -5 0 -10 -5 -10 -11 0 -11 -60 -92 -72
-97 -5 -2 -8 -10 -8 -17 0 -8 -10 -20 -22 -26 -29 -15 -127 -120 -128 -135 0
-7 7 -14 15 -18 9 -3 15 -18 15 -35 0 -18 9 -38 21 -50 26 -24 17 -41 -22 -41
-18 0 -28 4 -24 10 4 6 1 17 -5 25 -6 8 -10 26 -8 41 4 38 -19 42 -27 4 -5
-21 -2 -39 9 -55 11 -17 16 -48 16 -100 0 -41 3 -75 8 -75 4 0 7 -35 7 -77 0
-65 3 -78 17 -81 15 -3 16 6 14 77 -2 54 1 82 9 85 15 5 29 -152 16 -168 -9
-11 -17 -80 -28 -220 -4 -68 -3 -81 12 -92 20 -15 13 -64 -9 -64 -14 0 -21 21
-35 100 l-8 45 -2 -37 c0 -20 -5 -40 -11 -43 -5 -3 -10 -15 -10 -25 0 -11 -22
-42 -50 -69 -27 -28 -50 -59 -50 -69 0 -11 -7 -22 -14 -25 -11 -4 -13 -16 -9
-43 5 -28 2 -39 -10 -46 -10 -5 -17 -18 -17 -30 0 -15 -5 -19 -20 -15 -19 5
-20 0 -20 -96 0 -61 4 -97 9 -88 7 10 12 8 25 -10 19 -28 5 -49 -19 -29 -13
11 -15 9 -15 -13 0 -13 7 -30 15 -37 8 -7 15 -25 15 -41 0 -27 36 -100 52
-107 4 -2 8 -12 8 -23 0 -10 5 -19 10 -19 6 0 10 7 10 15 0 8 5 15 10 15 6 0
10 11 10 25 0 14 -4 25 -8 25 -4 0 -13 14 -19 31 -11 28 -10 32 7 36 11 3 20
12 20 19 0 8 5 14 10 14 6 0 10 -9 10 -20 0 -11 -4 -20 -10 -20 -16 0 -12 -57
5 -64 22 -8 18 -38 -10 -64 l-24 -24 24 -24 c32 -31 38 -30 33 6 -4 24 -1 30
14 30 10 0 18 -6 18 -14 0 -8 7 -16 16 -18 13 -2 12 -6 -5 -25 -12 -12 -21
-27 -21 -33 0 -15 20 -12 26 5 4 8 11 15 18 15 6 0 20 7 31 16 20 15 20 15 -5
34 -25 20 -25 20 -2 20 13 0 22 -6 22 -15 0 -8 7 -15 15 -15 8 0 15 -7 15 -15
0 -8 -3 -14 -7 -13 -10 3 -53 -34 -53 -44 0 -5 7 -8 15 -8 8 0 15 -9 15 -20 0
-11 6 -20 13 -20 21 0 40 -17 32 -30 -5 -8 -13 -6 -26 9 -11 12 -27 21 -35 21
-9 0 3 -15 28 -36 23 -20 45 -40 46 -45 2 -5 8 -9 14 -9 6 0 8 12 5 30 -4 18
-2 30 4 30 6 0 7 5 4 10 -4 6 12 10 40 10 33 0 45 -4 43 -12 -6 -18 -39 -22
-49 -6 -7 11 -11 10 -19 -2 -6 -9 -6 -18 0 -24 14 -14 12 -43 -2 -50 -9 -3 -6
-11 10 -24 12 -11 22 -28 23 -39 0 -14 2 -15 6 -3 3 8 12 19 19 23 21 12 17
30 -6 24 -29 -8 -25 17 10 55 26 29 29 31 30 12 0 -11 -5 -25 -12 -32 -9 -9
-9 -15 0 -24 20 -20 15 -66 -8 -73 -12 -4 -20 -15 -20 -28 1 -20 2 -21 14 -4
21 28 26 20 26 -43 0 -45 4 -60 14 -60 8 0 17 -15 20 -35 9 -49 24 -53 19 -5
-4 29 -1 40 9 40 15 0 48 -34 48 -50 0 -6 5 -10 10 -10 6 0 10 7 10 15 0 8 7
15 15 15 8 0 15 -9 15 -20 0 -11 -4 -20 -10 -20 -5 0 -10 -9 -10 -20 0 -11 5
-20 10 -20 6 0 10 -9 10 -20 0 -11 -7 -20 -15 -20 -8 0 -15 -5 -15 -10 0 -7
14 -9 38 -5 35 6 36 5 18 -9 -11 -9 -25 -16 -32 -16 -19 0 -34 25 -27 48 3 12
1 22 -5 22 -18 0 -22 -44 -6 -68 21 -31 39 -37 75 -22 25 11 32 10 42 -2 7 -8
29 -25 50 -37 26 -16 37 -30 37 -47 0 -23 2 -24 75 -24 57 0 75 -3 75 -14 0
-25 30 -27 40 -3 5 12 10 20 11 17 2 -3 5 -205 8 -450 l6 -445 38 -3 38 -3 -5
413 c-5 472 -9 448 77 448 44 0 48 2 36 16 -10 12 -23 14 -51 10 -23 -4 -38
-2 -38 4 0 7 52 10 146 9 81 0 150 3 153 8 7 9 38 24 88 43 17 6 34 18 37 26
8 21 -8 17 -64 -16 -60 -36 -60 -36 -60 -10 0 15 7 20 25 20 14 0 25 5 25 10
0 6 9 10 19 10 11 0 22 4 25 9 7 10 -17 21 -45 21 -21 0 -24 12 -9 41 14 25
24 24 40 -6 7 -14 20 -25 29 -25 9 -1 27 -7 40 -14 22 -12 28 -11 53 7 25 19
27 22 11 28 -14 4 -16 16 -14 57 1 32 -2 52 -8 52 -16 0 -13 26 4 40 12 10 16
9 21 -3 8 -22 26 -27 67 -17 31 7 37 5 43 -12 7 -24 20 -13 29 23 5 20 1 32
-15 47 -21 19 -21 21 -5 46 10 15 15 37 13 51 -3 14 -2 25 3 25 4 0 9 21 11
48 2 26 8 47 13 47 6 0 11 -21 13 -47 3 -52 22 -64 42 -29 14 27 13 82 -2 79
-6 -2 -13 6 -15 17 -9 44 -15 51 -24 28 -4 -13 -13 -23 -18 -23 -14 0 -22 31
-12 44 6 7 7 31 2 61 l-9 50 -1 -57 c0 -32 -5 -58 -11 -58 -5 0 -10 -10 -10
-23 0 -13 -6 -29 -12 -35 -10 -10 -8 -14 9 -18 20 -6 21 -8 7 -22 -10 -9 -13
-24 -10 -38 5 -20 3 -24 -16 -24 -17 0 -19 3 -10 12 16 16 15 28 -3 28 -8 0
-15 -9 -15 -20 0 -17 -7 -20 -47 -20 l-48 0 3 60 c3 50 1 60 -12 60 -12 0 -16
10 -16 38 0 27 3 33 10 22 14 -23 22 -6 17 41 -3 36 -5 40 -11 22 -5 -13 -12
-23 -17 -23 -13 0 -11 84 3 98 7 7 40 12 80 12 62 0 68 -2 68 -21 0 -12 -8
-23 -20 -26 -24 -6 -24 -7 -4 -37 8 -13 14 -36 12 -52 -2 -16 2 -29 11 -32 10
-3 12 6 6 47 -5 37 -3 61 8 84 23 49 29 77 18 77 -5 0 -12 -10 -14 -22 -2 -13
-5 10 -6 50 0 39 2 71 7 70 25 -5 42 17 42 54 0 24 -4 37 -10 33 -6 -4 -9 -1
-8 6 2 7 -4 13 -12 14 -23 0 -21 67 3 71 12 2 17 -5 17 -24 0 -15 4 -33 9 -41
14 -22 31 -3 31 36 0 28 -3 34 -16 29 -13 -5 -15 2 -14 37 3 83 0 105 -16 111
-9 4 -18 5 -20 3 -3 -2 12 -75 22 -109 4 -13 0 -18 -15 -18 -19 0 -21 6 -21
73 0 60 3 74 19 84 22 14 17 58 -5 49 -11 -4 -14 6 -14 39 0 56 26 63 36 11 4
-25 10 -33 21 -29 13 5 14 -5 9 -68 -4 -45 -3 -80 3 -89 11 -15 11 -9 15 97 1
11 4 25 9 29 4 4 7 17 7 28 0 17 -2 18 -10 6 -13 -21 -40 47 -40 102 0 45 -24
93 -41 83 -5 -4 -9 3 -9 14 0 16 6 21 25 21 15 0 25 -6 25 -15 0 -8 9 -19 19
-25 18 -9 19 -12 4 -41 -11 -22 -13 -37 -6 -52 9 -19 12 -15 23 33 10 40 10
55 1 58 -17 6 -13 42 4 42 8 0 15 -9 15 -20 0 -25 28 -27 37 -2 3 9 14 24 24
32 17 14 17 17 4 44 -22 41 -6 54 18 16 12 -20 23 -28 25 -20 3 7 0 15 -5 19
-6 3 -13 18 -17 34 -3 15 -13 27 -21 27 -8 0 -15 6 -15 14 0 9 7 12 20 9 11
-3 20 -14 20 -24 0 -11 5 -19 10 -19 18 0 23 29 8 44 -7 9 -19 22 -26 31 -7 8
-17 13 -23 10 -5 -4 -9 -1 -9 4 0 6 4 11 8 11 13 0 30 56 26 87 -2 15 -1 21 3
13 3 -8 15 -21 25 -30 16 -13 18 -20 9 -43 -13 -33 -4 -87 10 -65 5 7 9 24 10
38 1 23 2 22 11 -7 l11 -33 13 26 c8 15 14 33 14 40 0 8 5 14 10 14 14 0 13
43 -2 58 -9 9 -9 12 0 12 8 0 12 22 12 70 0 40 -4 70 -10 70 -5 0 -10 11 -10
25 0 14 -4 25 -9 25 -5 0 -12 8 -14 18 -2 9 -3 6 -1 -8 1 -14 6 -33 9 -42 5
-13 2 -18 -9 -18 -9 0 -15 3 -14 8 1 4 -4 20 -11 36 -9 21 -9 32 0 42 9 11 8
22 -5 47 -17 36 -17 35 -20 -45 -1 -32 1 -58 6 -58 4 0 8 -7 8 -15 0 -8 -4
-15 -10 -15 -5 0 -10 6 -10 14 0 7 -9 16 -20 19 -20 5 -28 27 -10 27 6 0 10
12 10 26 0 21 -4 24 -20 19 -24 -8 -28 16 -5 35 11 9 13 16 5 24 -5 5 -10 21
-10 34 0 21 2 22 15 12 18 -15 19 -7 4 21 -10 19 -11 19 -23 4 -12 -16 -14
-16 -37 -1 -34 22 -65 66 -74 104 -8 38 -25 43 -25 7 0 -16 -6 -25 -15 -25 -9
0 -15 9 -15 25 0 15 6 25 14 25 8 0 16 10 19 23 3 21 4 21 12 2 5 -11 17 -27
27 -36 10 -9 18 -20 18 -25 0 -15 45 -74 58 -74 16 0 16 26 -1 33 -7 2 -22 23
-32 46 -11 22 -23 41 -27 41 -5 0 -8 7 -8 15 0 8 -4 15 -10 15 -5 0 -10 7 -10
15 0 8 -6 15 -14 15 -8 0 -16 -7 -20 -15 -10 -27 -26 -16 -26 19 0 40 14 54
29 29 10 -17 10 -17 11 0 0 9 -4 17 -10 17 -5 0 -10 7 -10 15 0 17 -25 20 -35
5 -11 -18 -26 -10 -36 20 -7 19 -18 30 -29 30 -15 0 -19 9 -22 43 -3 39 -5 42
-30 42 l-28 -1 0 73 0 73 -65 0 -65 0 0 35 c0 40 11 45 25 13 12 -27 31 -34
38 -13 10 24 -3 45 -32 52 -14 3 -29 11 -33 17 -9 14 -12 -29 -8 -161 2 -85 0
-103 -12 -103 -10 0 -15 11 -16 31 -1 44 -12 50 -12 6 0 -37 0 -37 -44 -37
-41 0 -44 2 -51 33 -5 17 -9 94 -11 170 l-3 137 25 0 c14 0 23 -4 19 -9 -7
-12 11 -23 42 -27 24 -2 33 20 11 29 -8 3 -6 6 5 6 22 1 24 -54 1 -76 -11 -12
-14 -25 -9 -47 4 -17 11 -53 14 -81 l7 -50 10 80 c5 44 8 113 7 153 -1 39 0
72 2 72 2 0 11 -7 19 -16 15 -14 16 -12 16 26 0 33 -4 43 -20 47 -23 6 -27 33
-5 33 19 0 19 5 -1 35 -8 13 -14 34 -12 47 3 21 8 23 51 21 40 -1 47 2 47 18
0 20 -34 27 -45 9 -3 -5 -15 -10 -26 -10 -14 0 -19 7 -19 25 0 23 4 25 45 25
32 0 45 -4 45 -14 0 -8 7 -16 15 -20 15 -5 45 18 45 36 0 6 8 17 18 24 16 13
16 15 0 25 -12 7 -18 23 -18 49 0 25 -5 40 -12 41 -7 1 -19 2 -27 3 -19 1 -27
26 -8 26 18 0 31 42 16 51 -6 3 -10 9 -10 13 3 24 -1 28 -24 22 -20 -5 -25 -3
-25 13 0 11 4 21 9 23 9 3 -73 98 -84 98 -2 0 -6 -9 -10 -20z m85 -70 c0 -5
-4 -10 -10 -10 -5 0 -10 5 -10 10 0 6 5 10 10 10 6 0 10 -4 10 -10z m-522
-297 c2 -9 -7 -13 -27 -13 -34 0 -50 16 -24 23 27 7 46 3 51 -10z m-320 -356
c-2 -106 -8 -199 -13 -207 -5 -7 -9 -30 -9 -49 -1 -25 -6 -36 -16 -36 -12 0
-14 12 -11 60 1 32 7 70 12 83 5 13 9 92 9 176 0 84 3 156 7 159 22 23 25 -6
21 -186z m492 -307 c0 -20 5 -30 15 -30 10 0 15 10 15 30 0 26 4 30 26 30 23
0 25 -3 20 -24 -9 -38 3 -58 33 -54 24 3 26 0 29 -39 2 -24 7 -43 13 -43 5 0
9 -19 10 -42 l1 -43 10 43 c5 25 15 42 24 42 19 0 19 -88 -1 -114 -8 -11 -15
-27 -15 -37 0 -19 -20 -29 -58 -29 -43 0 -49 11 -55 90 -9 112 -17 150 -33
150 -9 0 -14 -12 -14 -35 0 -23 -5 -35 -14 -35 -9 0 -16 -19 -20 -60 -4 -33
-11 -60 -15 -60 -14 0 -24 102 -10 110 7 5 11 38 10 94 0 69 3 86 14 86 10 0
15 -10 15 -30z m140 5 c0 -16 -6 -25 -15 -25 -9 0 -15 9 -15 25 0 16 6 25 15
25 9 0 15 -9 15 -25z m362 -74 c3 -3 8 -22 10 -41 2 -29 0 -35 -18 -38 -16 -2
-23 4 -28 22 -3 15 -11 26 -16 26 -11 0 -14 33 -3 43 7 7 43 0 55 -12z m-1152
-28 c-1 -27 -1 -27 -15 -9 -14 19 -12 36 6 36 5 0 9 -12 9 -27z m-25 -42 c3
-5 1 -12 -5 -16 -17 -10 -11 -54 10 -75 11 -11 20 -26 19 -32 0 -10 -2 -10 -6
0 -2 6 -14 12 -25 12 -16 0 -19 -5 -16 -25 5 -23 2 -25 -33 -25 -29 0 -39 5
-44 21 -4 12 -12 18 -21 15 -9 -4 -14 2 -14 15 0 16 4 19 18 14 9 -4 30 -10
46 -13 25 -4 28 -2 21 14 -16 41 -15 51 5 77 22 28 35 33 45 18z m531 -21 c3
-69 4 -72 19 -66 12 4 15 -6 14 -62 -1 -37 -4 -56 -6 -42 -2 14 -10 30 -17 35
-6 6 -13 23 -14 38 -1 15 -11 46 -22 69 -25 53 -25 60 3 56 16 -2 22 -10 23
-28z m64 21 c0 -10 -28 -41 -36 -41 -2 0 -4 11 -4 25 0 18 5 25 20 25 11 0 20
-4 20 -9z m401 -14 c-14 -37 -7 -161 11 -188 9 -14 18 -34 21 -44 2 -11 5 4 6
33 1 46 -2 54 -21 62 -17 6 -18 9 -6 9 25 1 30 17 19 56 -6 24 -6 44 2 65 11
29 15 31 57 28 l45 -3 3 -167 c2 -145 0 -167 -12 -162 -9 3 -15 9 -14 12 2 22
-4 32 -21 32 -21 0 -45 -23 -34 -33 3 -4 -17 -7 -45 -7 l-52 0 0 35 c0 26 3
33 15 29 11 -5 15 1 15 20 0 16 -6 26 -15 26 -10 0 -15 10 -15 30 0 27 -2 30
-25 24 -22 -6 -25 -3 -24 22 0 16 4 47 8 69 8 38 9 38 10 8 1 -41 11 -64 22
-57 6 3 7 31 3 65 l-7 59 31 0 c29 0 31 -2 23 -23z m-283 -90 c8 -52 7 -57
-10 -57 -20 0 -24 30 -12 89 9 41 11 37 22 -32z m-848 -62 c0 -18 -30 -28 -47
-14 -11 10 -10 14 9 24 26 13 38 10 38 -10z m640 -75 c5 0 11 19 13 43 2 25 4
11 5 -35 1 -47 -2 -78 -8 -78 -11 0 -13 -49 -3 -77 5 -14 10 -7 19 27 12 43
12 40 13 -60 0 -69 -5 -115 -14 -135 l-13 -30 -1 53 c-1 37 -5 54 -16 58 -13
5 -15 32 -13 163 1 86 3 137 5 114 2 -24 8 -43 13 -43z m815 60 c3 -5 4 -14 1
-19 -9 -13 -46 -1 -46 15 0 16 36 19 45 4z m-1468 -62 c-3 -8 -6 -5 -6 6 -1
11 2 17 5 13 3 -3 4 -12 1 -19z m1508 -13 c14 -14 33 -25 42 -23 15 2 19 -7
24 -57 4 -33 11 -71 16 -85 11 -27 7 -50 -8 -50 -5 0 -9 18 -9 41 0 47 -19 49
-33 3 -4 -16 -14 -39 -20 -52 -8 -18 -8 -28 1 -43 7 -10 10 -29 7 -42 -3 -12
-2 -34 3 -47 9 -24 10 -24 17 12 4 20 4 41 1 46 -9 15 5 72 16 66 6 -4 8 -25
5 -49 -4 -23 -2 -57 3 -74 l9 -31 -46 0 c-39 0 -44 2 -33 14 8 10 8 21 2 32
-8 15 -11 14 -29 -5 -21 -23 -53 -20 -53 4 0 7 -5 15 -11 17 -22 7 -43 208
-21 208 9 0 32 79 32 109 0 38 50 41 85 6z m-706 -82 c0 -25 -1 -26 -9 -8 -12
27 -12 35 0 35 6 0 10 -12 9 -27z m584 7 c5 -20 -15 -45 -26 -33 -4 3 -7 17
-7 30 0 28 26 31 33 3z m-933 -7 c-1 -20 -18 -31 -57 -38 -39 -6 -43 -5 -43
13 0 21 17 28 73 31 15 0 27 -2 27 -6z m882 -40 c3 -21 3 -59 0 -85 -4 -39 -8
-48 -23 -48 -12 0 -19 7 -19 20 0 11 5 20 10 20 6 0 10 28 10 65 0 70 15 89
22 28z m-866 -55 c13 -13 24 -31 24 -40 0 -23 45 -25 54 -3 9 26 50 17 74 -15
23 -30 30 -80 12 -80 -18 0 -10 -29 15 -54 15 -15 25 -36 25 -53 0 -28 0 -28
-39 17 -83 95 -211 221 -236 230 -35 13 -21 34 17 26 17 -3 41 -16 54 -28z
m-135 -43 c-5 -5 -11 -19 -14 -30 -3 -12 -5 -6 -6 16 0 20 2 39 6 42 10 11 23
-16 14 -28z m819 -52 c0 -46 -23 -70 -41 -42 -13 20 -11 83 3 97 20 20 38 -6
38 -55z m52 61 c3 -3 1 -21 -5 -40 -6 -18 -7 -37 -4 -40 13 -14 37 20 37 52 0
19 5 34 10 34 6 0 10 -11 10 -24 0 -21 23 -42 42 -38 24 5 28 -154 5 -228 -13
-41 -17 -45 -49 -48 -29 -2 -36 1 -41 18 -3 13 -10 18 -21 14 -14 -5 -14 -9
-4 -22 11 -13 10 -14 -2 -10 -8 2 -20 27 -27 54 -9 41 -12 45 -18 27 -15 -47
-42 -8 -29 41 7 28 18 33 30 15 12 -21 34 64 35 134 0 48 4 67 13 67 7 0 15
-3 18 -6z m168 -65 c0 -27 -6 -58 -12 -69 -10 -15 -10 -22 0 -32 14 -14 16
-60 3 -73 -5 -6 -11 -28 -13 -50 -2 -22 -7 -39 -13 -37 -13 3 -7 247 8 289 15
44 27 32 27 -28z m-979 -41 c17 -18 35 -41 40 -50 8 -15 6 -18 -15 -18 -18 0
-24 4 -20 14 3 9 -6 17 -25 24 -24 8 -31 17 -31 36 0 35 15 33 51 -6z m-51
-56 c0 -27 -25 -5 -28 24 -3 28 -3 28 12 9 8 -11 16 -26 16 -33z m1070 22 c0
-9 8 -23 18 -30 16 -12 16 -14 -1 -43 -10 -17 -17 -36 -16 -43 5 -41 -2 -78
-15 -78 -24 0 -27 16 -15 90 9 54 9 74 1 82 -18 18 -14 38 8 38 12 0 20 -7 20
-16z m284 -29 c-4 -8 -12 -15 -20 -15 -8 0 -14 7 -14 15 0 8 9 15 20 15 13 0
18 -5 14 -15z m26 -40 c0 -8 -7 -15 -15 -15 -8 0 -15 7 -15 15 0 8 7 15 15 15
8 0 15 -7 15 -15z m-1216 -18 c65 -72 62 -65 36 -87 -13 -11 -27 -20 -32 -20
-4 0 -8 -11 -8 -25 0 -16 -6 -25 -15 -25 -12 0 -15 13 -15 63 1 62 1 62 19 40
22 -26 41 -30 41 -9 0 8 -13 23 -30 33 -16 9 -30 25 -30 35 0 24 9 23 34 -5z
m-494 -137 c0 -60 -4 -110 -9 -110 -11 0 -21 114 -14 172 10 86 23 51 23 -62z
m580 24 c0 -13 4 -24 9 -24 5 0 23 -12 40 -26 l31 -26 -2 -356 c-1 -197 -4
-285 -5 -197 -4 183 -15 232 -23 100 -4 -60 -7 -10 -8 148 -2 212 0 237 14
237 13 0 15 6 9 27 -4 16 -7 28 -8 28 -42 9 -113 91 -96 111 15 19 39 6 39
-22z m-17 -76 c9 -5 17 -15 17 -22 0 -8 7 -16 15 -20 23 -9 18 -26 -9 -26 -13
0 -26 7 -30 15 -3 8 -14 15 -25 15 -32 0 -51 11 -51 29 0 10 3 21 6 24 8 7 49
-1 77 -15z m-73 -53 c0 -8 -7 -15 -15 -15 -16 0 -20 12 -8 23 11 12 23 8 23
-8z m-570 -100 c0 -8 -7 -15 -15 -15 -8 0 -15 7 -15 15 0 8 7 15 15 15 8 0 15
-7 15 -15z m1518 -26 c-1 -13 -7 -23 -13 -22 -13 3 -18 30 -11 50 10 24 29 1
24 -28z m-1574 -15 c28 -11 18 -34 -14 -34 -18 0 -30 5 -30 13 0 25 15 32 44
21z m96 -19 c0 -8 -7 -15 -15 -15 -8 0 -15 7 -15 15 0 8 7 15 15 15 8 0 15 -7
15 -15z m-142 -113 l3 -62 -31 0 c-25 0 -30 4 -30 24 0 14 5 28 10 31 6 3 10
22 10 41 0 28 4 35 18 32 14 -3 18 -16 20 -66z m1207 -63 c0 -8 -8 -13 -20
-11 -28 5 -32 12 -15 22 19 12 35 7 35 -11z m149 15 c24 -9 19 -24 -9 -24 -40
0 -96 -37 -160 -106 -65 -69 -96 -85 -71 -36 9 18 12 44 9 75 -5 39 -3 47 11
47 10 0 16 -9 16 -25 0 -38 38 -34 53 5 9 23 18 30 37 30 14 0 33 9 43 20 17
20 42 25 71 14z m94 -16 c-3 -7 -11 -13 -18 -13 -7 0 -15 6 -17 13 -3 7 4 12
17 12 13 0 20 -5 18 -12z m-43 -47 c-9 -16 -25 -3 -18 15 4 10 9 12 15 6 6 -6
7 -15 3 -21z m45 -30 c0 -16 -7 -34 -15 -41 -8 -7 -15 -19 -15 -26 0 -8 -9
-14 -20 -14 -15 0 -20 7 -20 26 0 22 -2 25 -15 14 -8 -7 -15 -19 -15 -26 0 -8
-9 -14 -20 -14 -28 0 -25 9 15 53 39 41 45 44 45 22 0 -8 7 -15 16 -15 12 0
15 6 10 25 -5 20 -3 25 14 25 15 0 20 -7 20 -29z m-1488 -86 c6 -29 -10 -45
-23 -24 -13 21 -11 49 5 49 7 0 16 -11 18 -25z m1088 5 c0 -15 -7 -20 -25 -20
-16 0 -29 -9 -39 -27 -15 -27 -15 -27 -16 -5 0 35 29 72 56 72 17 0 24 -6 24
-20z m-1030 -41 c0 -33 -23 -64 -40 -54 -15 9 -12 42 5 49 8 3 15 12 15 21 0
8 5 15 10 15 6 0 10 -14 10 -31z m1070 15 c0 -19 -38 -65 -62 -75 -20 -8 -28
-19 -28 -35 0 -13 -4 -24 -10 -24 -19 0 -10 27 27 84 22 33 44 56 55 56 10 0
18 -3 18 -6z m200 -14 c0 -13 -10 -24 -26 -30 -14 -6 -24 -13 -22 -18 33 -74
56 -112 69 -115 15 -4 16 -16 13 -93 -5 -95 0 -129 16 -104 6 8 10 32 10 53 0
20 4 37 9 37 6 0 11 24 13 53 4 68 29 73 42 8 9 -40 7 -46 -12 -59 -13 -9 -22
-25 -22 -41 0 -14 -6 -46 -14 -71 -12 -40 -17 -45 -45 -48 -17 -2 -31 1 -31 7
0 5 -10 11 -22 13 -13 2 -28 16 -37 33 -8 17 -18 38 -23 47 -4 10 -8 26 -8 37
0 10 -9 21 -20 24 -11 3 -20 12 -20 21 0 9 9 21 20 28 23 15 27 48 5 48 -24 0
-17 26 10 38 14 6 25 18 25 27 0 19 -14 19 -30 0 -7 -9 -19 -14 -26 -11 -16 6
-20 -21 -19 -115 0 -58 5 -80 18 -93 12 -12 16 -31 15 -62 -3 -41 -5 -44 -31
-44 -23 0 -27 4 -25 28 1 15 1 48 0 75 -2 40 -5 47 -22 47 -13 0 -20 7 -20 20
0 28 -33 26 -53 -2 -11 -16 -16 -18 -16 -8 0 22 73 112 149 183 128 119 130
121 130 87z m-1346 -94 c-1 -20 3 -36 7 -36 5 0 9 -12 9 -26 0 -32 -20 -28
-37 7 -14 29 -6 102 11 96 6 -2 10 -20 10 -41z m1680 36 c8 -13 -5 -52 -15
-46 -12 7 -12 54 0 54 6 0 12 -4 15 -8z m-810 -447 c1 -218 -1 -398 -6 -401
-4 -3 -8 178 -8 402 0 224 3 405 6 401 3 -3 7 -184 8 -402z m44 -82 c-1 -298
-1 -303 -11 -163 -8 127 -2 470 9 470 2 0 3 -138 2 -307z m-678 237 c0 -11 -7
-20 -15 -20 -18 0 -19 12 -3 28 16 16 18 15 18 -8z m1172 -242 c3 -24 28 -37
28 -15 0 9 -6 18 -12 21 -7 3 7 4 32 3 35 -2 46 -6 48 -21 2 -10 0 -21 -6 -25
-5 -3 -12 -42 -15 -86 -3 -45 -10 -81 -16 -83 -14 -5 -15 -52 -1 -52 6 0 10
11 10 25 0 14 5 25 10 25 6 0 10 -22 10 -50 0 -27 5 -50 10 -50 6 0 10 -4 10
-10 0 -16 -32 -12 -52 7 -10 9 -18 22 -18 29 0 7 -9 18 -20 24 -11 6 -20 17
-20 25 0 27 -20 15 -26 -15 -4 -16 -13 -30 -20 -30 -8 0 -19 -9 -26 -20 -14
-22 -64 -28 -66 -7 -1 6 -5 28 -8 48 -3 21 -1 46 6 59 11 20 9 25 -10 40 -16
12 -21 25 -18 50 5 52 26 48 34 -5 3 -26 10 -43 14 -38 11 10 16 110 7 119
-14 15 -6 24 12 15 16 -9 20 -7 25 14 5 21 13 25 40 25 28 0 35 -4 38 -22z
m-182 -17 c0 -16 -6 -31 -12 -33 -9 -3 -13 -27 -13 -70 0 -54 4 -72 23 -98 21
-28 22 -33 9 -60 -11 -21 -12 -30 -3 -34 6 -2 1 -5 -12 -5 -14 -1 -21 3 -17
10 9 14 -3 61 -14 55 -16 -10 -19 33 -14 149 6 112 6 115 29 115 20 0 24 -5
24 -29z m-695 -137 c-9 -9 -18 -14 -21 -11 -9 9 6 27 22 27 13 0 13 -2 -1 -16z
m1145 -4 c0 -5 -4 -10 -10 -10 -5 0 -10 5 -10 10 0 6 5 10 10 10 6 0 10 -4 10
-10z m-1004 -155 c4 -8 12 -15 19 -15 20 0 29 -20 16 -33 -8 -8 -14 -7 -23 5
-7 9 -22 18 -33 20 -28 5 -33 38 -5 38 11 0 23 -7 26 -15z m688 -34 c3 -5 -1
-11 -9 -15 -9 -3 -15 0 -15 9 0 16 16 20 24 6z"/>
<path d="M18020 7681 c0 -6 5 -13 10 -16 6 -3 10 1 10 9 0 9 -4 16 -10 16 -5
0 -10 -4 -10 -9z"/>
<path d="M17917 7413 c-13 -12 -7 -33 8 -33 8 0 15 9 15 20 0 20 -11 26 -23
13z"/>
<path d="M18216 7423 c-4 -9 -2 -21 3 -26 15 -15 41 0 41 23 0 25 -35 28 -44
3z"/>
<path d="M18282 7364 c0 -54 21 -56 26 -2 2 24 -2 37 -12 41 -11 5 -14 -4 -14
-39z"/>
<path d="M18220 7367 c0 -8 9 -22 20 -32 22 -20 27 -7 10 26 -12 22 -30 25
-30 6z"/>
<path d="M18260 7281 c0 -25 6 -27 13 -6 4 8 2 17 -3 20 -6 4 -10 -3 -10 -14z"/>
<path d="M17329 7171 c7 -11 21 -25 32 -32 19 -10 20 -8 17 18 -2 22 -9 29
-31 31 -26 3 -28 2 -18 -17z"/>
<path d="M17954 7045 c-3 -14 -3 -33 1 -42 7 -17 8 -16 15 2 12 28 12 65 0 65
-5 0 -12 -11 -16 -25z"/>
<path d="M16561 6444 c0 -11 3 -14 6 -6 3 7 2 16 -1 19 -3 4 -6 -2 -5 -13z"/>
<path d="M17680 6011 c-11 -22 0 -34 24 -25 20 8 21 44 1 44 -8 0 -19 -9 -25
-19z"/>
<path d="M17950 5455 c0 -18 4 -23 15 -19 8 4 15 15 15 25 0 10 -7 19 -15 19
-9 0 -15 -9 -15 -25z"/>
<path d="M17831 8795 c-1 -11 -23 -38 -51 -60 -27 -22 -49 -43 -50 -47 -1 -16
32 -7 68 17 20 14 42 25 49 25 7 0 21 -19 32 -43 21 -45 47 -57 57 -25 6 20
-33 77 -54 77 -8 1 -16 10 -19 21 -3 11 -9 20 -13 20 -5 0 -11 8 -13 18 -4 14
-5 14 -6 -3z"/>
<path d="M17638 8663 c7 -3 16 -2 19 1 4 3 -2 6 -13 5 -11 0 -14 -3 -6 -6z"/>
<path d="M18060 8580 c0 -11 4 -20 9 -20 5 0 7 9 4 20 -3 11 -7 20 -9 20 -2 0
-4 -9 -4 -20z"/>
<path d="M18080 8536 c0 -7 -11 -25 -25 -40 -20 -22 -22 -28 -10 -32 26 -10
17 -32 -20 -50 -34 -16 -48 -44 -22 -44 16 0 37 -41 37 -70 0 -11 -4 -20 -10
-20 -5 0 -10 9 -10 20 0 11 -4 20 -8 20 -5 0 -5 -21 0 -47 4 -27 13 -82 19
-123 14 -93 29 -114 29 -39 0 30 5 60 11 66 15 15 3 47 -12 37 -9 -5 -10 4 -6
32 4 21 7 47 7 57 0 10 5 15 11 12 6 -4 9 -24 8 -44 -2 -20 1 -43 7 -51 6 -11
11 5 15 52 5 66 17 96 26 71 3 -7 10 -13 16 -13 8 0 7 4 -1 12 -7 7 -12 19
-12 28 0 37 -22 90 -37 90 -13 0 -14 8 -9 45 4 25 5 45 2 45 -3 0 -6 -6 -6
-14z m25 -129 c15 -16 3 -43 -14 -33 -11 7 -16 46 -5 46 3 0 11 -6 19 -13z
m-38 -51 c-4 -9 -11 -16 -17 -16 -11 0 -14 33 -3 44 11 10 26 -11 20 -28z"/>
<path d="M18101 8494 c0 -11 3 -14 6 -6 3 7 2 16 -1 19 -3 4 -6 -2 -5 -13z"/>
<path d="M18116 8276 c-8 -50 0 -106 14 -106 17 0 22 84 7 119 l-14 34 -7 -47z"/>
<path d="M16973 8243 c-14 -5 -18 -69 -5 -76 4 -3 19 -3 35 0 20 4 27 11 27
29 0 14 -6 24 -15 24 -7 0 -18 6 -22 14 -4 7 -14 11 -20 9z"/>
<path d="M17907 8176 c-4 -10 -5 -21 -2 -24 9 -9 17 6 13 25 -3 17 -4 17 -11
-1z"/>
<path d="M18080 8090 c0 -46 4 -70 11 -70 8 0 10 -19 5 -65 -5 -55 -4 -65 9
-65 11 0 15 11 15 41 0 24 4 38 10 34 12 -7 13 -112 2 -117 -5 -1 -7 -19 -4
-40 3 -31 8 -37 33 -40 23 -4 29 -1 29 14 0 10 -6 21 -14 24 -21 8 -28 34 -14
52 10 11 10 16 2 19 -8 3 -10 18 -7 41 4 27 -1 49 -17 77 -14 25 -25 64 -28
103 -3 43 -9 62 -18 62 -11 0 -14 -18 -14 -70z"/>
<path d="M18002 8067 c-8 -9 -11 -25 -7 -38 10 -29 27 -9 23 26 -3 25 -4 27
-16 12z"/>
<path d="M16976 8013 c-9 -9 -7 -86 3 -101 6 -10 10 -8 14 10 15 53 4 111 -17
91z"/>
<path d="M18052 7985 c-16 -35 -15 -65 2 -65 17 0 26 22 26 61 0 36 -13 37
-28 4z"/>
<path d="M15246 7775 c-3 -9 -6 -22 -5 -28 0 -7 5 -1 10 12 5 13 8 26 5 28 -2
2 -6 -3 -10 -12z"/>
<path d="M15264 7742 c-9 -13 -8 -20 3 -31 19 -18 24 -11 15 22 -6 24 -8 25
-18 9z"/>
<path d="M15212 7722 c-7 -13 -37 -39 -67 -57 -54 -35 -75 -55 -56 -55 5 0 12
4 15 9 3 5 20 11 37 13 36 6 69 -19 69 -51 0 -10 7 -22 16 -25 38 -15 -4 -26
-91 -25 -73 2 -95 5 -100 17 -5 13 -8 13 -23 -2 -19 -16 -62 -22 -62 -8 1 4
21 20 45 35 25 16 43 33 40 37 -7 11 -35 2 -35 -11 0 -5 -10 -9 -22 -9 -25 0
-98 -71 -98 -95 0 -9 -9 -25 -19 -36 -30 -32 -42 -95 -49 -247 l-7 -142 298 0
c210 0 297 3 297 11 0 6 -6 9 -13 6 -10 -4 -13 7 -12 46 2 31 1 37 -2 15 -8
-72 -43 -38 -43 41 0 30 2 33 25 29 29 -6 34 11 6 19 -11 3 -22 15 -25 26 -9
36 -6 44 8 19 11 -20 14 -21 25 -9 10 12 8 18 -11 32 -15 11 -19 19 -10 22 14
6 16 39 2 48 -5 3 -10 17 -10 31 0 14 4 22 10 19 6 -4 10 12 10 39 0 25 -4 46
-10 46 -5 0 -10 5 -10 11 0 5 5 7 10 4 6 -3 10 0 10 8 0 22 -32 31 -42 12 -5
-8 -19 -15 -32 -15 -19 0 -27 10 -44 55 -20 52 -21 85 -1 85 5 0 9 -11 9 -24
0 -36 28 -96 45 -96 19 0 19 19 1 56 -8 16 -19 41 -25 57 -6 15 -17 27 -25 27
-9 0 -16 12 -18 28 l-3 27 -13 -23z m-332 -327 c0 -14 -4 -25 -10 -25 -5 0
-10 -9 -10 -21 0 -11 4 -17 10 -14 7 4 10 -31 8 -107 -3 -96 -6 -113 -20 -116
-14 -3 -16 11 -16 130 0 131 8 178 28 178 5 0 10 -11 10 -25z m396 -25 c1 -8
9 -37 18 -65 19 -59 22 -195 5 -195 -7 0 -27 9 -45 21 -33 20 -34 20 -34 1 0
-24 -8 -32 -26 -25 -9 3 -14 20 -14 44 0 29 3 37 14 33 11 -4 14 6 13 53 -1
40 -6 57 -14 56 -8 -2 -13 8 -13 27 0 20 5 30 15 30 8 0 15 9 15 21 0 17 5 20
32 17 18 -2 32 -9 34 -18z m54 0 c0 -5 -2 -10 -4 -10 -3 0 -8 5 -11 10 -3 6
-1 10 4 10 6 0 11 -4 11 -10z m-143 -152 c-3 -7 -5 -2 -5 12 0 14 2 19 5 13 2
-7 2 -19 0 -25z"/>
<path d="M15290 7675 c0 -8 5 -15 10 -15 6 0 10 7 10 15 0 8 -4 15 -10 15 -5
0 -10 -7 -10 -15z"/>
<path d="M15312 7619 c2 -7 10 -15 17 -17 8 -3 12 1 9 9 -2 7 -10 15 -17 17
-8 3 -12 -1 -9 -9z"/>
<path d="M15068 7593 c-26 -7 -30 -31 -6 -39 32 -10 128 5 128 20 0 20 -74 32
-122 19z"/>
<path d="M18395 7390 c-3 -5 1 -10 10 -10 9 0 13 5 10 10 -3 6 -8 10 -10 10
-2 0 -7 -4 -10 -10z"/>
<path d="M16650 7203 c0 -29 12 -63 21 -63 5 0 9 18 9 40 0 29 -4 40 -15 40
-8 0 -15 -8 -15 -17z"/>
<path d="M16680 7018 c0 -31 3 -39 10 -28 13 20 13 57 0 65 -6 4 -10 -11 -10
-37z"/>
<path d="M16703 6900 c0 -30 2 -43 4 -27 2 15 2 39 0 55 -2 15 -4 2 -4 -28z"/>
<path d="M2908 6933 c23 -2 59 -2 80 0 20 2 1 4 -43 4 -44 0 -61 -2 -37 -4z"/>
<path d="M7508 6933 c18 -2 45 -2 60 0 15 2 0 4 -33 4 -33 0 -45 -2 -27 -4z"/>
<path d="M7608 6779 l3 -149 -68 -2 c-39 -1 -53 -3 -33 -5 19 -3 38 -10 42
-16 6 -9 8 -8 8 2 0 9 9 12 30 9 l30 -5 0 153 c0 84 -3 155 -7 157 -5 3 -7
-62 -5 -144z"/>
<path d="M2898 6913 c18 -2 45 -2 60 0 15 2 0 4 -33 4 -33 0 -45 -2 -27 -4z"/>
<path d="M7513 6913 c20 -2 37 -8 37 -13 0 -5 -17 -11 -37 -13 l-38 -4 43 -1
c36 -2 43 1 40 16 -2 12 -14 17 -43 18 l-40 1 38 -4z"/>
<path d="M12180 6896 c0 -7 -9 -16 -20 -19 -20 -5 -20 -12 -18 -129 l3 -123
120 0 120 0 3 123 c2 117 2 124 -18 129 -11 3 -20 12 -20 19 0 8 -4 14 -10 14
-5 0 -10 -7 -10 -15 0 -12 -14 -15 -65 -15 -51 0 -65 3 -65 15 0 8 -4 15 -10
15 -5 0 -10 -6 -10 -14z m190 -56 c0 -19 -7 -20 -105 -20 -98 0 -105 1 -105
20 0 19 7 20 105 20 98 0 105 -1 105 -20z m0 -120 l0 -80 -105 0 -105 0 0 80
0 80 105 0 105 0 0 -80z"/>
<path d="M12200 6750 c0 -5 5 -10 10 -10 6 0 10 5 10 10 0 6 -4 10 -10 10 -5
0 -10 -4 -10 -10z"/>
<path d="M12250 6750 c0 -5 7 -10 15 -10 8 0 15 5 15 10 0 6 -7 10 -15 10 -8
0 -15 -4 -15 -10z"/>
<path d="M12310 6750 c0 -5 5 -10 10 -10 6 0 10 5 10 10 0 6 -4 10 -10 10 -5
0 -10 -4 -10 -10z"/>
<path d="M12200 6690 c0 -5 5 -10 10 -10 6 0 10 5 10 10 0 6 -4 10 -10 10 -5
0 -10 -4 -10 -10z"/>
<path d="M12250 6690 c0 -5 7 -10 15 -10 8 0 15 5 15 10 0 6 -7 10 -15 10 -8
0 -15 -4 -15 -10z"/>
<path d="M12310 6690 c0 -5 5 -10 10 -10 6 0 10 5 10 10 0 6 -4 10 -10 10 -5
0 -10 -4 -10 -10z"/>
<path d="M18437 6890 c-3 -11 -1 -20 4 -20 5 0 9 9 9 20 0 11 -2 20 -4 20 -2
0 -6 -9 -9 -20z"/>
<path d="M3040 6770 l-5 -135 -85 -6 -85 -5 83 -2 c52 -1 82 -6 82 -13 0 -7
-11 -9 -26 -6 -16 3 -22 1 -16 -5 15 -15 46 -5 50 17 2 11 16 33 30 50 20 22
21 25 5 11 -20 -16 -23 -17 -23 -3 0 9 10 23 22 31 12 9 18 16 12 16 -5 0 -15
-5 -22 -12 -9 -9 -12 -6 -12 14 0 21 6 27 30 30 23 4 30 0 33 -16 3 -16 5 -15
6 6 1 25 -1 26 -36 22 -32 -4 -34 -3 -15 5 27 13 29 21 3 14 -18 -5 -20 1 -23
58 -3 40 -6 14 -8 -71z"/>
<path d="M2898 6883 c18 -2 45 -2 60 0 15 2 0 4 -33 4 -33 0 -45 -2 -27 -4z"/>
<path d="M3116 6881 c-4 -5 3 -7 14 -4 23 6 26 13 6 13 -8 0 -17 -4 -20 -9z"/>
<path d="M7733 6864 c-8 -20 10 -37 33 -31 15 4 14 5 -5 6 -18 1 -22 5 -18 21
6 24 -1 27 -10 4z"/>
<path d="M2897 6863 c18 -2 50 -2 70 0 21 2 7 4 -32 4 -38 0 -55 -2 -38 -4z"/>
<path d="M3150 6854 c0 -12 -6 -15 -21 -11 -16 4 -19 3 -11 -5 14 -14 42 -3
42 17 0 8 -2 15 -5 15 -3 0 -5 -7 -5 -16z"/>
<path d="M7490 6864 c35 -7 98 -9 94 -2 -3 5 -29 7 -57 7 -29 -1 -45 -3 -37
-5z"/>
<path d="M3013 6805 c0 -33 2 -45 4 -27 2 18 2 45 0 60 -2 15 -4 0 -4 -33z"/>
<path d="M18421 6844 c0 -11 3 -14 6 -6 3 7 2 16 -1 19 -3 4 -6 -2 -5 -13z"/>
<path d="M3341 6763 c1 -32 4 -46 6 -31 3 18 12 28 26 31 l22 4 -22 2 c-38 2
-30 39 10 44 31 4 31 4 -5 5 l-38 2 1 -57z"/>
<path d="M7947 6813 c19 -4 23 -12 26 -56 l3 -52 2 52 c2 45 5 52 25 56 12 2
0 4 -28 4 -27 0 -40 -2 -28 -4z"/>
<path d="M12557 6813 c19 -4 23 -12 26 -56 l3 -52 2 52 c2 45 5 52 25 56 12 2
0 4 -28 4 -27 0 -40 -2 -28 -4z"/>
<path d="M13100 6765 c0 -54 1 -55 28 -54 23 2 24 2 5 6 -20 4 -23 11 -23 48
0 37 3 44 23 48 19 4 18 4 -5 6 -27 1 -28 0 -28 -54z"/>
<path d="M7750 6788 c0 -13 -2 -32 -4 -43 -2 -11 -1 -14 1 -7 3 8 12 11 21 7
14 -5 15 -4 5 6 -7 7 -13 20 -13 28 0 11 5 10 23 -5 20 -17 20 -16 -2 9 -30
33 -31 33 -31 5z"/>
<path d="M13167 6789 c4 -13 8 -18 11 -10 2 7 -1 18 -6 23 -8 8 -9 4 -5 -13z"/>
<path d="M3431 6745 c2 -33 3 -35 6 -10 2 17 11 35 20 42 13 10 13 12 -6 10
-18 -1 -21 -7 -20 -42z"/>
<path d="M3502 6778 c-24 -24 -6 -69 28 -67 9 0 6 4 -7 9 -14 6 -23 18 -23 30
0 12 9 24 23 30 13 5 16 9 7 9 -9 1 -21 -4 -28 -11z"/>
<path d="M3613 6783 c-8 -3 -12 -20 -12 -41 l2 -37 6 35 c4 22 12 36 24 38 14
3 17 -4 18 -35 l2 -38 6 35 c9 50 38 53 44 6 l4 -36 -1 37 c-1 37 -2 38 -41
39 -22 1 -46 -1 -52 -3z"/>
<path d="M8039 6773 c-13 -16 -12 -17 3 -4 10 7 25 11 33 7 23 -8 18 -45 -7
-56 -18 -8 -19 -9 -4 -7 28 3 44 33 30 55 -15 24 -38 26 -55 5z"/>
<path d="M12643 6750 c0 -25 2 -35 4 -22 2 12 2 32 0 45 -2 12 -4 2 -4 -23z"/>
<path d="M12720 6786 c0 -2 9 -6 20 -9 11 -3 18 -1 14 4 -5 9 -34 13 -34 5z"/>
<path d="M12918 6783 c7 -3 16 -2 19 1 4 3 -2 6 -13 5 -11 0 -14 -3 -6 -6z"/>
<path d="M13230 6786 c0 -2 9 -6 20 -9 11 -3 18 -1 14 4 -5 9 -34 13 -34 5z"/>
<path d="M13318 6783 c7 -3 16 -2 19 1 4 3 -2 6 -13 5 -11 0 -14 -3 -6 -6z"/>
<path d="M13380 6775 c-19 -22 -8 -31 30 -24 l35 6 -33 2 c-21 1 -31 5 -26 12
3 6 17 9 30 6 13 -2 21 0 18 4 -8 14 -40 10 -54 -6z"/>
<path d="M3553 6750 c0 -23 3 -28 9 -16 5 9 5 23 0 32 -6 12 -9 7 -9 -16z"/>
<path d="M7702 6760 c0 -14 2 -19 5 -12 2 6 2 18 0 25 -3 6 -5 1 -5 -13z"/>
<path d="M12890 6760 c0 -30 17 -50 40 -49 9 0 6 4 -7 9 -33 13 -28 30 10 31
l32 2 -30 4 c-16 3 -33 10 -37 16 -5 7 -8 1 -8 -13z"/>
<path d="M7644 6749 c-11 -18 14 -35 29 -20 10 10 8 11 -7 5 -16 -6 -18 -4
-13 9 7 19 2 23 -9 6z"/>
<path d="M12704 6745 c-8 -19 4 -35 24 -34 15 1 15 2 0 6 -28 7 -22 33 8 33
19 0 25 -4 21 -15 -4 -8 -2 -17 3 -20 6 -4 10 5 10 19 0 22 -4 26 -30 26 -18
0 -33 -6 -36 -15z"/>
<path d="M13167 6741 c-4 -17 -3 -21 5 -13 5 5 8 16 6 23 -3 8 -7 3 -11 -10z"/>
<path d="M13214 6745 c-8 -19 4 -35 24 -34 15 1 15 2 0 6 -28 7 -22 33 8 33
19 0 25 -4 21 -15 -4 -8 -2 -17 3 -20 6 -4 10 5 10 19 0 22 -4 26 -30 26 -18
0 -33 -6 -36 -15z"/>
<path d="M18350 6736 c0 -8 5 -18 10 -21 6 -3 10 3 10 14 0 12 -4 21 -10 21
-5 0 -10 -6 -10 -14z"/>
<path d="M7691 6700 c0 -23 2 -30 8 -21 6 9 10 10 16 2 4 -7 -1 -24 -10 -39
l-17 -27 25 25 c24 24 24 26 7 45 -10 11 -20 27 -23 35 -3 8 -6 -1 -6 -20z"/>
<path d="M12820 6719 c0 -5 5 -7 10 -4 6 3 10 8 10 11 0 2 -4 4 -10 4 -5 0
-10 -5 -10 -11z"/>
<path d="M13387 6718 c2 -5 13 -8 23 -8 10 0 21 3 23 8 3 4 -8 7 -23 7 -15 0
-26 -3 -23 -7z"/>
<path d="M3156 6685 c8 -37 14 -45 14 -19 0 10 -5 26 -10 34 -8 11 -9 7 -4
-15z"/>
<path d="M3008 6678 c4 -18 2 -20 -18 -15 -16 4 -20 3 -12 -5 6 -6 18 -8 26
-5 17 7 21 32 7 41 -5 4 -7 -4 -3 -16z"/>
<path d="M3127 6670 c3 -11 7 -20 9 -20 2 0 4 9 4 20 0 11 -4 20 -9 20 -5 0
-7 -9 -4 -20z"/>
<path d="M7756 6677 c3 -10 9 -15 12 -12 3 3 0 11 -7 18 -10 9 -11 8 -5 -6z"/>
<path d="M18324 6673 c-3 -10 -4 -22 -4 -27 1 -5 -3 -12 -8 -15 -14 -9 -26
-71 -13 -71 6 0 11 11 11 25 0 13 9 39 20 57 23 38 25 48 9 48 -6 0 -13 -8
-15 -17z"/>
<path d="M7547 6658 c2 -5 10 -8 18 -8 8 0 16 3 18 8 3 4 -5 7 -18 7 -13 0
-21 -3 -18 -7z"/>
<path d="M7664 6634 c-14 -20 -15 -27 -4 -37 10 -9 11 -9 6 1 -4 7 0 24 8 37
9 14 14 25 11 25 -2 0 -12 -11 -21 -26z"/>
<path d="M7741 6634 c0 -11 3 -14 6 -6 3 7 2 16 -1 19 -3 4 -6 -2 -5 -13z"/>
<path d="M7771 6627 c-1 -19 -5 -26 -13 -21 -7 5 -8 3 -3 -5 11 -19 27 3 22
30 -4 22 -4 21 -6 -4z"/>
<path d="M3172 6604 c-7 -8 -8 -14 -3 -14 10 0 25 19 20 25 -2 1 -10 -3 -17
-11z"/>
<path d="M7578 6593 c7 -3 16 -2 19 1 4 3 -2 6 -13 5 -11 0 -14 -3 -6 -6z"/>
<path d="M16526 6583 c-6 -14 -5 -15 5 -6 7 7 10 15 7 18 -3 3 -9 -2 -12 -12z"/>
<path d="M15820 6171 c0 -5 -9 -11 -20 -14 -19 -5 -21 -12 -18 -109 l3 -103
105 0 105 0 3 103 c2 91 1 103 -15 109 -10 4 -22 11 -26 17 -6 8 -10 7 -14 -1
-6 -16 -103 -18 -103 -3 0 6 -4 10 -10 10 -5 0 -10 -4 -10 -9z m160 -141 l0
-70 -90 0 -90 0 0 70 0 70 90 0 90 0 0 -70z"/>
<path d="M15890 6020 c0 -27 3 -30 30 -30 27 0 30 3 30 30 0 27 -3 30 -30 30
-27 0 -30 -3 -30 -30z"/>
<path d="M2524 6144 c-77 -52 -101 -85 -130 -179 -8 -25 -15 -30 -47 -33 -30
-3 -38 -8 -43 -28 -9 -36 2 -54 35 -54 36 0 39 -12 37 -150 l-2 -105 -36 -3
c-34 -3 -38 -6 -44 -39 -4 -20 -5 -93 -2 -162 6 -140 0 -241 -13 -241 -5 0 -9
9 -9 20 0 11 -7 20 -16 20 -8 0 -13 4 -10 8 3 5 -4 18 -14 30 -11 12 -20 26
-20 32 0 5 -7 10 -15 10 -9 0 -19 8 -22 18 -16 42 -43 36 -43 -9 0 -23 -4 -30
-17 -27 -9 2 -20 14 -23 27 -3 14 -10 26 -15 28 -13 4 -35 -67 -35 -112 0 -19
-4 -35 -10 -35 -6 0 -10 -32 -10 -75 0 -41 4 -75 9 -75 4 0 8 31 7 70 0 72 7
91 25 73 8 -8 9 -58 4 -162 l-8 -151 -83 0 -84 0 2 158 c1 131 3 144 8 82 l7
-75 0 98 c-1 54 3 101 9 105 11 8 34 58 34 73 0 25 -25 -1 -30 -30 -8 -49 -25
-32 -22 22 2 44 1 48 -17 42 -15 -4 -23 2 -35 26 -9 18 -16 40 -16 51 0 10 -5
28 -12 41 -6 12 -14 29 -18 37 -4 8 -20 16 -36 16 -16 1 -37 5 -46 9 -24 10
-38 -2 -38 -34 0 -29 -16 -51 -36 -51 -9 0 -11 11 -7 35 4 27 2 35 -10 35 -8
0 -18 -12 -22 -27 -3 -15 -11 -31 -17 -34 -17 -11 -48 13 -48 36 0 17 -2 17
-10 5 -5 -8 -24 -15 -42 -15 -29 0 -33 -4 -36 -29 l-4 -29 35 22 c51 31 57 28
57 -34 0 -42 3 -55 15 -55 9 0 15 9 15 22 0 21 1 21 14 3 13 -18 14 -17 21 13
9 44 25 40 25 -5 0 -21 3 -56 7 -78 5 -31 8 -35 14 -20 4 11 8 38 8 60 2 62
24 115 60 137 19 13 31 16 31 8 0 -6 9 -23 20 -37 13 -17 20 -41 20 -69 0 -37
-3 -44 -20 -44 -18 0 -20 -7 -20 -80 l0 -80 -97 1 c-54 1 -91 3 -82 6 11 3 18
20 23 56 9 82 8 107 -8 107 -10 0 -19 -20 -27 -60 -6 -33 -15 -57 -19 -55 -5
3 -11 -8 -15 -25 -6 -28 -25 -43 -25 -20 0 6 -5 10 -11 10 -5 0 -7 -4 -4 -10
3 -5 -1 -10 -9 -10 -9 0 -15 3 -15 8 3 18 -2 32 -11 32 -5 0 -10 -9 -10 -20 0
-11 -4 -20 -10 -20 -6 0 -10 35 -10 85 0 50 4 85 10 85 6 0 10 9 10 20 0 11
-4 20 -10 20 -15 0 -12 78 4 87 7 4 15 20 18 36 5 25 3 27 -31 26 -32 0 -33
-1 -13 -9 37 -15 25 -30 -25 -30 -35 0 -44 3 -33 10 13 8 12 10 -2 10 -10 0
-18 -4 -18 -10 0 -5 -13 -10 -29 -10 -21 0 -30 -6 -34 -21 -5 -17 -9 -19 -26
-10 -11 6 -39 10 -63 10 l-43 -1 38 -8 c42 -8 52 -14 43 -29 -10 -16 -138 -2
-153 17 -10 12 -38 16 -120 19 -62 1 -109 7 -111 13 -2 5 -17 10 -33 10 -16 0
-29 5 -29 10 0 6 -9 10 -20 10 -11 0 -20 -4 -20 -10 0 -5 -9 -10 -20 -10 -11
0 -20 7 -20 15 0 8 -5 15 -12 15 -9 0 -9 3 0 12 8 8 4 15 -18 27 -29 16 -71
48 -119 88 -14 13 -31 23 -38 23 -6 0 -14 6 -16 13 -3 6 -6 2 -6 -10 -1 -26
-31 -32 -31 -7 0 10 -7 14 -17 12 -10 -2 -17 -10 -15 -16 1 -7 -4 -12 -12 -12
-8 0 -16 10 -18 21 -3 19 -9 16 -56 -30 -52 -50 -59 -71 -24 -71 10 0 13 -3 7
-8 -17 -12 -38 -59 -32 -74 3 -9 8 -5 14 10 8 22 10 22 23 7 12 -15 12 -19 -3
-30 -21 -15 -22 -51 -1 -59 19 -7 11 -39 -17 -67 -19 -19 -19 -19 -28 3 -5 13
-12 31 -15 40 -8 26 -65 5 -66 -24 0 -5 11 -8 25 -8 16 0 25 -6 25 -15 0 -10
-10 -15 -30 -15 -23 0 -43 -13 -85 -55 -30 -30 -48 -55 -40 -55 8 0 15 5 15
10 0 6 7 10 15 10 9 0 18 6 21 14 9 24 34 28 34 6 0 -11 -6 -20 -13 -20 -17 0
-49 -34 -41 -43 4 -4 18 -4 32 0 18 4 23 2 20 -8 -3 -8 -14 -13 -24 -12 -18 2
-19 -8 -19 -185 0 -222 -14 -442 -28 -442 -6 0 -7 35 -2 98 8 113 8 108 3 356
l-3 190 -27 7 -26 7 -3 -172 c-1 -94 -1 -184 0 -201 4 -38 3 -52 -5 -97 -5
-30 -3 -38 9 -38 12 0 16 16 19 78 2 42 0 82 -5 88 -4 7 -6 79 -5 160 3 125 5
149 18 149 13 0 15 -85 11 -717 -3 -533 -1 -718 8 -718 6 0 11 5 11 11 0 8 4
9 13 0 8 -6 17 -8 20 -4 4 3 7 182 8 397 1 215 4 432 8 481 l6 90 8 -130 c4
-71 7 -289 7 -482 l0 -353 70 0 70 0 0 36 c0 24 4 34 13 32 7 -3 12 -23 12
-51 l1 -47 -108 0 c-107 0 -142 -12 -70 -24 20 -3 79 -6 131 -6 l94 0 -19 21
c-11 12 -14 23 -8 27 13 10 10 82 -5 91 -6 4 -12 24 -13 45 -1 21 -7 40 -15
43 -8 3 -13 23 -13 57 1 49 1 50 15 26 8 -14 14 -37 15 -52 0 -16 4 -28 9 -28
6 0 12 -17 14 -37 2 -21 4 2 5 51 2 78 0 87 -13 76 -19 -15 -19 -12 -5 114 9
78 8 97 -5 122 -8 16 -15 36 -15 44 0 13 -1 13 -10 0 -7 -10 -9 109 -8 360 2
242 7 375 13 374 6 0 12 -13 15 -30 l6 -29 7 33 c3 17 11 32 17 32 13 0 13
-47 0 -55 -12 -8 -13 -105 -1 -105 4 0 12 36 15 80 4 44 11 80 15 80 5 0 13
19 19 43 10 41 11 41 8 -23 -4 -69 -20 -153 -36 -182 -6 -10 -7 -48 -4 -88 5
-50 4 -70 -5 -70 -7 0 -11 -27 -11 -80 0 -53 -4 -80 -11 -80 -8 0 -9 13 -5 41
8 51 -4 270 -15 264 -4 -3 -8 -63 -8 -135 -1 -71 -4 -136 -7 -144 -3 -9 1 -23
10 -31 9 -9 16 -27 16 -39 0 -12 3 -26 7 -30 4 -4 8 -102 10 -218 2 -116 7
-216 12 -222 5 -6 12 -54 15 -106 16 -246 14 -238 48 -245 17 -4 60 -4 97 0
52 6 61 9 44 16 -31 11 -29 14 9 17 41 3 44 7 24 27 -9 9 -16 12 -16 7 0 -13
-31 -25 -41 -15 -9 9 20 136 32 141 3 2 4 41 1 88 -3 51 -1 94 6 107 6 12 13
48 16 80 2 32 9 64 14 70 6 7 13 28 17 48 5 25 15 41 37 54 l31 18 -26 19
c-15 11 -27 27 -27 35 0 10 -6 13 -16 9 -9 -3 -18 -6 -20 -6 -3 0 -2 -4 1 -10
4 -6 -8 -10 -30 -10 -22 0 -34 4 -30 10 3 6 11 10 16 10 5 0 23 10 39 21 27
20 30 21 45 5 22 -21 37 -20 58 4 10 12 22 18 27 15 6 -3 10 3 10 14 0 11 -7
24 -15 28 -16 9 -10 20 43 80 12 14 34 46 50 69 28 46 46 55 56 29 3 -8 12
-12 21 -9 17 7 21 79 5 89 -5 3 -10 0 -10 -8 0 -8 -7 -18 -16 -21 -14 -5 -15
-1 -10 21 4 16 9 48 13 73 3 25 10 51 15 57 6 7 7 24 4 39 -6 22 -4 25 16 22
28 -4 40 -58 14 -58 -13 0 -16 -12 -16 -55 0 -44 3 -53 15 -49 12 5 15 -4 15
-45 0 -37 -4 -53 -15 -57 -19 -8 -19 -21 1 -42 12 -11 15 -27 11 -55 -3 -22 0
-52 8 -70 l14 -32 2 40 c1 22 1 43 0 48 0 4 23 7 53 7 l55 0 6 -55 c4 -31 3
-61 -2 -68 -5 -6 -15 -31 -21 -53 -20 -68 -62 -69 -89 -3 -8 22 -20 39 -25 39
-6 0 -7 -7 -3 -17 5 -10 10 -33 13 -52 3 -25 1 -32 -9 -29 -10 3 -15 35 -20
124 -5 104 -8 124 -30 156 -28 43 -37 46 -48 16 -6 -16 -4 -28 5 -39 18 -20
18 -39 -1 -39 -8 0 -15 6 -15 14 0 29 -20 27 -38 -3 -9 -17 -23 -31 -29 -31
-7 0 -13 -7 -13 -15 0 -8 7 -15 15 -15 22 0 19 -42 -5 -63 -11 -9 -29 -17 -41
-17 -11 0 -18 -4 -14 -9 3 -5 1 -12 -5 -16 -6 -4 -8 -11 -5 -16 11 -17 35 -9
47 16 22 48 33 28 34 -63 1 -48 -1 -75 -3 -60 -4 25 -28 45 -37 30 -2 -4 -7
-31 -11 -59 -6 -43 -4 -53 8 -53 8 0 17 7 21 15 3 8 12 15 20 15 15 0 29 -27
20 -41 -3 -5 -5 -33 -5 -61 0 -29 -2 -86 -5 -126 l-6 -73 -87 3 -86 3 3 -60
c1 -33 5 -70 7 -82 l5 -23 383 0 c272 0 386 3 394 11 16 16 43 3 43 -21 0 -11
5 -20 10 -20 6 0 10 -6 10 -14 0 -7 15 -17 33 -21 39 -10 573 -18 606 -10 20
5 22 10 17 35 -4 22 -2 30 9 30 9 0 15 -10 15 -24 0 -19 4 -23 19 -19 10 3 32
-2 49 -11 25 -13 64 -16 194 -16 145 0 166 3 188 20 23 17 24 22 13 49 -14 37
2 43 30 11 20 -24 22 -46 5 -53 -7 -3 103 -6 244 -6 172 -1 265 -5 283 -13 28
-13 81 4 70 22 -3 6 5 10 19 10 16 0 26 6 26 15 0 8 9 20 20 27 11 7 20 21 20
30 0 10 5 18 10 18 6 0 10 -9 10 -20 0 -11 5 -20 11 -20 7 0 10 -14 7 -35 -2
-20 0 -35 7 -36 5 0 197 0 425 1 415 1 510 5 510 21 0 5 -186 9 -415 9 -362 0
-415 2 -415 15 0 8 6 15 14 15 8 0 18 9 21 20 3 11 11 20 16 20 5 0 14 -9 21
-20 12 -19 24 -20 280 -20 l268 0 0 23 c0 21 4 23 36 19 25 -3 38 -10 41 -23
7 -26 56 -27 51 -1 -2 9 -13 18 -26 20 -29 4 -31 51 -2 59 23 6 24 9 9 51 -6
17 -18 34 -27 37 -10 2 -22 15 -27 27 -10 22 -14 23 -184 26 -132 2 -176 -1
-182 -10 -6 -10 -11 -10 -19 -2 -7 7 -8 14 -3 17 6 4 211 9 456 13 l447 7 2
-169 3 -169 30 0 30 0 3 168 2 167 239 0 c132 0 246 3 255 6 21 8 21 50 0 58
-9 3 -38 6 -65 6 l-49 0 0 68 0 68 125 -4 c162 -5 175 -2 175 43 0 31 3 35 25
35 l25 0 0 -275 0 -275 -48 0 c-35 0 -54 -5 -65 -18 -42 -46 -22 -52 163 -52
187 0 205 6 158 50 -15 14 -35 20 -65 20 l-43 0 0 234 0 235 28 3 27 3 0 700
0 700 -30 0 -30 0 -3 68 -3 67 -39 0 -40 0 0 -105 c0 -89 -3 -107 -16 -112 -9
-3 -24 -2 -33 4 -15 10 -17 15 -20 56 -1 16 -41 17 -701 17 l-700 0 -6 25 c-3
14 -3 45 0 70 l7 45 -45 0 -46 0 0 -70 0 -70 -704 0 -705 0 -3 -37 c-3 -33 -7
-38 -29 -41 l-26 -3 -5 158 c-3 87 -3 164 -1 171 4 8 36 12 114 12 60 0 109 3
109 7 0 3 -12 22 -27 41 -44 58 -72 140 -73 210 0 34 -4 62 -9 62 -4 0 -26
-12 -47 -26z m-1993 -533 c14 -7 30 -21 37 -32 11 -16 9 -19 -8 -19 -31 0 -24
-14 21 -43 32 -21 45 -25 55 -16 11 9 14 7 14 -10 0 -17 -6 -21 -31 -21 -18 0
-37 7 -44 17 -13 17 -51 11 -40 -7 4 -6 -5 -10 -19 -10 -31 0 -35 20 -6 27 11
3 20 9 20 14 0 14 -38 11 -43 -3 -9 -28 -18 3 -15 53 3 52 4 53 15 27 7 -16
19 -28 28 -28 22 0 18 31 -5 37 -11 3 -20 12 -20 20 0 8 3 13 8 11 4 -2 18 -9
33 -17z m84 -61 c3 -5 -1 -10 -9 -10 -9 0 -16 5 -16 10 0 6 4 10 9 10 6 0 13
-4 16 -10z m1897 -357 c-3 -293 -17 -601 -21 -443 -1 41 -8 97 -16 124 -12 38
-15 109 -15 321 0 149 3 275 7 278 3 4 16 7 27 7 21 0 21 -2 18 -287z m2978
-161 c0 -247 -3 -510 -7 -585 -6 -132 -7 -137 -28 -137 -21 0 -22 4 -29 153
-8 185 -7 1003 1 1011 4 3 19 6 35 6 l28 0 0 -448z m-4670 414 c0 -9 19 -15
61 -19 85 -7 94 -23 19 -30 -47 -5 -66 -12 -80 -29 -15 -19 -21 -21 -31 -10
-10 9 -11 19 -2 42 8 20 8 30 0 33 -14 4 1 27 19 27 8 0 14 -6 14 -14z m203
-32 c9 -3 12 -14 10 -28 -6 -31 13 -42 36 -22 19 17 87 21 110 7 18 -12 5 -17
-61 -25 -35 -5 -58 -13 -62 -22 -7 -18 -66 -19 -66 -1 0 7 -16 19 -37 26 l-36
13 32 14 c17 7 31 17 30 21 -4 23 12 30 44 17z m247 -64 c0 -5 -9 -10 -20 -10
-11 0 -20 5 -20 10 0 6 9 10 20 10 11 0 20 -4 20 -10z m-330 -25 c0 -11 -12
-15 -44 -15 -43 0 -63 10 -49 24 3 3 26 6 50 6 32 0 43 -4 43 -15z m284 6 c15
-23 -70 -28 -100 -6 -17 13 -14 14 38 15 31 0 59 -4 62 -9z m-696 -31 c10 0
12 -10 7 -40 -6 -38 -6 -40 19 -40 23 0 26 4 26 35 0 25 4 33 14 29 25 -10 25
-43 -1 -80 -14 -22 -21 -43 -17 -53 3 -9 10 -65 13 -125 5 -70 12 -111 19
-114 7 -2 13 -28 13 -65 1 -34 4 -52 6 -39 5 23 18 29 28 12 3 -5 16 -10 27
-10 18 0 20 -4 14 -37 -3 -21 -6 -48 -6 -59 0 -13 -8 -24 -20 -27 -11 -3 -20
-10 -20 -16 0 -17 30 -13 36 4 4 8 12 15 19 15 29 0 24 -20 -15 -61 -22 -24
-40 -47 -40 -51 0 -4 -4 -8 -10 -8 -5 0 -10 9 -10 20 0 11 5 20 10 20 6 0 10
9 10 20 0 17 -5 19 -31 13 l-31 -6 8 44 c15 82 3 175 -21 165 -12 -4 -15 6
-15 50 0 61 -20 72 -31 18 -4 -18 -7 0 -8 48 0 42 3 79 8 82 8 5 20 67 24 125
3 32 -26 50 -53 33 -26 -16 -30 -15 -30 3 0 8 6 15 14 15 26 0 30 23 8 41 -30
24 -30 53 1 45 12 -3 28 -6 35 -6z m1682 -94 c0 -15 -5 -17 -27 -11 -33 8 -58
29 -49 43 10 16 76 -10 76 -32z m-105 9 c33 -34 33 -65 0 -65 -27 0 -45 25
-45 64 0 33 12 33 45 1z m-1465 -40 c0 -8 -4 -15 -10 -15 -5 0 -10 7 -10 15 0
8 5 15 10 15 6 0 10 -7 10 -15z m-310 -46 c0 -24 -4 -38 -10 -34 -5 3 -10 22
-10 41 0 19 5 34 10 34 6 0 10 -18 10 -41z m62 29 c7 -19 -8 -116 -14 -98 -4
8 -9 36 -12 63 -4 36 -2 47 8 47 8 0 16 -6 18 -12z m78 -5 c-1 -19 -22 -53
-34 -53 -3 0 -6 16 -6 35 0 28 4 35 20 35 13 0 20 -7 20 -17z m1791 -933 c5 0
7 -5 4 -10 -3 -6 1 -13 9 -16 25 -10 19 -39 -11 -55 -16 -8 -31 -18 -34 -23
-4 -4 -9 -4 -13 2 -3 6 1 17 9 25 18 18 20 57 3 57 -9 0 -9 3 0 12 9 9 13 133
14 483 l3 470 2 -472 c2 -322 7 -473 14 -473z m-1621 795 c0 -30 -4 -55 -10
-55 -5 0 -10 25 -10 55 0 30 5 55 10 55 6 0 10 -25 10 -55z m195 -14 c7 -12
-12 -24 -25 -16 -11 7 -4 25 10 25 5 0 11 -4 15 -9z m93 -13 c-5 -34 -38 -37
-38 -4 0 20 5 26 21 26 15 0 20 -5 17 -22z m707 13 c3 -5 2 -12 -3 -15 -13 -8
-53 5 -46 15 7 12 41 12 49 0z m55 -21 c0 -30 21 -42 35 -20 3 6 10 10 16 10
13 0 11 -28 -2 -32 -15 -5 -16 -81 -1 -86 7 -2 12 -19 12 -39 0 -45 -24 -40
-28 6 -3 24 -8 31 -20 29 -23 -5 -17 -37 19 -112 31 -64 32 -103 2 -128 -14
-11 -15 -8 -11 27 3 22 -1 50 -9 65 -7 14 -13 33 -13 43 0 10 -4 27 -10 37 -5
10 -11 33 -14 51 -2 19 -9 46 -14 60 -12 30 -7 40 14 32 16 -6 20 22 4 32 -16
10 -12 55 5 55 10 0 15 -10 15 -30z m-880 -25 c0 -8 -4 -15 -9 -15 -13 0 -22
16 -14 24 11 11 23 6 23 -9z m90 -25 c0 -15 -7 -20 -30 -20 -26 0 -31 -5 -40
-41 -6 -22 -17 -42 -25 -45 -7 -3 -16 -16 -19 -28 -6 -23 -38 -66 -50 -66 -4
0 -6 15 -4 33 2 22 10 35 26 42 12 5 22 18 22 27 0 10 7 18 15 18 10 0 15 10
15 27 0 18 10 35 28 50 34 28 62 30 62 3z m-360 -115 c0 -8 -4 -15 -10 -15 -5
0 -10 9 -10 20 0 11 -4 20 -10 20 -5 0 -10 8 -10 17 0 14 3 14 20 -5 11 -12
20 -28 20 -37z m220 20 c0 -16 -45 -21 -54 -6 -8 12 4 21 31 21 14 0 23 -6 23
-15z m-190 -101 c0 -40 -3 -55 -12 -51 -7 2 -13 9 -12 15 1 7 2 30 3 52 2 62
21 47 21 -16z m-405 11 c0 -28 -29 -25 -33 3 -3 19 0 23 15 20 10 -2 18 -12
18 -23z m1428 -57 c-3 -16 -1 -34 4 -40 17 -21 24 -65 15 -89 -6 -15 -4 -32 6
-52 13 -26 12 -32 -4 -63 -10 -19 -22 -34 -26 -34 -3 0 -9 -8 -11 -17 -3 -10
-5 1 -6 24 -1 34 2 41 14 37 24 -10 32 27 9 43 -16 11 -20 29 -23 99 -4 97 6
172 19 139 4 -11 5 -32 3 -47z m1937 22 c28 -28 33 -60 24 -143 -4 -39 -8
-170 -8 -290 l-1 -217 -327 0 -327 0 6 184 c4 129 2 207 -7 260 -15 91 -7 175
21 205 19 20 27 21 309 21 275 0 291 -1 310 -20z m747 -8 c25 -27 25 -28 19
-152 -3 -69 -6 -207 -6 -307 l0 -183 -325 0 -325 0 0 183 c0 100 -3 238 -6
307 -6 118 -5 126 15 152 l22 28 290 0 290 0 26 -28z m743 1 c21 -26 22 -35
16 -138 -3 -60 -6 -199 -6 -307 l0 -198 -325 0 -325 0 0 173 c0 96 -3 234 -6
308 -6 128 -5 135 15 162 l22 27 294 0 294 0 21 -27z m-3171 -25 c10 -27 6
-38 -15 -38 -9 0 -14 11 -14 30 0 35 17 40 29 8z m-56 -46 c9 -32 17 -68 17
-80 0 -39 28 -26 32 15 2 20 8 38 14 40 11 4 10 -14 -2 -73 -10 -51 -59 -28
-82 37 -13 39 -16 119 -4 119 4 0 15 -26 25 -58z m147 43 c0 -19 16 -20 23 -1
8 21 66 17 89 -6 24 -24 27 -138 3 -138 -11 0 -15 12 -15 45 0 33 -6 50 -22
65 -19 18 -24 18 -36 6 -9 -9 -12 -22 -8 -33 7 -17 8 -17 20 0 21 27 26 21 26
-32 0 -30 5 -51 13 -55 8 -3 7 -8 -6 -16 -9 -6 -15 -15 -12 -21 10 -14 -11
-11 -24 5 -9 10 -9 15 -1 18 9 3 9 13 2 38 -9 30 -10 31 -11 10 -1 -14 -5 -32
-11 -40 -8 -12 -10 -12 -16 3 -3 9 -4 27 -1 38 3 12 1 32 -6 46 -9 21 -16 24
-45 19 -29 -4 -33 -3 -27 12 4 9 10 25 12 35 7 21 53 24 53 2z m-1422 -123 c3
-17 -2 -22 -17 -22 -16 0 -21 6 -21 26 0 33 33 30 38 -4z m52 -22 c0 -5 -4
-10 -10 -10 -5 0 -10 5 -10 10 0 6 5 10 10 10 6 0 10 -4 10 -10z m657 -6 c5
-15 -28 -27 -40 -15 -5 5 -6 14 -2 21 8 13 37 9 42 -6z m100 -1 c3 -9 -54 -43
-73 -43 -7 0 -4 47 3 54 11 11 66 2 70 -11z m-156 -57 c14 -16 10 -46 -6 -46
-9 0 -15 -9 -15 -21 0 -12 -8 -23 -20 -26 -15 -4 -20 -14 -20 -39 0 -19 -4
-34 -10 -34 -18 0 -11 67 10 93 13 17 20 40 20 70 0 47 22 72 28 33 2 -12 8
-25 13 -30z m589 44 c0 -5 -4 -10 -10 -10 -5 0 -10 5 -10 10 0 6 5 10 10 10 6
0 10 -4 10 -10z m-1234 -15 c-25 -19 -46 -19 -46 0 0 10 10 15 33 15 30 -1 31
-1 13 -15z m1542 -33 c2 -12 -1 -22 -7 -22 -13 0 -32 35 -24 44 12 12 28 0 31
-22z m-1350 -14 c-3 -7 -13 -15 -24 -17 -16 -3 -17 -1 -5 13 16 19 34 21 29 4z
m636 -4 c9 -8 16 -26 16 -40 0 -20 5 -24 30 -24 29 0 30 -1 30 -50 0 -27 -3
-50 -6 -50 -6 0 -34 30 -64 67 -6 7 -10 17 -10 23 0 6 -9 20 -20 32 -38 41
-14 81 24 42z m-147 -56 c16 -33 24 -88 13 -88 -14 0 -40 55 -40 85 0 31 13
32 27 3z m927 -25 c-3 -10 -1 -36 4 -58 l9 -40 8 49 8 49 13 -31 c10 -25 10
-39 -2 -78 -10 -35 -14 -108 -14 -281 0 -199 -2 -233 -15 -233 -12 0 -15 35
-18 228 l-3 227 -1 -235 c-1 -187 -4 -235 -15 -235 -10 0 -14 50 -16 243 -2
211 0 242 13 242 17 0 20 23 5 51 -17 31 -19 88 -3 82 7 -3 13 2 13 10 0 8 -6
18 -12 20 -7 3 -3 6 9 6 15 1 20 -4 17 -16z m-544 -30 c0 -21 -5 -45 -10 -53
-7 -11 -10 0 -10 38 0 28 5 52 10 52 6 0 10 -17 10 -37z m617 15 c-3 -8 -6 -5
-6 6 -1 11 2 17 5 13 3 -3 4 -12 1 -19z m293 4 c0 -13 -12 -22 -22 -16 -10 6
-1 24 13 24 5 0 9 -4 9 -8z m-1310 -67 c0 -8 5 -25 11 -39 13 -28 33 -25 62 8
l19 21 -7 -25 c-3 -14 -8 -39 -12 -57 -7 -41 -22 -46 -54 -19 -26 21 -55 98
-44 116 9 15 25 12 25 -5z m-140 -18 c23 15 36 0 17 -19 -7 -7 -16 -21 -20
-30 -9 -26 -22 -22 -45 14 -24 37 -20 53 8 35 16 -9 24 -9 40 0z m94 -59 c6
-4 14 -4 18 -2 4 3 8 0 8 -5 0 -6 -5 -11 -12 -11 -7 0 -5 -5 4 -12 17 -14 42
-113 32 -129 -3 -5 -1 -9 4 -9 10 0 32 44 32 65 0 8 7 15 15 15 8 0 15 -5 15
-11 0 -7 7 -17 17 -24 10 -8 14 -19 10 -30 -6 -13 -10 -15 -21 -6 -10 9 -16 9
-21 1 -9 -14 4 -72 15 -65 11 7 20 -34 13 -66 -5 -27 -8 -29 -52 -27 l-46 1
45 7 c25 4 40 8 34 8 -6 1 -16 14 -23 29 -12 26 -14 26 -25 10 -17 -22 -72
-23 -80 -1 -3 8 -10 12 -16 9 -6 -4 -10 26 -10 84 0 50 4 91 9 91 16 0 22 33
7 42 -21 12 -32 68 -15 79 10 6 17 2 24 -14 5 -12 14 -25 19 -29z m-174 21 c0
-15 -5 -19 -15 -15 -10 4 -15 -1 -15 -15 0 -11 5 -17 10 -14 7 4 10 -47 9
-147 0 -95 -4 -145 -9 -133 -7 17 -9 17 -9 3 -1 -15 -11 -18 -68 -18 -38 0
-63 4 -56 8 6 4 13 44 15 96 3 56 9 91 16 94 7 2 12 18 12 37 0 18 3 47 6 64
6 27 10 31 41 31 21 0 36 6 39 15 9 22 24 18 24 -6z m620 11 c0 -5 -4 -10 -10
-10 -5 0 -10 5 -10 10 0 6 5 10 10 10 6 0 10 -4 10 -10z m903 -23 c-4 -24 0
-37 15 -50 13 -12 22 -15 27 -8 4 7 52 11 126 11 l119 0 0 -55 0 -55 -50 0
c-27 0 -50 -4 -50 -10 0 -6 -30 -10 -71 -10 l-70 0 3 -152 3 -153 -32 -2 -33
-2 2 157 2 157 3 -152 c5 -205 23 -203 23 2 0 131 -2 155 -15 155 -9 0 -15 9
-15 24 0 28 16 43 23 24 4 -10 6 -10 6 0 1 7 -6 15 -14 18 -11 5 -15 22 -15
70 0 35 4 64 9 64 6 0 7 -15 4 -33z m-1175 0 c15 -16 18 -27 12 -37 -17 -27
-11 -60 16 -85 16 -15 24 -31 20 -40 -9 -24 -33 -18 -45 13 -7 15 -19 40 -28
56 -11 21 -13 31 -5 34 15 5 16 48 2 57 -12 7 -13 25 -2 25 5 0 18 -10 30 -23z
m-982 -90 c6 -67 5 -77 -10 -77 -14 0 -16 13 -16 87 0 108 17 101 26 -10z
m182 66 c-2 -17 -10 -29 -20 -31 -14 -3 -18 3 -18 27 0 25 4 31 21 31 16 0 20
-5 17 -27z m330 -14 c2 -26 -1 -38 -8 -34 -11 7 -14 75 -2 75 4 0 8 -18 10
-41z m652 31 c0 -6 15 -23 32 -39 18 -16 30 -33 26 -37 -7 -7 -88 67 -88 80 0
3 7 6 15 6 8 0 15 -5 15 -10z m87 -22 c-3 -8 -6 -5 -6 6 -1 11 2 17 5 13 3 -3
4 -12 1 -19z m611 -216 c2 -202 0 -232 -13 -232 -13 0 -15 32 -15 236 0 184 3
235 13 232 9 -4 13 -62 15 -236z m-1638 139 c0 -28 4 -52 8 -55 10 -6 3 -118
-7 -126 -7 -6 -7 -10 -10 -72 l-1 -43 -15 29 c-8 15 -15 46 -15 68 0 23 -5 58
-12 80 -9 31 -9 44 0 59 7 10 12 39 12 64 0 38 3 45 20 45 17 0 20 -7 20 -49z
m820 14 c0 -8 9 -16 19 -20 26 -8 44 -32 36 -45 -5 -7 -21 2 -46 27 -39 39
-51 67 -24 57 8 -4 15 -12 15 -19z m210 -1 c0 -8 -5 -12 -10 -9 -6 4 -8 11 -5
16 9 14 15 11 15 -7z m770 -1 c0 -7 -10 -14 -22 -14 l-23 -2 23 -4 c12 -2 22
-11 22 -19 0 -12 -7 -14 -29 -9 -19 4 -34 1 -44 -9 -9 -9 -27 -16 -41 -16 -28
0 -35 14 -11 24 8 3 12 12 9 21 -4 9 -1 15 9 15 8 0 19 6 25 13 6 6 26 12 46
12 22 0 36 -5 36 -12z m-850 -113 c22 -22 47 -40 54 -40 18 0 28 -40 14 -57
-6 -7 -20 -13 -32 -13 -16 0 -18 2 -7 9 18 12 7 58 -17 65 -16 6 -82 62 -82
72 0 16 35 -2 70 -36z m-60 -30 c0 -11 -7 -20 -15 -20 -8 0 -15 9 -15 20 0 11
7 20 15 20 8 0 15 -9 15 -20z m1260 1 c0 -5 -7 -14 -15 -21 -13 -10 -15 -9
-15 9 0 12 6 21 15 21 8 0 15 -4 15 -9z m108 -1 c13 0 21 -4 18 -9 -7 -11 120
-23 232 -21 78 1 92 -1 92 -14 0 -13 -13 -16 -75 -16 -60 0 -75 -3 -75 -15 0
-8 -5 -15 -11 -15 -5 0 -8 4 -5 9 3 4 -13 11 -37 14 -23 4 -56 9 -73 13 -25 5
-37 1 -53 -15 -23 -23 -26 -18 -21 37 2 25 -3 27 -30 10 -15 -9 -22 -10 -31
-1 -16 16 0 36 25 29 11 -3 31 -6 44 -6z m337 -5 c6 -2 -36 -4 -93 -4 -58 -1
-101 3 -98 8 5 8 166 5 191 -4z m165 -7 c0 -5 -7 -8 -15 -8 -22 0 -18 -15 8
-28 20 -10 19 -11 -15 -11 -20 -1 -39 -7 -41 -13 -3 -8 -6 -7 -6 4 -1 9 4 20
9 23 8 5 8 11 0 20 -7 9 -8 14 0 17 19 6 60 3 60 -4z m230 -14 c0 -8 -9 -14
-20 -14 -18 0 -19 3 -10 20 12 22 30 18 30 -6z m185 -3 c-4 -14 0 -23 15 -31
33 -18 23 -28 -30 -28 -51 0 -60 7 -37 30 7 7 16 21 20 31 9 25 40 23 32 -2z
m-322 3 c13 -13 -14 -43 -40 -46 -26 -3 -28 -7 -31 -51 -2 -26 -7 -45 -13 -42
-15 10 -11 81 6 95 8 7 12 16 9 21 -3 5 4 9 15 9 12 0 21 5 21 10 0 11 23 14
33 4z m-1905 -21 c2 -7 -4 -13 -12 -13 -9 0 -19 -7 -22 -15 -8 -20 -54 -20
-54 1 0 8 4 13 10 9 5 -3 17 3 27 14 20 21 44 23 51 4z m-358 -34 c0 -5 -11
-9 -25 -9 -20 0 -25 5 -25 25 0 25 1 25 25 9 14 -9 25 -20 25 -25z m1582 35
c8 -8 -3 -44 -13 -44 -5 0 -9 7 -9 15 0 8 -7 15 -15 15 -8 0 -15 5 -15 10 0
10 43 14 52 4z m58 -24 c0 -13 -7 -20 -20 -20 -13 0 -20 7 -20 20 0 13 7 20
20 20 13 0 20 -7 20 -20z m590 -52 c0 -32 -3 -39 -10 -28 -13 20 -13 70 0 70
6 0 10 -19 10 -42z m-70 -49 c0 -60 -3 -80 -12 -77 -9 3 -14 31 -16 81 -2 64
0 77 13 77 12 0 15 -15 15 -81z m870 51 c0 -16 -1 -30 -3 -30 -1 0 -17 -4 -35
-9 -28 -9 -32 -7 -32 10 0 10 6 19 14 19 8 0 18 9 21 20 10 32 35 25 35 -10z
m-530 -3 c0 -20 -56 -57 -85 -57 -14 0 -28 -7 -31 -15 -9 -23 -44 -19 -44 5 0
15 7 20 25 20 13 0 44 13 67 30 47 32 68 37 68 17z m-10 -82 c0 -9 -9 -15 -21
-15 -18 0 -19 2 -9 15 7 8 16 15 21 15 5 0 9 -7 9 -15z m-2087 -31 c7 -8 -22
-54 -34 -54 -5 0 -9 7 -9 15 0 8 -4 15 -10 15 -5 0 -10 7 -10 15 0 15 50 22
63 9z m764 -6 c-18 -6 -40 -7 -65 0 -35 9 -33 10 28 10 55 0 61 -1 37 -10z
m273 -3 c0 -8 4 -15 9 -15 5 0 11 -9 14 -20 7 -26 0 -25 -24 3 -20 24 -25 47
-9 47 6 0 10 -7 10 -15z m348 -5 c191 0 222 -2 222 -15 0 -22 -454 -23 -476
-1 -20 21 -17 29 9 22 12 -3 122 -6 245 -6z m327 0 c3 -5 1 -10 -4 -10 -6 0
-11 5 -11 10 0 6 2 10 4 10 3 0 8 -4 11 -10z m-1025 -19 c0 -6 -5 -13 -10 -16
-15 -9 -43 3 -35 15 8 13 45 13 45 1z"/>
<path d="M556 5054 c-9 -24 -7 -62 4 -69 6 -4 10 12 10 39 0 48 -4 56 -14 30z"/>
<path d="M630 4751 c0 -17 4 -33 10 -36 11 -7 25 39 15 54 -12 21 -25 11 -25
-18z"/>
<path d="M1385 4360 c3 -5 8 -10 11 -10 2 0 4 5 4 10 0 6 -5 10 -11 10 -5 0
-7 -4 -4 -10z"/>
<path d="M2540 4135 c0 -11 18 -15 80 -17 112 -4 106 -22 -10 -28 -56 -3 -88
-8 -77 -12 26 -11 195 -10 201 1 3 5 3 23 0 40 l-6 31 -94 0 c-76 0 -94 -3
-94 -15z"/>
<path d="M2750 4099 c0 -5 5 -7 10 -4 6 3 10 8 10 11 0 2 -4 4 -10 4 -5 0 -10
-5 -10 -11z"/>
<path d="M12259 6113 c-18 -20 -20 -25 -6 -20 15 6 17 -1 17 -48 0 -30 5 -55
10 -55 6 0 10 32 10 75 0 41 -1 75 -3 75 -2 0 -14 -12 -28 -27z"/>
<path d="M12350 6113 c-24 -25 -24 -25 -3 -19 21 7 22 3 26 -51 3 -53 3 -51 5
20 1 42 1 77 0 76 -2 -1 -14 -12 -28 -26z"/>
<path d="M12510 6124 c-8 -8 -13 -35 -13 -59 0 -66 32 -95 67 -59 10 9 16 33
16 59 0 63 -40 97 -70 59z m48 -6 c17 -17 15 -93 -3 -108 -12 -10 -18 -10 -30
0 -27 23 -15 120 15 120 3 0 11 -5 18 -12z"/>
<path d="M12622 6128 c-20 -20 -13 -32 7 -14 23 21 41 14 41 -15 0 -11 -7 -19
-17 -20 -14 0 -13 -3 5 -11 25 -12 29 -40 8 -57 -15 -13 -46 -5 -46 12 0 6 -3
7 -6 4 -11 -10 17 -37 37 -37 10 0 26 12 35 26 16 23 16 27 1 41 -12 12 -13
20 -4 34 21 34 -32 66 -61 37z"/>
<path d="M12736 6079 c-10 -33 -16 -63 -13 -65 2 -2 11 24 21 57 9 34 15 63
13 66 -2 2 -12 -24 -21 -58z"/>
<path d="M12790 6125 c-7 -9 -10 -18 -6 -22 3 -3 6 -2 6 4 0 14 26 24 45 17
24 -10 17 -38 -16 -70 -17 -16 -35 -37 -40 -46 -9 -16 -5 -18 38 -16 37 1 40
2 16 5 -41 5 -41 12 -3 48 17 16 30 38 30 50 0 41 -45 60 -70 30z"/>
<path d="M12906 6124 c-10 -9 -16 -33 -16 -59 0 -68 43 -98 74 -53 30 42 10
128 -29 128 -7 0 -21 -7 -29 -16z m38 0 c23 -9 23 -109 0 -118 -9 -3 -20 -4
-25 -1 -14 10 -21 69 -10 98 11 29 12 30 35 21z"/>
<path d="M13023 6133 c-7 -2 -13 -11 -13 -20 0 -12 2 -12 16 1 19 20 28 20 43
2 14 -17 5 -41 -29 -71 -12 -11 -26 -28 -31 -37 -9 -16 -5 -18 38 -16 37 1 40
2 16 5 -41 5 -41 12 -3 48 54 51 27 114 -37 88z"/>
<path d="M13132 6128 c-20 -20 -13 -32 7 -14 23 21 41 14 41 -15 0 -11 -7 -19
-17 -20 -14 0 -13 -3 5 -11 25 -12 29 -40 8 -57 -15 -13 -46 -5 -46 12 0 6 -3
7 -6 4 -11 -10 17 -37 37 -37 10 0 26 12 35 26 16 23 16 27 1 41 -12 12 -13
20 -4 34 21 34 -32 66 -61 37z"/>
<path d="M18250 6133 c0 -5 5 -15 10 -23 8 -12 10 -11 10 8 0 12 -4 22 -10 22
-5 0 -10 -3 -10 -7z"/>
<path d="M12446 6059 c-9 -34 -15 -63 -13 -66 2 -2 12 24 21 58 10 33 16 63
13 65 -2 2 -11 -24 -21 -57z"/>
<path d="M18261 6074 c0 -11 3 -14 6 -6 3 7 2 16 -1 19 -3 4 -6 -2 -5 -13z"/>
<path d="M18220 6043 c0 -23 5 -45 10 -48 14 -9 12 -42 -2 -48 -9 -4 -6 -11 9
-24 13 -10 26 -33 29 -50 4 -18 10 -33 14 -33 16 0 17 14 4 46 -8 19 -13 48
-12 66 1 18 -3 33 -10 36 -6 2 -12 16 -12 31 0 15 -7 36 -15 47 -13 18 -14 16
-15 -23z"/>
<path d="M6703 6023 l27 -28 27 28 28 27 -55 0 -55 0 28 -27z"/>
<path d="M11313 6023 l27 -28 27 28 28 27 -55 0 -55 0 28 -27z"/>
<path d="M18281 6014 c0 -11 3 -14 6 -6 3 7 2 16 -1 19 -3 4 -6 -2 -5 -13z"/>
<path d="M16695 5840 c3 -5 8 -10 11 -10 2 0 4 5 4 10 0 6 -5 10 -11 10 -5 0
-7 -4 -4 -10z"/>
<path d="M18303 5805 c0 -22 2 -30 4 -17 2 12 2 30 0 40 -3 9 -5 -1 -4 -23z"/>
<path d="M16155 5754 l-60 -23 -4087 0 c-3424 -1 -4088 -3 -4095 -15 -5 -8
-36 -15 -83 -19 -68 -5 -77 -9 -100 -36 -49 -59 -60 -118 -54 -301 3 -91 11
-171 16 -177 16 -20 56 -15 68 8 8 13 11 89 9 223 -1 111 1 208 5 214 4 7 31
12 64 12 l57 0 -4 -627 c-2 -346 0 -809 4 -1030 l7 -403 59 0 c32 0 60 -4 63
-9 3 -4 1 -37 -5 -72 -11 -71 -38 -108 -93 -130 -17 -7 -34 -17 -38 -23 -6 -9
14 -48 39 -74 7 -7 15 -29 19 -49 4 -21 15 -46 25 -56 38 -41 56 -44 255 -37
104 3 200 2 214 -3 14 -5 260 -7 548 -5 l523 3 6 23 c11 46 98 41 109 -6 8
-29 35 -81 66 -125 11 -16 18 -30 15 -33 -2 -3 -358 -5 -791 -4 -847 1 -833 1
-870 -51 -26 -38 -21 -99 13 -139 l29 -35 4022 -3 4022 -2 29 20 c33 24 55 85
45 125 -4 15 -21 40 -39 56 l-32 30 -696 -3 -696 -3 21 30 c12 17 23 32 26 35
3 3 11 19 19 35 7 17 17 38 22 47 5 10 9 24 9 33 0 8 11 17 24 21 28 7 66 -3
66 -17 0 -33 16 -34 660 -32 351 2 655 7 677 11 57 12 82 55 82 140 0 92 -7
119 -29 125 -10 3 -28 19 -38 36 -19 31 -19 66 -21 1139 l-2 1107 -22 46 -22
47 -60 -24z m-5498 -765 c52 -28 55 -44 59 -307 3 -194 1 -249 -10 -271 -31
-59 34 -56 -1209 -54 -897 1 -1145 4 -1163 14 -53 28 -58 50 -62 252 -5 252 1
308 39 347 38 38 -37 36 1274 33 786 -2 1056 -6 1072 -14z m-72 -1836 l16 -28
1540 2 c1652 3 1575 3 1664 0 54 -2 60 0 63 19 2 16 12 24 37 28 42 8 75 -10
75 -41 0 -12 5 -25 10 -28 6 -3 10 -15 10 -25 0 -10 4 -20 8 -22 10 -4 52 -64
52 -75 0 -4 -825 -8 -1834 -8 l-1833 0 41 60 c22 33 41 65 41 70 1 6 4 18 8
28 4 9 9 24 12 32 3 10 17 15 39 15 27 0 38 -6 51 -27z"/>
<path d="M8324 4956 l-34 -34 0 -242 0 -242 34 -34 34 -34 1137 0 1137 0 34
34 34 34 0 242 0 242 -34 34 -34 34 -1137 0 -1137 0 -34 -34z m490 -196 c14
-5 26 -17 26 -26 0 -11 -5 -14 -17 -9 -21 8 -22 8 -46 6 -27 -2 -15 -23 19
-34 41 -14 54 -26 54 -53 0 -39 -53 -56 -105 -32 -29 13 -28 35 1 30 76 -14
100 8 32 29 -38 12 -43 17 -43 44 0 21 7 33 25 42 30 15 24 15 54 3z m566 -16
c11 -11 12 -16 2 -26 -9 -9 -15 -9 -24 0 -21 21 -57 14 -70 -13 -22 -48 39
-99 72 -60 10 12 16 13 24 5 8 -8 4 -17 -14 -32 -43 -35 -120 -1 -120 54 0 18
-1 18 -16 4 -14 -14 -14 -18 0 -38 20 -28 20 -38 1 -38 -9 0 -24 13 -33 30
-22 39 -42 39 -42 0 0 -28 -3 -30 -35 -30 -29 0 -37 5 -45 25 -7 18 -17 25
-35 25 -18 0 -28 -7 -35 -25 -9 -23 -14 -25 -80 -25 l-70 0 0 80 0 80 60 0
c33 0 60 -4 60 -10 0 -5 -20 -10 -45 -10 -38 0 -45 -3 -45 -20 0 -16 7 -20 35
-20 24 0 35 -5 35 -15 0 -10 -11 -15 -35 -15 -28 0 -35 -4 -35 -20 0 -17 7
-20 43 -20 l44 0 24 63 c33 84 53 83 88 -3 l26 -64 3 67 3 67 49 0 c37 0 54
-5 69 -21 16 -18 20 -19 28 -5 19 34 81 40 113 10z m605 14 c14 -6 25 -14 25
-18 0 -15 -14 -19 -31 -10 -19 11 -49 4 -49 -11 0 -5 12 -14 28 -20 15 -6 35
-15 45 -20 15 -8 17 -4 17 36 l0 45 60 0 c33 0 60 -4 60 -10 0 -5 -18 -10 -40
-10 -33 0 -40 -3 -40 -20 0 -16 7 -20 35 -20 24 0 35 -5 35 -15 0 -10 -11 -15
-35 -15 -28 0 -35 -4 -35 -20 0 -17 7 -20 39 -20 22 0 41 5 44 13 3 10 9 10
26 0 28 -17 61 -16 61 1 0 8 -15 20 -34 26 -19 6 -40 17 -46 25 -31 37 31 85
82 64 16 -6 27 -17 25 -23 -5 -11 -11 -12 -37 -2 -8 3 -22 1 -30 -4 -13 -9
-12 -12 4 -25 11 -8 27 -15 36 -15 20 0 40 -19 40 -39 0 -41 -65 -65 -111 -41
-13 7 -19 7 -19 0 0 -6 -25 -10 -60 -10 -49 0 -60 3 -60 17 0 15 -1 15 -18 0
-32 -29 -112 -16 -112 18 0 17 26 20 35 5 3 -5 17 -10 31 -10 36 0 30 27 -10
40 -19 6 -40 17 -46 25 -16 19 -5 50 23 63 29 14 32 14 62 0z m-545 -28 c0
-27 3 -30 30 -30 27 0 30 3 30 30 0 24 4 30 20 30 19 0 21 -5 18 -77 -3 -65
-6 -78 -20 -81 -15 -3 -18 4 -18 32 0 33 -2 36 -29 36 -26 0 -30 -4 -33 -32
-2 -22 -9 -34 -20 -36 -16 -3 -18 6 -18 77 0 74 2 81 20 81 16 0 20 -7 20 -30z
m280 15 c7 -8 10 -25 7 -37 -4 -13 -2 -30 3 -38 7 -11 10 1 10 38 0 39 4 52
15 52 11 0 15 -12 15 -46 0 -55 14 -84 40 -84 26 0 40 29 40 84 0 34 4 46 15
46 12 0 15 -13 15 -59 0 -52 -3 -62 -26 -80 -35 -27 -59 -26 -88 2 l-23 23
-21 -23 c-16 -18 -31 -23 -66 -23 l-46 0 0 80 0 80 49 0 c31 0 53 -5 61 -15z"/>
<path d="M9160 4709 c0 -26 3 -30 22 -27 26 3 37 36 16 49 -25 17 -38 9 -38
-22z"/>
<path d="M9036 4695 c-9 -23 -8 -25 9 -25 17 0 19 9 6 28 -7 11 -10 10 -15 -3z"/>
<path d="M9640 4721 c0 -16 6 -21 26 -21 33 0 30 33 -4 38 -17 3 -22 -2 -22
-17z"/>
<path d="M9640 4650 c0 -17 5 -21 28 -18 16 2 27 9 27 18 0 9 -11 16 -27 18
-23 3 -28 -1 -28 -18z"/>
<path d="M6072 5673 c6 -34 7 -370 5 -795 l-5 -737 42 -3 41 -3 2 -230 c2
-126 3 -233 3 -237 0 -5 245 -8 545 -8 l545 0 1 23 c1 12 1 112 1 222 -1 110
1 208 4 218 4 12 16 17 43 17 l38 0 -1 795 -1 795 -636 0 -636 0 9 -57z m613
-708 l0 -295 -261 0 -261 0 -1 230 c-2 169 1 236 10 251 10 17 10 23 1 26 -8
3 -13 22 -13 44 l0 39 263 0 262 0 0 -295z m280 170 c0 -12 -50 -19 -71 -11
-9 3 -12 11 -9 16 8 14 80 9 80 -5z m295 -170 l0 -136 -92 3 -93 3 -2 133 -2
132 95 0 94 0 0 -135z m-300 61 c0 -21 -17 -29 -46 -22 -38 10 -30 36 11 36
24 0 35 -5 35 -14z m5 -111 c0 -12 -50 -19 -73 -10 -14 5 -14 7 -2 16 19 12
75 7 75 -6z m0 -120 c0 -12 -50 -19 -71 -11 -9 3 -12 11 -9 16 8 14 80 9 80
-5z m189 -778 c8 -29 7 -215 0 -244 l-6 -23 -444 0 -443 0 -3 121 c-3 121 4
148 28 115 17 -24 48 -16 52 13 4 23 1 24 -37 18 -31 -4 -41 -2 -41 9 0 12 67
14 444 14 l444 -1 6 -22z"/>
<path d="M6207 5133 c-4 -3 -7 -80 -7 -170 l0 -163 223 2 222 3 3 168 3 167
-219 0 c-120 0 -222 -3 -225 -7z"/>
<path d="M7102 5020 c1 -51 18 -84 18 -36 0 19 5 26 20 26 13 0 19 -6 17 -17
-1 -10 3 -20 8 -23 6 -3 11 5 13 18 4 28 32 29 32 1 0 -11 4 -17 10 -14 6 4 8
15 5 26 -4 11 -2 19 5 19 6 0 10 10 8 23 -3 20 -9 22 -70 25 l-67 3 1 -51z"/>
<path d="M7106 4941 c-4 -5 -2 -12 3 -15 5 -4 12 -2 15 3 4 5 2 12 -3 15 -5 4
-12 2 -15 -3z"/>
<path d="M7156 4941 c-4 -5 -2 -12 3 -15 5 -4 12 -2 15 3 4 5 2 12 -3 15 -5 4
-12 2 -15 -3z"/>
<path d="M7206 4941 c-4 -5 -2 -12 3 -15 5 -4 12 -2 15 3 4 5 2 12 -3 15 -5 4
-12 2 -15 -3z"/>
<path d="M7100 4885 c0 -8 5 -15 10 -15 6 0 10 7 10 15 0 8 -4 15 -10 15 -5 0
-10 -7 -10 -15z"/>
<path d="M7156 4885 c4 -8 10 -15 15 -15 5 0 9 7 9 15 0 8 -7 15 -15 15 -9 0
-12 -6 -9 -15z"/>
<path d="M7065 4010 c-10 -17 16 -41 39 -38 13 2 22 12 24 26 3 19 -1 22 -27
22 -16 0 -33 -5 -36 -10z"/>
<path d="M18268 5573 c-20 -44 -22 -53 -10 -53 11 0 34 57 30 76 -2 11 -9 2
-20 -23z"/>
<path d="M251 5507 c-7 -18 -17 -40 -22 -49 -12 -22 -12 -61 0 -54 5 3 15 26
22 51 7 25 17 45 21 45 10 0 10 27 0 34 -4 2 -14 -10 -21 -27z"/>
<path d="M1480 5495 c0 -8 2 -15 4 -15 2 0 11 -3 20 -6 12 -4 16 0 16 15 0 14
-6 21 -20 21 -11 0 -20 -7 -20 -15z"/>
<path d="M1561 5494 c8 -10 15 -12 17 -5 2 6 14 8 27 5 12 -3 26 -1 29 5 5 7
-9 11 -40 11 -42 0 -45 -2 -33 -16z"/>
<path d="M1870 5421 c0 -57 15 -75 24 -30 8 44 26 26 26 -27 0 -37 3 -44 20
-44 14 0 20 -7 20 -22 l0 -23 19 24 c22 29 18 51 -8 44 -11 -3 -21 2 -25 12
-9 24 2 37 25 30 15 -5 19 -1 19 14 0 14 -6 21 -19 21 -11 0 -23 5 -26 10 -3
6 -15 10 -26 10 -10 0 -19 7 -19 15 0 8 -7 15 -15 15 -11 0 -15 -12 -15 -49z"/>
<path d="M1070 5446 c0 -9 30 -14 35 -6 4 6 -3 10 -14 10 -12 0 -21 -2 -21 -4z"/>
<path d="M17030 5399 c0 -6 -7 -9 -15 -5 -18 6 -19 2 -4 -25 10 -20 11 -20 24
-2 17 21 19 43 5 43 -5 0 -10 -5 -10 -11z"/>
<path d="M18123 5398 c-6 -7 -13 -25 -17 -40 -5 -21 -3 -28 9 -28 8 0 15 7 15
15 0 9 13 24 30 33 16 9 30 20 30 25 0 12 -57 8 -67 -5z"/>
<path d="M2090 5330 c0 -5 9 -10 21 -10 11 0 17 5 14 10 -3 6 -13 10 -21 10
-8 0 -14 -4 -14 -10z"/>
<path d="M1530 5270 c0 -5 5 -10 10 -10 6 0 10 5 10 10 0 6 -4 10 -10 10 -5 0
-10 -4 -10 -10z"/>
<path d="M1985 5260 c-3 -5 1 -20 9 -32 16 -22 16 -22 16 10 0 31 -12 42 -25
22z"/>
<path d="M17132 5238 c3 -7 26 -25 52 -40 40 -24 47 -25 44 -11 -2 10 -14 23
-26 29 -13 6 -29 17 -35 23 -15 15 -40 14 -35 -1z"/>
<path d="M1712 5193 c-6 -2 -10 -9 -7 -13 7 -11 35 -2 35 11 0 10 -8 10 -28 2z"/>
<path d="M17340 5140 c0 -5 14 -10 32 -10 36 0 35 4 -4 14 -17 4 -28 2 -28 -4z"/>
<path d="M55 4140 c0 -217 1 -306 2 -197 2 108 2 286 0 395 -1 108 -2 19 -2
-198z"/>
<path d="M322 4390 c0 -14 2 -19 5 -12 2 6 2 18 0 25 -3 6 -5 1 -5 -13z"/>
<path d="M730 4316 c0 -2 8 -10 18 -17 15 -13 16 -12 3 4 -13 16 -21 21 -21
13z"/>
<path d="M770 4301 c0 -6 5 -13 10 -16 6 -3 10 1 10 9 0 9 -4 16 -10 16 -5 0
-10 -4 -10 -9z"/>
<path d="M747 4103 c-4 -3 -7 -15 -7 -25 0 -12 7 -18 24 -18 22 0 23 2 13 25
-12 26 -19 30 -30 18z"/>
<path d="M611 4038 c1 -13 4 -34 8 -48 7 -23 8 -22 14 14 3 22 4 43 1 48 -10
16 -24 8 -23 -14z"/>
<path d="M4270 3752 c0 -9 9 -23 20 -30 23 -14 26 -3 10 29 -13 24 -30 25 -30
1z"/>
<path d="M3330 3700 c0 -11 -9 -20 -22 -23 -14 -3 -9 -5 15 -6 30 -1 37 2 37
18 0 10 -7 21 -15 25 -10 3 -15 -1 -15 -14z"/>
<path d="M40 3696 c0 -10 9 -16 25 -16 14 0 25 5 25 10 0 6 -4 10 -9 10 -5 0
-16 3 -25 6 -11 4 -16 1 -16 -10z"/>
<path d="M1038 3703 c-345 -3 -398 -5 -398 -18 0 -13 53 -15 404 -15 399 0
404 0 399 20 -3 11 -6 19 -7 18 0 -2 -180 -4 -398 -5z"/>
<path d="M6080 1596 c0 -21 92 -212 103 -214 9 -2 21 15 34 45 l20 48 21 -47
c11 -27 27 -48 35 -48 15 0 104 206 93 217 -11 12 -25 -11 -60 -97 l-35 -85
-15 37 c-20 46 -20 56 -1 101 18 43 18 47 5 47 -5 0 -17 -15 -26 -32 l-17 -33
-15 33 c-29 60 -44 33 -17 -32 14 -32 13 -40 -1 -76 -9 -23 -20 -38 -24 -33
-4 4 -22 45 -40 91 -19 48 -38 82 -46 82 -8 0 -14 -2 -14 -4z"/>
<path d="M6570 1495 c0 -94 2 -105 20 -115 14 -8 26 -8 38 -1 15 10 15 11 -5
17 -22 6 -23 11 -23 105 0 81 -3 99 -15 99 -12 0 -15 -18 -15 -105z"/>
<path d="M7880 1491 c0 -93 2 -111 15 -111 13 0 15 16 13 107 -2 74 -7 108
-15 111 -10 3 -13 -23 -13 -107z"/>
<path d="M8240 1560 c0 -37 -2 -40 -19 -30 -48 25 -98 -3 -107 -61 -7 -44 27
-91 66 -90 14 0 42 1 63 2 30 1 37 4 33 16 -3 8 -6 57 -6 109 0 77 -3 94 -15
94 -11 0 -15 -11 -15 -40z m-2 -99 c4 -38 -12 -61 -41 -61 -46 0 -73 56 -44
92 31 39 80 21 85 -31z"/>
<path d="M8310 1585 c0 -8 7 -15 15 -15 8 0 15 7 15 15 0 8 -7 15 -15 15 -8 0
-15 -7 -15 -15z"/>
<path d="M8530 1565 c0 -24 5 -35 15 -35 10 0 15 11 15 35 0 24 -5 35 -15 35
-10 0 -15 -11 -15 -35z"/>
<path d="M8820 1490 l0 -110 75 0 c91 0 101 18 13 22 l-63 3 -3 98 c-4 135
-22 124 -22 -13z"/>
<path d="M9940 1490 l0 -110 69 0 c43 0 72 5 78 13 19 24 21 45 7 72 -10 19
-11 32 -4 46 15 28 1 69 -27 80 -13 5 -47 9 -74 9 l-49 0 0 -110z m121 64 c21
-25 -1 -49 -50 -52 -41 -3 -41 -3 -41 32 0 35 1 36 39 36 23 0 44 -6 52 -16z
m3 -90 c19 -18 19 -20 6 -45 -8 -14 -21 -19 -55 -19 l-45 0 0 40 c0 40 0 40
39 40 23 0 46 -7 55 -16z"/>
<path d="M10510 1585 c0 -11 11 -15 40 -15 l40 0 0 -95 c0 -57 4 -95 10 -95 6
0 10 38 10 95 l0 95 40 0 c29 0 40 4 40 15 0 12 -17 15 -90 15 -73 0 -90 -3
-90 -15z"/>
<path d="M10710 1585 c0 -8 7 -15 15 -15 8 0 15 7 15 15 0 8 -7 15 -15 15 -8
0 -15 -7 -15 -15z"/>
<path d="M10940 1490 c0 -91 3 -110 15 -110 9 0 15 9 15 24 0 13 6 29 14 35
11 10 20 5 41 -24 42 -54 63 -45 24 10 l-33 45 34 35 c44 46 19 45 -36 -1
l-44 -35 0 65 c0 52 -3 66 -15 66 -12 0 -15 -19 -15 -110z"/>
<path d="M11644 1590 c-34 -13 -64 -59 -64 -97 0 -81 68 -137 133 -110 39 17
63 42 47 52 -5 3 -22 -3 -36 -14 -35 -27 -59 -26 -89 4 -32 31 -34 96 -5 125
26 26 72 26 95 0 13 -15 22 -17 29 -10 8 8 3 18 -17 36 -29 25 -56 29 -93 14z"/>
<path d="M7530 1566 c0 -13 -6 -26 -12 -29 -10 -4 -10 -7 0 -18 6 -7 12 -38
12 -70 0 -62 15 -85 50 -74 27 8 27 35 0 28 -18 -5 -20 0 -20 56 0 48 3 61 15
61 8 0 15 5 15 10 0 6 -7 10 -15 10 -9 0 -15 9 -15 25 0 16 -6 25 -15 25 -9 0
-15 -9 -15 -24z"/>
<path d="M9760 1566 c0 -13 -6 -27 -12 -30 -10 -5 -10 -7 0 -12 7 -4 12 -27
12 -64 0 -62 19 -96 47 -86 8 3 19 6 24 6 19 0 8 19 -13 22 -20 3 -23 10 -26
56 -3 47 -1 54 17 59 27 7 27 23 1 23 -15 0 -20 7 -20 25 0 16 -6 25 -15 25
-9 0 -15 -9 -15 -24z"/>
<path d="M11270 1566 c0 -13 -6 -27 -12 -30 -10 -5 -10 -7 0 -12 8 -4 12 -28
12 -69 0 -41 5 -66 14 -74 18 -15 66 -4 60 14 -3 7 -14 11 -25 8 -17 -5 -19 0
-19 56 0 48 3 61 15 61 8 0 15 5 15 10 0 6 -7 10 -15 10 -9 0 -15 9 -15 25 0
16 -6 25 -15 25 -9 0 -15 -9 -15 -24z"/>
<path d="M6418 1530 c-25 -15 -41 -72 -28 -104 20 -54 103 -66 140 -20 14 16
13 17 -10 10 -55 -17 -71 -18 -85 -6 -33 28 -17 40 51 40 56 0 65 2 60 16 -3
9 -6 20 -6 25 0 37 -81 63 -122 39z m85 -32 l22 -23 -33 -3 c-18 -2 -45 -2
-60 0 l-27 3 23 23 c12 12 29 22 37 22 8 0 25 -10 38 -22z"/>
<path d="M6671 1523 c-12 -10 -24 -34 -27 -53 -11 -67 57 -115 118 -84 28 14
38 34 18 34 -6 0 -19 -5 -29 -11 -27 -17 -70 -3 -77 25 -14 58 29 100 73 71
34 -22 54 -4 22 19 -31 21 -71 20 -98 -1z"/>
<path d="M6835 1523 c-70 -69 -17 -165 78 -140 32 9 61 63 50 94 -20 57 -91
83 -128 46z m99 -46 c8 -13 7 -24 -4 -45 -35 -61 -124 -10 -91 52 8 14 21 27
30 29 19 5 51 -13 65 -36z"/>
<path d="M6990 1460 c0 -63 3 -80 15 -80 10 0 15 15 17 56 2 45 8 60 24 71 34
22 54 -5 54 -73 0 -41 4 -54 15 -54 11 0 15 13 15 53 0 59 23 93 54 81 12 -5
16 -20 16 -70 0 -50 3 -64 15 -64 12 0 15 13 15 61 0 33 -5 69 -10 80 -13 23
-56 25 -80 4 -15 -14 -18 -14 -30 0 -14 17 -43 19 -71 5 -13 -7 -19 -7 -19 0
0 5 -7 10 -15 10 -12 0 -15 -16 -15 -80z"/>
<path d="M7285 1515 c-61 -60 7 -167 86 -135 30 13 47 40 24 40 -7 0 -17 -4
-20 -10 -9 -14 -58 -13 -73 2 -28 28 -13 38 53 38 59 0 65 2 65 20 0 32 -44
70 -80 70 -19 0 -40 -9 -55 -25z m89 -11 c26 -26 18 -34 -34 -34 -54 0 -59 4
-33 32 20 22 46 23 67 2z"/>
<path d="M7635 1515 c-52 -51 -16 -138 57 -138 39 0 78 41 78 84 0 40 -39 79
-80 79 -19 0 -40 -9 -55 -25z m83 -11 c41 -28 21 -104 -28 -104 -49 0 -69 76
-28 104 12 9 25 16 28 16 3 0 16 -7 28 -16z"/>
<path d="M7950 1460 c0 -64 3 -80 15 -80 12 0 15 13 15 55 0 47 3 57 25 71 39
25 55 5 55 -67 0 -46 3 -59 15 -59 12 0 15 13 15 58 0 87 -34 122 -91 92 -13
-7 -19 -7 -19 0 0 5 -7 10 -15 10 -12 0 -15 -16 -15 -80z"/>
<path d="M8310 1460 c0 -64 3 -80 15 -80 12 0 15 16 15 80 0 64 -3 80 -15 80
-12 0 -15 -16 -15 -80z"/>
<path d="M8387 1529 c-26 -15 -11 -30 19 -19 30 12 64 -3 64 -27 0 -11 -6 -14
-21 -10 -27 7 -76 -10 -83 -30 -17 -42 31 -81 78 -63 13 5 33 6 43 4 18 -5 19
-1 15 58 -3 48 -9 67 -24 81 -22 19 -64 22 -91 6z m81 -101 c-2 -17 -11 -24
-32 -26 -33 -4 -51 10 -43 32 4 11 19 16 42 16 32 0 36 -3 33 -22z"/>
<path d="M8606 1527 c-32 -23 -17 -60 32 -77 28 -10 42 -20 40 -30 -4 -18 -54
-26 -73 -10 -8 7 -15 7 -19 1 -8 -13 33 -41 59 -41 11 0 31 7 43 16 37 25 25
55 -32 82 -45 22 -47 25 -32 40 13 14 21 14 46 5 34 -13 51 0 21 16 -27 15
-63 14 -85 -2z"/>
<path d="M8995 1527 c-23 -18 -4 -32 23 -18 20 11 62 4 62 -10 0 -5 1 -12 3
-16 1 -5 -16 -8 -37 -9 -68 -2 -96 -67 -40 -93 15 -7 32 -7 48 -1 13 5 33 6
43 4 18 -5 19 -1 15 58 -3 37 -11 70 -20 81 -18 20 -71 22 -97 4z m95 -90 c0
-21 -22 -37 -51 -37 -31 0 -44 13 -35 35 7 19 86 21 86 2z"/>
<path d="M9150 1460 c0 -63 3 -80 15 -80 10 0 15 15 17 58 3 48 7 59 26 67 24
10 30 35 9 35 -7 0 -18 -5 -25 -12 -9 -9 -12 -9 -12 0 0 7 -7 12 -15 12 -12 0
-15 -16 -15 -80z"/>
<path d="M9271 1523 c-12 -10 -24 -34 -27 -54 -10 -62 51 -110 109 -85 23 11
23 -16 -1 -37 -23 -21 -41 -21 -70 -1 -30 21 -41 10 -17 -16 24 -26 75 -26
109 1 25 19 26 25 26 115 0 77 -3 94 -15 94 -8 0 -15 -5 -15 -12 0 -9 -3 -9
-12 0 -18 18 -63 15 -87 -5z m94 -68 c0 -44 -19 -61 -58 -51 -45 11 -49 88 -4
105 35 14 62 -9 62 -54z"/>
<path d="M9456 1519 c-19 -15 -26 -30 -26 -55 0 -49 14 -71 54 -84 37 -12 61
-5 86 24 10 13 10 16 -3 16 -9 0 -19 -4 -22 -10 -9 -14 -58 -13 -73 2 -28 28
-13 38 53 38 70 0 74 4 50 49 -24 46 -74 55 -119 20z m82 -15 c34 -24 26 -34
-28 -34 -53 0 -68 18 -32 39 24 14 34 13 60 -5z"/>
<path d="M9626 1524 c-9 -8 -16 -24 -16 -35 0 -19 16 -29 82 -52 26 -9 11 -37
-21 -37 -14 0 -33 4 -41 9 -19 13 -34 2 -20 -14 36 -43 124 -18 118 32 -2 21
-12 29 -45 41 -44 14 -56 37 -27 49 8 3 26 1 39 -5 27 -12 40 -5 24 15 -16 18
-74 17 -93 -3z"/>
<path d="M10130 1486 c0 -99 30 -132 90 -102 17 8 30 10 30 5 0 -5 7 -9 16 -9
11 0 14 5 10 16 -3 9 -6 45 -6 80 0 36 -4 64 -10 64 -5 0 -10 -21 -10 -48 0
-56 -21 -92 -54 -92 -29 0 -36 16 -36 86 0 41 -4 54 -15 54 -11 0 -15 -13 -15
-54z"/>
<path d="M10326 1527 c-32 -23 -17 -60 32 -77 28 -10 42 -20 40 -30 -4 -18
-54 -26 -73 -10 -8 7 -15 7 -19 1 -8 -13 33 -41 59 -41 11 0 31 7 43 16 37 25
25 55 -32 82 -45 22 -47 25 -32 40 13 14 21 14 46 5 34 -13 51 0 21 16 -27 15
-63 14 -85 -2z"/>
<path d="M10710 1460 c0 -64 3 -80 15 -80 12 0 15 16 15 80 0 64 -3 80 -15 80
-12 0 -15 -16 -15 -80z"/>
<path d="M10798 1530 c-25 -15 -41 -72 -28 -104 19 -50 110 -67 135 -26 11 18
-4 25 -25 12 -30 -18 -57 -14 -74 10 -19 27 -20 48 -3 72 16 22 66 25 78 5 6
-10 11 -11 19 -3 30 30 -59 59 -102 34z"/>
<path d="M11105 1515 c-61 -60 7 -167 86 -135 30 13 47 40 24 40 -7 0 -17 -4
-20 -10 -9 -14 -58 -13 -73 2 -28 28 -13 38 53 38 59 0 65 2 65 20 0 32 -44
70 -80 70 -19 0 -40 -9 -55 -25z m89 -11 c26 -26 18 -34 -34 -34 -54 0 -59 4
-33 32 20 22 46 23 67 2z"/>
<path d="M11376 1524 c-9 -8 -16 -24 -16 -35 0 -19 16 -29 82 -52 26 -9 11
-37 -21 -37 -14 0 -33 4 -41 9 -19 13 -34 2 -20 -14 36 -43 124 -18 118 32 -2
21 -12 29 -45 41 -44 14 -56 37 -27 49 8 3 26 1 39 -5 27 -12 40 -5 24 15 -16
18 -74 17 -93 -3z"/>
<path d="M11810 1520 c-64 -64 -5 -168 79 -139 54 19 69 84 30 133 -26 33 -79
36 -109 6z m80 -18 c28 -22 30 -70 4 -89 -58 -42 -115 36 -64 87 25 25 32 25
60 2z"/>
<path d="M11970 1460 c0 -63 3 -80 15 -80 10 0 15 15 17 56 2 44 8 60 23 70
32 21 46 3 52 -65 7 -70 23 -83 23 -17 0 55 7 74 32 87 33 18 48 -6 48 -72 0
-46 3 -59 15 -59 12 0 15 13 15 58 0 88 -34 122 -92 91 -14 -8 -23 -8 -31 0
-15 15 -60 14 -75 -1 -9 -9 -12 -9 -12 0 0 7 -7 12 -15 12 -12 0 -15 -16 -15
-80z"/>
<path d="M12250 1425 c0 -70 4 -115 10 -115 6 0 10 18 10 41 0 37 2 40 23 33
62 -22 107 10 107 76 0 61 -59 97 -111 70 -13 -7 -19 -7 -19 0 0 5 -4 10 -10
10 -6 0 -10 -45 -10 -115z m105 70 c29 -28 31 -42 9 -73 -18 -26 -50 -28 -76
-5 -24 21 -23 58 2 83 26 26 36 25 65 -5z"/>
<path d="M12444 1526 c-26 -19 -13 -29 20 -16 32 12 66 -2 66 -27 0 -11 -6
-14 -22 -10 -11 3 -36 0 -55 -8 -60 -25 -37 -91 30 -86 18 2 45 3 60 2 22 0
27 3 23 15 -3 9 -6 36 -6 60 0 72 -62 109 -116 70z m86 -89 c0 -20 -21 -37
-46 -37 -26 0 -38 14 -30 35 7 19 76 21 76 2z"/>
<path d="M12590 1460 c0 -64 3 -80 15 -80 11 0 15 12 15 48 0 52 6 64 36 80
32 17 45 0 51 -67 3 -33 10 -61 14 -61 14 0 11 134 -3 148 -15 15 -53 16 -79
2 -13 -7 -19 -7 -19 0 0 5 -7 10 -15 10 -12 0 -15 -16 -15 -80z"/>
<path d="M12750 1535 c0 -3 14 -35 30 -72 33 -73 38 -111 15 -119 -19 -8 -20
-34 -1 -34 19 0 31 17 55 78 12 28 30 75 41 102 16 40 17 50 6 50 -8 0 -25
-26 -38 -60 -12 -33 -25 -60 -28 -60 -3 0 -16 27 -28 60 -14 34 -30 60 -38 60
-8 0 -14 -2 -14 -5z"/>
<path d="M14020 294 c-69 -30 -201 -88 -295 -129 -93 -40 -205 -89 -248 -109
l-78 -36 -1590 0 c-1053 0 -1589 3 -1589 10 0 12 -37 13 -44 1 -3 -5 -309 -9
-703 -9 -454 -1 -687 3 -666 9 26 8 80 56 71 64 -5 5 -228 65 -239 65 -16 0
-3 -59 19 -83 9 -11 31 -28 47 -38 29 -18 -1 -19 -1317 -19 l-1346 0 -67 30
c-37 16 -72 30 -78 30 -7 0 -41 -14 -75 -30 -63 -30 -65 -30 -237 -30 -130 0
-174 3 -178 13 -3 9 -11 9 -39 -1 -63 -22 -75 -12 -18 17 l55 29 -69 31 c-44
20 -77 29 -90 25 -12 -4 -69 -31 -128 -60 l-108 -54 -2505 0 c-1663 0 -2505
-3 -2505 -10 0 -7 3173 -10 9500 -10 6313 0 9500 3 9500 10 0 7 -791 11 -2337
12 l-2338 3 -57 144 c-58 146 -79 181 -107 181 -9 0 -72 -25 -141 -56z m158
37 c15 -9 134 -302 127 -310 -3 -2 -17 2 -32 10 -20 11 -27 11 -30 2 -4 -12
-93 -20 -93 -9 0 2 -3 12 -7 22 -5 15 -2 16 30 10 44 -8 77 7 77 35 0 23 -27
36 -43 20 -8 -8 -7 -11 6 -11 9 0 17 -7 17 -16 0 -14 -8 -15 -56 -9 l-57 7 7
-33 c3 -19 3 -29 -2 -24 -10 12 -102 238 -102 251 0 9 115 63 135 63 6 1 16
-3 23 -8z m-131 -169 c24 -59 46 -115 49 -124 5 -16 -2 -18 -64 -18 -55 0 -71
3 -76 16 -4 10 1 22 10 29 11 7 15 19 11 29 -6 15 -9 15 -44 0 -21 -9 -46 -19
-56 -21 -13 -4 -17 -13 -14 -29 5 -26 -19 -34 -41 -12 -9 9 -18 9 -37 0 -17
-8 -86 -12 -193 -12 l-167 0 100 44 c55 24 181 80 280 124 99 44 185 80 190
81 6 0 29 -48 52 -107z m-140 -138 c-3 -3 -12 -4 -19 -1 -8 3 -5 6 6 6 11 1
17 -2 13 -5z"/>
<path d="M14150 272 c0 -6 6 -12 13 -15 9 -3 9 -8 -2 -18 -10 -11 -15 -11 -18
-1 -7 18 -20 15 -26 -8 -3 -11 -13 -20 -22 -20 -12 0 -15 5 -10 23 7 21 6 21
-10 5 -21 -19 -14 -48 12 -48 9 0 36 10 60 21 34 17 43 26 41 43 -3 20 -38 37
-38 18z"/>
<path d="M14180 186 c0 -16 -50 -39 -76 -34 -14 2 -18 -2 -16 -17 6 -32 19
-39 31 -16 7 12 15 21 20 21 5 0 25 7 46 15 30 13 35 18 25 30 -16 19 -30 19
-30 1z"/>
<path d="M9463 284 c-7 -3 -13 -13 -13 -21 0 -13 3 -13 15 -3 8 7 24 10 36 7
13 -3 19 -1 16 6 -4 13 -35 19 -54 11z"/>
<path d="M9274 256 c-10 -8 -16 -18 -12 -22 4 -4 13 -2 21 4 7 6 24 9 38 6 23
-5 23 -5 5 10 -24 20 -27 20 -52 2z"/>
<path d="M9530 221 c-7 -15 -6 -24 6 -36 31 -31 82 6 55 39 -18 22 -48 20 -61
-3z"/>
<path d="M8695 210 c-8 -13 4 -32 16 -25 12 8 12 35 0 35 -6 0 -13 -4 -16 -10z"/>
<path d="M8827 183 c-4 -3 -7 -12 -7 -20 0 -17 26 -17 33 1 8 21 -11 35 -26
19z"/>
<path d="M9234 175 c-10 -25 4 -47 28 -43 17 2 24 11 26 31 3 23 0 27 -23 27
-14 0 -28 -7 -31 -15z"/>
<path d="M9390 175 c-76 -11 -85 -20 -58 -52 13 -16 71 -27 103 -19 33 8 65
41 65 66 0 22 0 22 -110 5z"/>
<path d="M10251 96 c-10 -12 -6 -14 24 -13 37 1 46 11 19 21 -23 9 -30 8 -43
-8z"/>
<path d="M10087 94 c-13 -14 -7 -19 23 -19 17 0 29 5 27 10 -4 12 -40 19 -50
9z"/>
</g>
</svg>
