<?xml version="1.0" standalone="no"?>
<!DOCTYPE svg PUBLIC "-//W3C//DTD SVG 20010904//EN"
 "http://www.w3.org/TR/2001/REC-SVG-20010904/DTD/svg10.dtd">
<svg version="1.0" xmlns="http://www.w3.org/2000/svg"
 width="1906.000000pt" height="985.000000pt" viewBox="0 0 1906.000000 985.000000"
 preserveAspectRatio="xMidYMid meet">

<g transform="translate(0.000000,985.000000) scale(0.100000,-0.100000)"
fill="#000000" stroke="none">
<path d="M4763 9843 c2622 -2 6912 -2 9535 0 2622 1 476 2 -4768 2 -5244 0
-7390 -1 -4767 -2z"/>
<path d="M2255 9583 c-4 -16 -20 -72 -36 -126 -37 -119 -36 -142 6 -142 20 0
31 5 33 17 2 13 -1 16 -12 12 -23 -9 -21 5 19 127 19 59 32 115 29 123 -10 25
-33 18 -39 -11z"/>
<path d="M2465 9573 c-9 -20 -18 -47 -21 -60 -5 -18 -13 -23 -39 -23 -44 0
-80 -31 -101 -85 -22 -59 -9 -95 35 -95 16 0 34 7 41 15 11 14 14 13 24 -1 15
-20 60 -15 64 8 2 13 -1 16 -12 12 -24 -9 -20 20 19 136 19 57 35 110 35 117
0 27 -30 11 -45 -24z m-50 -142 c-10 -39 -45 -91 -61 -91 -9 0 -14 12 -14 36
0 26 8 43 30 65 34 35 55 30 45 -10z"/>
<path d="M450 9578 c-43 -12 -54 -22 -46 -43 4 -13 10 -14 26 -5 20 11 27 2
11 -15 -5 -6 -18 -37 -30 -70 -12 -33 -31 -75 -42 -94 -11 -18 -18 -36 -15
-38 13 -13 46 13 67 52 13 25 27 45 30 45 3 0 14 -18 24 -41 25 -54 55 -75 86
-58 23 12 23 12 2 20 -27 10 -72 81 -55 87 26 8 70 53 76 77 9 35 -9 64 -49
81 -39 16 -37 16 -85 2z m94 -43 c9 -23 -12 -60 -46 -79 -37 -23 -43 -17 -28
29 9 28 9 39 0 50 -11 13 -6 15 28 15 26 0 42 -5 46 -15z"/>
<path d="M1760 9577 c-49 -13 -71 -47 -30 -47 12 0 20 -3 18 -7 -29 -57 -42
-98 -46 -145 -4 -55 -3 -57 22 -64 77 -19 155 42 125 98 -9 17 -8 23 5 30 25
14 48 67 41 95 -3 15 -18 30 -40 39 -39 16 -36 16 -95 1z m94 -44 c12 -29 -38
-83 -76 -83 -16 0 -16 3 3 34 18 31 18 34 3 47 -15 12 -15 14 7 20 32 7 56 0
63 -18z m-45 -127 c17 -20 -2 -54 -35 -67 -32 -12 -44 -5 -44 26 0 45 53 72
79 41z"/>
<path d="M2152 9571 c-20 -12 -10 -46 13 -46 14 0 20 7 20 24 0 27 -13 35 -33
22z"/>
<path d="M15453 9435 c0 -44 2 -61 4 -37 2 23 2 59 0 80 -2 20 -4 1 -4 -43z"/>
<path d="M17890 9437 l0 -74 37 -1 c45 -2 63 12 63 49 0 46 -41 74 -68 47 -9
-9 -12 -5 -12 20 0 18 -4 32 -10 32 -6 0 -10 -31 -10 -73z m80 -6 c15 -30 2
-53 -29 -49 -26 3 -38 26 -27 54 8 20 44 17 56 -5z"/>
<path d="M14091 9428 c1 -47 4 -63 8 -44 8 41 26 43 52 7 29 -39 44 -40 25 -2
-14 26 -14 30 -1 41 34 28 3 70 -51 70 l-34 0 1 -72z m74 42 c10 -17 -16 -41
-39 -38 -13 2 -22 12 -24 26 -3 19 1 22 27 22 16 0 33 -5 36 -10z"/>
<path d="M14910 9490 c0 -5 9 -10 20 -10 18 0 20 -7 20 -60 0 -33 4 -60 10
-60 6 0 10 27 10 60 0 53 2 60 20 60 11 0 20 5 20 10 0 6 -22 10 -50 10 -27 0
-50 -4 -50 -10z"/>
<path d="M16232 9428 l1 -73 6 55 6 55 20 -32 c10 -18 23 -33 27 -33 4 0 15
15 25 33 l18 32 3 -52 c4 -78 22 -64 22 17 0 40 -4 70 -10 70 -5 0 -20 -16
-32 -35 -13 -19 -25 -35 -28 -35 -3 0 -14 16 -24 35 -11 19 -23 35 -28 35 -4
0 -7 -33 -6 -72z"/>
<path d="M16581 9428 c1 -47 4 -63 8 -44 8 41 26 43 52 7 29 -39 44 -40 25 -2
-14 26 -14 30 -1 41 34 28 3 70 -51 70 l-34 0 1 -72z m74 42 c10 -17 -16 -41
-39 -38 -13 2 -22 12 -24 26 -3 19 1 22 27 22 16 0 33 -5 36 -10z"/>
<path d="M17787 9483 c-2 -10 -14 -42 -26 -70 -12 -32 -16 -53 -10 -53 6 0 13
9 16 20 8 28 56 27 76 -2 26 -40 26 -15 -2 55 -26 66 -44 83 -54 50z m33 -55
c0 -10 -6 -18 -13 -18 -22 0 -26 11 -15 36 12 26 28 16 28 -18z"/>
<path d="M18400 9452 c0 -77 37 -110 91 -82 16 9 19 21 18 73 l-2 62 -6 -50
c-7 -59 -16 -75 -40 -75 -29 0 -41 22 -41 72 0 26 -4 48 -10 48 -5 0 -10 -21
-10 -48z"/>
<path d="M652 9474 c-44 -31 -65 -101 -42 -145 19 -34 120 -20 120 17 0 12 -5
14 -17 9 -28 -12 -66 -11 -70 2 -2 6 9 14 26 18 61 13 92 54 75 99 -8 21 -62
21 -92 0z m58 -29 c0 -16 -47 -51 -57 -42 -9 10 26 57 42 57 8 0 15 -7 15 -15z"/>
<path d="M806 9474 c-22 -21 -20 -50 5 -91 15 -24 18 -38 11 -45 -13 -13 -32
-2 -32 18 0 9 -6 14 -12 12 -7 -3 -13 -16 -13 -29 0 -18 6 -25 24 -27 70 -10
99 32 61 93 -22 35 -21 65 1 65 6 0 13 -9 16 -20 6 -24 31 -27 39 -5 15 39
-67 63 -100 29z"/>
<path d="M951 9473 c2 -10 -7 -44 -19 -75 -12 -32 -19 -64 -16 -73 9 -23 48
-18 75 11 l24 26 5 -24 c5 -18 13 -23 35 -23 20 0 31 6 33 17 2 13 -1 16 -12
12 -23 -9 -20 22 8 83 13 28 22 54 18 57 -15 16 -34 1 -66 -52 -36 -59 -76
-104 -76 -84 0 6 9 31 20 57 28 65 26 85 -6 85 -18 0 -25 -5 -23 -17z"/>
<path d="M1146 9467 c3 -15 -4 -48 -19 -85 -14 -33 -22 -63 -19 -66 14 -14 33
-3 46 27 19 42 82 114 92 104 4 -4 -2 -28 -14 -52 -40 -83 -17 -122 26 -42 29
55 68 104 77 95 3 -3 -1 -20 -10 -38 -23 -45 -17 -94 14 -98 13 -2 28 2 32 10
13 20 11 28 -6 22 -21 -8 -19 14 5 69 11 25 17 52 14 61 -9 22 -47 20 -70 -5
l-18 -20 -8 20 c-9 25 -35 27 -65 6 -19 -13 -22 -13 -27 0 -3 8 -17 15 -31 15
-22 0 -25 -3 -19 -23z"/>
<path d="M1461 9464 c-71 -59 -60 -154 17 -154 39 0 62 14 62 37 0 10 -5 11
-19 3 -29 -15 -61 -12 -61 5 0 8 5 15 11 15 26 0 81 35 90 57 23 60 -44 85
-100 37z m69 -14 c0 -11 -40 -50 -52 -50 -12 0 -10 17 4 40 13 20 48 28 48 10z"/>
<path d="M1921 9473 c2 -10 -7 -44 -19 -75 -12 -32 -19 -64 -16 -73 9 -23 48
-18 75 11 l24 26 5 -24 c5 -18 13 -23 35 -23 20 0 31 6 33 17 2 13 -1 16 -12
12 -23 -9 -20 22 8 83 13 28 22 54 18 57 -15 16 -34 1 -66 -52 -36 -59 -76
-104 -76 -84 0 6 9 31 20 57 28 65 26 85 -6 85 -18 0 -25 -5 -23 -17z"/>
<path d="M2117 9484 c-3 -3 -3 -12 0 -20 3 -8 -2 -35 -12 -59 -20 -53 -17 -89
9 -93 26 -5 46 16 26 28 -13 8 -12 15 4 57 31 82 32 93 4 93 -14 0 -27 -3 -31
-6z"/>
<path d="M2552 9475 c-45 -32 -69 -124 -40 -153 17 -17 84 -15 102 4 22 21 20
38 -1 29 -10 -4 -30 -10 -45 -13 -45 -7 -34 22 14 38 76 27 91 101 22 108 -16
1 -39 -4 -52 -13z m58 -30 c0 -16 -47 -51 -57 -42 -9 10 26 57 42 57 8 0 15
-7 15 -15z"/>
<path d="M2689 9483 c-1 -5 0 -18 0 -29 1 -12 -7 -46 -17 -77 -11 -31 -17 -58
-14 -61 15 -16 33 -2 52 41 27 62 56 92 81 86 15 -4 19 0 19 21 0 30 -29 36
-51 10 -11 -14 -13 -14 -21 0 -9 16 -47 22 -49 9z"/>
<path d="M15628 9468 c-13 -13 -14 -17 -3 -22 8 -3 15 -24 18 -48 l4 -43 1 47
c1 28 7 48 15 50 10 2 9 7 -3 18 -13 13 -17 13 -32 -2z"/>
<path d="M18272 9470 c-7 -12 -8 -20 -2 -20 5 0 10 -20 10 -45 0 -25 5 -45 10
-45 6 0 10 20 10 44 0 26 5 46 13 49 10 4 10 6 0 6 -7 1 -13 8 -13 16 0 21
-13 19 -28 -5z"/>
<path d="M14232 9454 c-43 -30 -17 -98 36 -92 37 4 38 23 0 23 -17 0 -33 6
-35 13 -3 8 8 12 36 12 45 0 53 16 23 43 -23 21 -32 21 -60 1z m56 -21 c2 -9
-7 -13 -27 -13 -30 0 -39 9 -24 24 11 10 46 3 51 -11z"/>
<path d="M14342 9458 c-20 -20 -13 -39 18 -50 37 -12 34 -34 -4 -30 -18 2 -25
-1 -21 -7 9 -16 51 -13 65 4 15 17 6 33 -26 45 -32 13 -31 34 1 28 28 -6 34 6
9 16 -22 8 -28 8 -42 -6z"/>
<path d="M14590 9461 c-8 -6 -18 -7 -22 -5 -4 3 -7 -19 -7 -48 1 -29 3 -42 6
-28 9 60 14 70 33 70 17 0 20 -7 20 -45 0 -57 18 -59 22 -2 2 35 7 43 26 45
20 3 22 -1 22 -42 0 -25 5 -46 10 -46 6 0 10 20 10 44 0 53 -18 73 -50 56 -16
-9 -25 -9 -33 -1 -13 13 -18 13 -37 2z"/>
<path d="M14758 9459 c-21 -12 -24 -69 -6 -87 15 -15 64 -16 73 -2 4 6 -8 10
-28 10 -22 0 -37 6 -41 15 -4 12 3 15 34 15 33 0 40 3 40 20 0 10 -9 24 -19
30 -24 12 -31 12 -53 -1z m50 -26 c2 -8 -6 -13 -22 -13 -25 0 -33 10 -19 24
10 10 36 3 41 -11z"/>
<path d="M15028 9459 c-21 -12 -24 -69 -6 -87 15 -15 64 -16 73 -2 4 6 -8 10
-28 10 -22 0 -37 6 -41 15 -4 12 3 15 34 15 33 0 40 3 40 20 0 10 -9 24 -19
30 -24 12 -31 12 -53 -1z m50 -26 c2 -8 -6 -13 -22 -13 -25 0 -33 10 -19 24
10 10 36 3 41 -11z"/>
<path d="M15165 9460 c-3 -5 -12 -7 -20 -3 -12 4 -15 -5 -15 -46 0 -62 18 -68
22 -8 2 34 7 42 23 42 16 0 21 -8 23 -42 2 -24 7 -43 12 -43 5 0 10 19 12 43
2 34 7 42 23 42 16 0 21 -8 23 -42 2 -24 7 -43 13 -43 14 0 11 74 -5 96 -13
17 -18 17 -37 6 -15 -10 -24 -11 -32 -3 -14 14 -34 14 -42 1z"/>
<path d="M15343 9463 c-22 -4 -23 -9 -22 -76 1 -40 4 -60 6 -45 4 24 8 27 32
22 54 -11 84 59 39 90 -12 9 -25 15 -28 15 -3 -1 -15 -4 -27 -6z m52 -48 c0
-23 -5 -31 -21 -33 -30 -4 -48 21 -34 48 18 33 55 23 55 -15z"/>
<path d="M15506 9455 c-19 -20 -21 -68 -3 -84 8 -6 30 -10 50 -9 l37 1 0 49
c0 32 -4 48 -12 48 -7 0 -22 3 -34 6 -13 3 -28 -1 -38 -11z m59 -40 c0 -25 -4
-30 -25 -30 -16 0 -26 6 -28 18 -6 30 6 49 30 45 18 -2 23 -9 23 -33z"/>
<path d="M15710 9450 c-24 -24 -25 -38 -4 -68 16 -23 49 -28 74 -12 11 7 6 10
-21 10 -23 0 -39 6 -43 15 -4 12 3 15 34 15 33 0 40 3 40 20 0 18 -26 40 -49
40 -6 0 -20 -9 -31 -20z m58 -17 c2 -9 -7 -13 -28 -13 -28 0 -31 2 -20 15 15
18 41 16 48 -2z"/>
<path d="M15833 9463 c-22 -8 -14 -43 12 -55 31 -14 27 -34 -6 -30 -18 3 -21
1 -13 -8 19 -19 59 -8 62 18 3 18 -3 25 -27 33 -33 12 -32 34 0 26 23 -6 35 9
13 17 -18 7 -23 7 -41 -1z"/>
<path d="M16717 9452 c-34 -37 -11 -92 38 -92 37 0 39 18 3 22 -49 5 -48 28 1
28 45 0 53 16 23 43 -24 22 -45 21 -65 -1z m61 -19 c2 -9 -7 -13 -27 -13 -30
0 -39 9 -24 24 11 10 46 3 51 -11z"/>
<path d="M16832 9458 c-20 -20 -13 -39 18 -50 37 -12 34 -34 -4 -30 -18 2 -25
-1 -21 -7 9 -16 51 -13 65 4 15 17 6 33 -26 45 -32 13 -31 34 1 28 28 -6 34 6
9 16 -22 8 -28 8 -42 -6z"/>
<path d="M17075 9460 c-3 -5 -12 -7 -20 -3 -12 4 -15 -5 -15 -46 0 -62 18 -68
22 -8 2 34 7 42 23 42 16 0 21 -8 23 -42 2 -24 7 -43 12 -43 5 0 10 19 12 43
2 34 7 42 23 42 16 0 21 -8 23 -42 2 -24 7 -43 13 -43 14 0 11 74 -5 96 -13
17 -18 17 -37 6 -15 -10 -24 -11 -32 -3 -14 14 -34 14 -42 1z"/>
<path d="M17240 9450 c-24 -24 -25 -38 -4 -68 16 -23 49 -28 74 -12 11 7 6 10
-21 10 -23 0 -39 6 -43 15 -4 12 3 15 34 15 33 0 40 3 40 20 0 18 -26 40 -49
40 -6 0 -20 -9 -31 -20z m58 -17 c2 -9 -7 -13 -28 -13 -28 0 -31 2 -20 15 15
18 41 16 48 -2z"/>
<path d="M17363 9463 c-22 -8 -14 -43 12 -55 31 -14 27 -34 -6 -30 -18 3 -21
1 -13 -8 19 -19 59 -8 62 18 3 18 -3 25 -27 33 -33 12 -32 34 0 26 23 -6 35 9
13 17 -18 7 -23 7 -41 -1z"/>
<path d="M18030 9450 c-11 -11 -20 -26 -20 -33 0 -24 31 -57 54 -57 26 0 56
28 56 53 0 21 -35 57 -55 57 -8 0 -24 -9 -35 -20z m63 -21 c15 -24 1 -49 -27
-49 -29 0 -44 33 -25 56 15 18 38 15 52 -7z"/>
<path d="M18563 9463 c-22 -8 -14 -43 12 -55 31 -14 27 -34 -6 -30 -18 3 -21
1 -13 -8 19 -19 59 -8 62 18 3 18 -3 25 -27 33 -33 12 -32 34 0 26 23 -6 35 9
13 17 -18 7 -23 7 -41 -1z"/>
<path d="M14430 9421 c0 -46 14 -60 58 -59 32 1 32 2 32 50 0 26 -4 48 -10 48
-5 0 -10 -18 -10 -39 0 -24 -5 -41 -14 -44 -21 -8 -36 13 -36 50 0 18 -4 33
-10 33 -5 0 -10 -17 -10 -39z"/>
<path d="M16396 9438 c3 -13 13 -36 21 -51 8 -15 11 -37 8 -47 -4 -11 -3 -20
2 -20 9 0 65 132 58 138 -9 9 -24 -10 -30 -38 -9 -40 -21 -38 -35 5 -13 38
-36 50 -24 13z"/>
<path d="M16920 9421 c0 -46 14 -60 58 -59 32 1 32 2 32 50 0 26 -4 48 -10 48
-5 0 -10 -18 -10 -39 0 -22 -5 -41 -12 -43 -26 -10 -38 4 -38 43 0 21 -4 39
-10 39 -5 0 -10 -17 -10 -39z"/>
<path d="M18140 9421 c0 -46 14 -60 58 -59 32 1 32 2 32 50 0 26 -4 48 -10 48
-5 0 -10 -18 -10 -39 0 -24 -5 -41 -14 -44 -21 -8 -36 13 -36 50 0 18 -4 33
-10 33 -5 0 -10 -17 -10 -39z"/>
<path d="M2380 8475 c0 -108 1 -115 20 -115 19 0 20 7 20 115 0 108 -1 115
-20 115 -19 0 -20 -7 -20 -115z"/>
<path d="M1490 8565 c0 -10 11 -15 35 -15 l35 0 0 -95 c0 -88 1 -95 20 -95 19
0 20 7 20 95 l0 95 35 0 c24 0 35 5 35 15 0 12 -17 15 -90 15 -73 0 -90 -3
-90 -15z"/>
<path d="M2680 8546 c0 -13 -6 -27 -12 -30 -10 -5 -10 -7 0 -12 7 -4 12 -27
12 -63 0 -66 11 -81 58 -81 38 0 41 23 4 28 -20 3 -22 10 -22 58 0 47 2 54 20
54 11 0 20 5 20 10 0 6 -9 10 -20 10 -15 0 -20 7 -20 25 0 18 -5 25 -20 25
-14 0 -20 -7 -20 -24z"/>
<path d="M1685 8505 c-32 -31 -34 -91 -5 -123 26 -28 80 -29 103 -4 22 24 21
32 -3 32 -11 0 -20 -5 -20 -11 0 -6 -12 -9 -27 -7 -20 2 -29 9 -31 26 -3 20 0
22 47 22 47 0 51 2 51 24 0 28 -42 66 -72 66 -10 0 -30 -11 -43 -25z m74 -24
c13 -23 5 -31 -31 -31 -30 0 -37 17 -16 38 17 17 36 15 47 -7z"/>
<path d="M1912 8514 c-12 -8 -22 -10 -22 -5 0 6 -9 11 -20 11 -18 0 -20 -7
-20 -80 0 -73 2 -80 20 -80 17 0 20 7 20 46 0 57 14 84 44 84 29 0 36 -16 36
-81 0 -37 4 -49 15 -49 11 0 15 12 15 46 0 57 14 84 44 84 29 0 36 -16 36 -81
0 -37 4 -49 15 -49 12 0 15 14 15 70 0 64 -2 71 -26 87 -25 16 -28 16 -56 0
-27 -15 -32 -15 -51 -2 -27 19 -37 19 -65 -1z"/>
<path d="M2230 8520 c-8 -5 -25 -7 -37 -3 -23 5 -23 5 -23 -116 0 -114 1 -121
20 -121 17 0 20 7 20 43 l0 43 39 -4 c32 -3 42 1 60 23 35 45 22 112 -26 134
-29 13 -34 13 -53 1z m49 -44 c31 -37 -9 -103 -46 -80 -21 13 -27 36 -19 70 7
28 46 33 65 10z"/>
<path d="M2503 8520 c-26 -10 -31 -40 -8 -40 8 0 24 5 34 12 24 15 51 4 51
-22 0 -17 -6 -20 -43 -20 -47 0 -67 -13 -67 -45 0 -12 5 -26 12 -33 15 -15 70
-16 85 -1 8 8 13 8 17 0 4 -6 14 -11 22 -11 11 0 14 15 14 63 0 68 -4 78 -37
96 -25 13 -49 13 -80 1z m77 -105 c0 -18 -34 -37 -54 -29 -16 6 -21 26 -9 37
13 14 63 7 63 -8z"/>
<path d="M2825 8505 c-32 -31 -34 -91 -5 -123 26 -28 80 -29 103 -4 22 24 21
32 -3 32 -11 0 -20 -5 -20 -11 0 -6 -12 -9 -27 -7 -20 2 -29 9 -31 26 -3 20 0
22 47 22 47 0 51 2 51 24 0 28 -42 66 -72 66 -10 0 -30 -11 -43 -25z m74 -24
c13 -23 5 -31 -31 -31 -30 0 -37 17 -16 38 17 17 36 15 47 -7z"/>
<path d="M3012 8520 c-46 -19 -35 -73 17 -85 42 -9 58 -31 33 -44 -14 -8 -24
-6 -38 4 -25 19 -44 19 -44 0 0 -35 95 -49 123 -17 10 10 17 23 17 29 0 15
-31 39 -64 50 -17 5 -32 15 -34 21 -6 19 27 26 54 12 33 -18 44 -3 15 21 -25
21 -44 23 -79 9z"/>
<path d="M1683 8025 c0 -33 2 -45 4 -27 2 18 2 45 0 60 -2 15 -4 0 -4 -33z"/>
<path d="M2493 8025 c0 -33 2 -45 4 -27 2 18 2 45 0 60 -2 15 -4 0 -4 -33z"/>
<path d="M3718 8058 c-2 -13 -1 -39 3 -58 5 -30 7 -26 8 23 1 58 -4 74 -11 35z"/>
<path d="M1517 8063 c-14 -14 -6 -34 18 -45 14 -6 25 -17 25 -25 0 -16 -31
-17 -50 0 -12 10 -12 9 0 -6 16 -22 54 -18 58 5 2 11 -6 22 -22 29 -34 16 -35
43 -1 37 13 -3 22 -1 19 3 -6 11 -38 12 -47 2z"/>
<path d="M1892 8020 c2 -34 7 -45 21 -46 13 -2 14 -1 2 3 -12 3 -16 15 -13 38
1 19 -1 37 -5 42 -5 4 -7 -12 -5 -37z"/>
<path d="M2112 8020 c2 -34 7 -45 21 -46 13 -2 14 -1 2 3 -12 3 -16 15 -13 38
1 19 -1 37 -5 42 -5 4 -7 -12 -5 -37z"/>
<path d="M2622 8020 c2 -34 7 -45 21 -46 13 -2 14 -1 2 3 -12 3 -16 15 -13 38
1 19 -1 37 -5 42 -5 4 -7 -12 -5 -37z"/>
<path d="M2800 8056 c-3 -3 -4 -23 -2 -45 3 -30 9 -41 21 -41 11 0 12 3 4 8
-6 4 -13 25 -15 46 -2 21 -5 35 -8 32z"/>
<path d="M3035 8050 c-4 -6 -10 -8 -15 -5 -18 11 -40 -8 -39 -34 1 -20 2 -22
6 -6 7 31 21 41 36 26 10 -10 8 -15 -7 -27 -11 -8 -15 -14 -9 -14 14 0 37 29
30 37 -4 3 -2 12 4 20 6 7 9 13 6 13 -3 0 -9 -5 -12 -10z"/>
<path d="M3152 8020 c2 -34 7 -45 21 -46 13 -2 14 -1 2 3 -12 3 -16 15 -13 38
1 19 -1 37 -5 42 -5 4 -7 -12 -5 -37z"/>
<path d="M3332 8020 c2 -34 7 -45 21 -46 13 -2 14 -1 2 3 -12 3 -16 15 -13 38
1 19 -1 37 -5 42 -5 4 -7 -12 -5 -37z"/>
<path d="M3531 8025 c1 -40 1 -40 10 -10 5 18 5 33 -1 39 -7 7 -10 -4 -9 -29z"/>
<path d="M1612 8041 c-8 -5 -12 -21 -10 -37 2 -21 9 -30 26 -32 12 -2 22 1 22
6 0 6 -9 8 -20 5 -16 -4 -20 0 -20 19 0 13 5 29 12 36 14 14 9 15 -10 3z"/>
<path d="M1761 8033 c7 -12 15 -20 18 -17 3 2 -3 12 -13 22 -17 16 -18 16 -5
-5z"/>
<path d="M1830 8046 c0 -2 7 -9 15 -16 9 -7 15 -8 15 -2 0 5 -7 12 -15 16 -8
3 -15 4 -15 2z"/>
<path d="M1996 8041 c-3 -5 2 -8 11 -7 12 1 18 -8 20 -28 3 -42 13 -45 13 -4
0 23 -5 38 -16 42 -20 8 -22 8 -28 -3z"/>
<path d="M2292 8035 c14 -15 20 -16 33 -5 20 16 32 5 38 -35 l4 -30 2 31 c1
36 -23 64 -41 46 -8 -8 -17 -8 -32 0 -20 10 -20 9 -4 -7z"/>
<path d="M2413 8043 c-9 -3 -13 -24 -12 -61 1 -31 4 -47 6 -35 3 13 13 23 26
25 25 3 35 41 17 64 -13 15 -17 16 -37 7z m35 -36 c3 -22 -1 -27 -17 -27 -15
0 -21 6 -21 23 0 46 33 49 38 4z"/>
<path d="M2540 8040 c-12 -8 -9 -10 10 -8 21 3 25 -1 25 -22 0 -16 -7 -26 -19
-28 -14 -3 -17 0 -13 12 4 9 2 16 -3 16 -6 0 -10 -9 -10 -20 0 -16 6 -20 30
-18 25 2 30 7 30 28 0 24 -16 50 -29 50 -4 0 -13 -5 -21 -10z"/>
<path d="M2894 8031 c21 -24 14 -54 -11 -49 -12 2 -18 13 -18 31 1 16 -3 23
-8 18 -16 -16 1 -61 22 -61 41 0 52 60 14 75 -15 5 -14 3 1 -14z"/>
<path d="M3251 8036 c-8 -10 -9 -16 -1 -21 6 -4 9 -1 8 7 -2 8 6 12 22 10 19
-2 22 0 10 8 -20 13 -25 12 -39 -4z"/>
<path d="M3426 8035 c16 -13 17 -16 4 -25 -11 -7 -11 -10 -2 -10 7 0 10 -4 7
-10 -10 -16 -38 -12 -31 5 3 8 1 15 -4 15 -6 0 -10 -9 -10 -20 0 -16 6 -20 30
-18 25 2 30 7 30 28 0 26 -16 50 -34 50 -5 0 -1 -7 10 -15z"/>
<path d="M3602 8041 c-8 -5 -12 -21 -10 -37 2 -21 9 -30 26 -32 12 -2 22 1 22
6 0 6 -9 8 -20 5 -16 -4 -20 0 -20 19 0 13 5 29 12 36 14 14 9 15 -10 3z"/>
<path d="M3680 8036 c-15 -20 -9 -61 10 -62 9 0 10 1 3 3 -16 6 -17 45 -1 61
7 7 9 12 6 12 -3 0 -11 -7 -18 -14z"/>
<path d="M1725 8029 c-12 -19 4 -59 25 -59 10 0 21 4 24 8 3 5 -5 8 -17 8 -18
-1 -22 4 -22 27 1 30 -1 32 -10 16z"/>
<path d="M1804 8025 c-13 -32 25 -70 47 -48 6 6 2 9 -13 9 -19 -1 -23 4 -23
27 1 30 -3 34 -11 12z"/>
<path d="M2165 8020 c-10 -33 32 -69 49 -42 3 5 -5 8 -17 8 -18 -1 -22 4 -20
27 2 32 -3 35 -12 7z"/>
<path d="M2211 8024 c0 -11 3 -14 6 -6 3 7 2 16 -1 19 -3 4 -6 -2 -5 -13z"/>
<path d="M2250 8005 c0 -19 2 -35 4 -35 2 0 6 16 8 35 2 19 0 35 -4 35 -4 0
-8 -16 -8 -35z"/>
<path d="M2675 8020 c-10 -33 32 -69 49 -42 3 5 -5 8 -17 8 -18 -1 -22 4 -20
27 2 32 -3 35 -12 7z"/>
<path d="M2721 8024 c0 -11 3 -14 6 -6 3 7 2 16 -1 19 -3 4 -6 -2 -5 -13z"/>
<path d="M3065 8020 c-10 -33 32 -69 49 -42 3 5 -5 8 -17 8 -18 -1 -22 4 -20
27 2 32 -3 35 -12 7z"/>
<path d="M3111 8024 c0 -11 3 -14 6 -6 3 7 2 16 -1 19 -3 4 -6 -2 -5 -13z"/>
<path d="M3480 8005 c0 -19 2 -35 4 -35 2 0 6 16 8 35 2 19 0 35 -4 35 -4 0
-8 -16 -8 -35z"/>
<path d="M1985 8000 c-9 -15 4 -30 23 -29 15 1 14 2 -1 6 -11 3 -16 11 -13 19
6 16 0 19 -9 4z"/>
<path d="M3280 8003 c21 -10 9 -25 -16 -20 -16 3 -22 1 -16 -5 14 -14 47 -6
47 11 0 8 -6 15 -13 17 -7 1 -8 0 -2 -3z"/>
<path d="M2973 7964 c-6 -17 12 -34 37 -33 8 0 5 4 -7 9 -33 13 -28 30 8 30
26 0 30 -3 24 -17 -5 -14 -3 -15 6 -6 17 17 2 33 -32 33 -18 0 -32 -6 -36 -16z"/>
<path d="M3548 7973 c7 -3 16 -2 19 1 4 3 -2 6 -13 5 -11 0 -14 -3 -6 -6z"/>
<path d="M4660 7345 l0 -225 1405 0 1405 0 0 225 0 225 -1405 0 -1405 0 0
-225z m323 132 c68 -52 83 -147 37 -222 -26 -41 -39 -43 -63 -9 -17 23 -17 27
-3 48 14 22 14 53 0 123 -6 33 -65 49 -108 29 -19 -9 -37 -23 -40 -32 -10 -27
-7 -83 8 -118 13 -32 13 -35 -10 -57 -20 -19 -26 -20 -39 -9 -44 36 -59 133
-31 188 18 34 53 68 86 81 44 19 124 8 163 -22z m2139 19 c22 -1 43 -8 47 -15
7 -11 10 -11 14 0 4 10 6 9 6 -3 1 -10 -6 -18 -14 -18 -7 0 -19 8 -25 18 -10
14 -11 14 -6 0 7 -25 -3 -29 -40 -13 -19 8 -34 10 -34 4 0 -5 -7 -9 -15 -9 -8
0 -15 6 -15 13 0 8 -4 7 -10 -3 -8 -13 -10 -12 -11 5 -1 17 -2 17 -6 3 -2 -10
-9 -18 -14 -18 -5 0 -10 8 -10 18 -1 16 -2 15 -6 -1 -8 -31 -73 -15 -73 18 0
6 5 3 10 -5 6 -9 10 -10 10 -3 0 7 16 10 48 8 26 -1 56 1 67 5 11 4 24 5 29 2
5 -2 26 -5 48 -6z m98 -1 c-7 -9 -10 -18 -7 -21 8 -8 48 6 43 14 -2 4 9 7 25
7 16 1 29 -3 29 -8 0 -4 6 -5 13 0 13 8 37 13 37 8 0 -35 -69 -52 -71 -17 0
14 -2 14 -7 2 -8 -18 -67 -26 -77 -10 -6 10 11 40 22 40 3 0 0 -7 -7 -15z
m-570 -20 c0 -17 -2 -17 -10 -5 -9 13 -11 13 -20 0 -8 -12 -10 -12 -10 5 0 14
6 21 20 21 14 0 20 -7 20 -21z m78 2 c4 -19 -32 -24 -43 -7 -4 6 -11 8 -16 5
-5 -4 -9 0 -9 9 0 21 64 15 68 -7z m117 6 c11 1 23 7 27 12 4 6 8 0 8 -12 0
-20 -5 -23 -35 -23 -30 0 -35 3 -35 23 0 13 3 17 8 10 4 -6 16 -11 27 -10z
m-60 1 c13 -5 14 -8 3 -15 -20 -13 -35 -11 -42 6 -6 16 10 20 39 9z m-1603
-56 l15 -22 12 22 c17 31 31 27 31 -8 0 -28 2 -29 20 -18 18 12 19 13 2 20
-13 6 -11 7 8 5 19 -1 26 -8 28 -29 3 -27 1 -28 -37 -26 -34 1 -41 5 -41 22
-1 20 -1 20 -11 3 -8 -14 -14 -16 -25 -6 -11 9 -14 8 -14 -5 0 -9 -4 -16 -10
-16 -5 0 -10 18 -10 40 0 45 10 51 32 18z m381 -23 c14 10 15 14 5 19 -7 3 -4
5 7 3 14 -1 21 -11 23 -31 3 -27 2 -28 -30 -23 -18 2 -41 1 -50 -4 -10 -5 -19
-5 -22 0 -3 5 3 11 14 14 15 4 20 14 21 39 l2 33 6 -32 c5 -28 8 -30 24 -18z
m1060 10 c-7 -21 -13 -19 -13 6 0 11 4 18 10 14 5 -3 7 -12 3 -20z m162 4 c5
-6 4 -9 -4 -9 -7 0 -10 -3 -8 -7 3 -5 -7 -8 -23 -8 -20 0 -26 4 -22 15 2 8 -2
6 -11 -5 -13 -16 -18 -18 -28 -7 -15 14 -33 16 -25 3 4 -5 -2 -8 -11 -7 -27 4
-22 31 5 30 12 -1 22 2 22 6 0 10 92 0 105 -11z m-1420 1 c4 -6 13 -5 25 2 15
10 22 10 32 0 8 -8 15 -9 25 -1 10 9 13 3 13 -30 0 -29 -4 -41 -15 -41 -9 0
-12 6 -8 16 5 14 3 15 -14 6 -11 -6 -25 -7 -33 -2 -7 4 -19 6 -27 3 -9 -3 -13
3 -13 21 0 34 -16 33 -28 -1 l-10 -28 -1 33 c-1 28 2 32 23 32 14 0 28 -4 31
-10z m281 -5 c12 16 14 17 14 2 0 -20 -21 -67 -29 -67 -4 0 -7 8 -8 18 -1 9
-4 28 -8 42 -6 23 -5 23 6 6 12 -19 12 -19 25 -1z m72 -18 c3 -23 0 -27 -23
-27 -25 0 -28 11 -16 58 1 2 9 2 19 0 10 -2 18 -14 20 -31z m44 21 c-7 -7 -12
-20 -12 -30 0 -10 -4 -18 -10 -18 -5 0 -10 14 -10 30 0 24 4 30 22 30 17 0 19
-3 10 -12z m59 -18 l7 -25 1 27 c1 26 4 27 46 26 28 0 48 -6 53 -15 5 -9 15
-11 27 -7 18 7 18 8 -1 16 -16 6 -15 7 6 5 19 -1 26 -8 28 -29 3 -27 1 -28
-37 -26 -36 1 -41 4 -41 25 0 14 -4 21 -10 18 -5 -3 -10 -15 -10 -26 0 -10 -4
-19 -10 -19 -5 0 -10 12 -10 26 0 14 -4 23 -10 19 -5 -3 -10 -15 -10 -26 0
-16 -7 -19 -40 -19 -30 0 -40 4 -40 16 0 9 10 18 22 22 21 5 21 6 2 14 -19 8
-19 8 1 5 11 -1 22 -13 26 -27z m237 -2 c2 -16 -1 -28 -7 -28 -6 0 -11 12 -11
26 0 14 -4 23 -10 19 -5 -3 -10 -15 -10 -26 0 -10 -4 -19 -10 -19 -5 0 -10 14
-10 31 0 27 3 30 28 27 21 -2 28 -9 30 -30z m-1118 -30 c0 -8 -14 -13 -38 -12
-62 1 -73 4 -67 14 9 15 105 13 105 -2z m1723 -10 c9 2 17 -2 17 -7 0 -6 5
-11 10 -11 6 0 10 7 10 15 0 8 5 15 10 15 6 0 10 -9 10 -20 0 -15 -7 -20 -25
-20 -14 0 -25 6 -25 13 0 8 -3 8 -8 1 -4 -5 -16 -10 -28 -10 -15 0 -20 5 -16
18 2 10 9 15 16 11 6 -4 19 -6 29 -5z m157 2 c5 8 11 8 22 -3 9 -10 20 -12 29
-7 8 6 16 4 21 -3 5 -8 8 -5 8 8 0 13 3 16 8 8 8 -13 44 -13 54 1 8 11 38 -11
38 -28 0 -6 -5 -4 -10 4 -7 11 -10 12 -10 2 0 -10 -21 -13 -90 -11 -84 3 -90
4 -89 23 0 13 3 16 6 7 4 -10 7 -10 13 -1z m-70 -15 c0 -8 -4 -15 -10 -15 -5
0 -10 7 -10 15 0 8 5 15 10 15 6 0 10 -7 10 -15z m29 -14 c-15 -5 -22 6 -14
19 6 9 10 9 16 -1 5 -8 4 -15 -2 -18z m-1863 -21 c13 0 24 -4 24 -9 0 -4 -25
-8 -55 -8 -31 0 -58 4 -61 8 -3 5 6 9 20 9 14 0 28 5 32 12 6 9 9 9 12 0 2 -7
15 -12 28 -12z m241 -47 c-3 -10 -5 -4 -5 12 0 17 2 24 5 18 2 -7 2 -21 0 -30z
m243 12 c0 -18 -5 -25 -19 -25 -11 0 -22 6 -24 13 -4 9 -8 9 -15 -2 -7 -9 -12
-10 -16 -2 -4 6 -13 11 -19 11 -7 0 -6 -4 3 -10 11 -7 7 -10 -17 -10 -20 0
-33 5 -34 13 0 10 -2 10 -6 0 -2 -7 -16 -13 -29 -13 -13 0 -24 6 -24 13 0 8
-4 7 -10 -3 -8 -13 -10 -12 -10 3 0 9 7 17 15 17 8 0 15 -4 15 -10 0 -5 5 -10
11 -10 5 0 7 5 4 10 -7 11 19 14 108 10 36 -1 57 2 57 9 0 6 2 11 5 11 3 0 5
-11 5 -25z m1240 5 c0 -11 -7 -20 -15 -20 -8 0 -15 9 -15 20 0 11 7 20 15 20
8 0 15 -9 15 -20z m195 9 c43 1 56 -1 45 -9 -13 -9 -13 -10 0 -11 10 0 8 -3
-5 -9 -29 -13 -35 -12 -29 5 8 20 -6 19 -21 -1 -9 -13 -16 -14 -31 -7 -10 6
-30 9 -44 7 -19 -3 -21 -2 -10 5 8 6 11 13 8 16 -4 4 -12 -2 -19 -13 -10 -16
-17 -18 -31 -11 -20 11 -24 29 -7 29 5 0 7 -5 3 -12 -4 -6 3 -4 17 5 14 10 32
14 44 10 11 -3 47 -5 80 -4z m-1408 -31 c-3 -7 -5 -2 -5 12 0 14 2 19 5 13 2
-7 2 -19 0 -25z m83 8 c0 -6 4 -5 9 3 12 19 100 18 112 -1 7 -10 9 -10 9 0 0
7 14 12 35 12 24 0 35 -5 35 -15 0 -11 -12 -15 -42 -16 -24 -1 -46 -1 -49 -1
-3 1 -29 2 -58 3 -29 2 -54 6 -57 11 -3 4 -10 8 -15 8 -6 0 -7 -4 -4 -10 3 -6
-5 -10 -18 -10 -19 0 -24 4 -20 18 3 14 12 17 34 14 16 -2 29 -9 29 -16z
m1160 10 c0 -8 -4 -17 -8 -20 -4 -2 -8 4 -8 15 0 10 4 19 8 19 4 0 8 -6 8 -14z
m-1773 -2 c-3 -3 -12 -4 -19 -1 -8 3 -5 6 6 6 11 1 17 -2 13 -5z m2403 -58 c0
-25 -13 -27 -67 -11 -16 5 -25 3 -29 -9 -6 -17 -34 -23 -34 -7 0 5 -9 7 -21 4
-16 -5 -20 -2 -18 12 3 14 15 18 54 20 28 1 56 -2 63 -7 8 -7 12 -7 12 0 0 6
7 9 15 6 8 -4 15 -1 15 5 0 6 2 11 5 11 3 0 5 -11 5 -24z m-2387 -7 c-8 -29
-33 -36 -49 -14 -21 28 -17 35 20 35 30 0 33 -3 29 -21z m1745 9 c7 -7 12 -8
12 -2 0 10 26 10 128 1 23 -2 42 0 42 5 0 5 9 4 19 -2 23 -12 34 -13 27 -2 -2
4 22 7 56 7 39 -1 63 -7 69 -16 7 -12 12 -7 11 11 0 5 30 5 86 1 6 -1 12 -9
11 -18 0 -13 -2 -14 -6 -4 -5 11 -7 11 -14 0 -7 -11 -9 -9 -9 6 0 15 -3 16 -9
7 -4 -7 -24 -15 -44 -17 -29 -2 -37 1 -38 13 -1 15 -2 15 -6 -1 -3 -13 -11
-16 -35 -12 -17 3 -35 8 -39 10 -4 3 -9 0 -11 -6 -3 -9 -9 -9 -26 0 -13 7 -22
8 -22 2 0 -5 -9 -8 -20 -6 -11 2 -20 -2 -21 -8 0 -7 -4 -3 -9 8 -5 11 -9 15
-9 10 -1 -6 -14 -12 -31 -13 -23 -2 -30 2 -31 15 0 16 -2 15 -9 -2 -7 -19 -8
-19 -15 -1 -7 16 -9 16 -17 2 -11 -20 -22 -20 -42 0 -12 12 -16 12 -16 2 0
-10 -3 -9 -10 2 -8 13 -10 12 -10 -4 0 -11 -3 -17 -6 -13 -10 10 4 37 19 37 7
0 18 -5 25 -12z m745 -4 c-5 -13 -7 -13 -14 -2 -7 10 -9 8 -9 -7 -1 -18 -2
-18 -13 -4 -11 14 -14 14 -26 2 -9 -10 -17 -11 -23 -5 -17 17 -2 27 46 29 37
2 44 0 39 -13z"/>
<path d="M7105 7480 c-3 -5 -1 -10 4 -10 6 0 11 5 11 10 0 6 -2 10 -4 10 -3 0
-8 -4 -11 -10z"/>
<path d="M5265 7390 c-3 -5 -1 -10 4 -10 6 0 11 5 11 10 0 6 -2 10 -4 10 -3 0
-8 -4 -11 -10z"/>
<path d="M5565 7390 c-3 -5 1 -10 10 -10 9 0 13 5 10 10 -3 6 -8 10 -10 10 -2
0 -7 -4 -10 -10z"/>
<path d="M5396 7413 c-12 -12 -6 -33 9 -33 8 0 15 6 15 14 0 17 -14 28 -24 19z"/>
<path d="M5685 7390 c-3 -5 1 -10 10 -10 9 0 13 5 10 10 -3 6 -8 10 -10 10 -2
0 -7 -4 -10 -10z"/>
<path d="M5785 7390 c-3 -5 1 -10 10 -10 9 0 13 5 10 10 -3 6 -8 10 -10 10 -2
0 -7 -4 -10 -10z"/>
<path d="M5955 7390 c-3 -5 1 -10 10 -10 9 0 13 5 10 10 -3 6 -8 10 -10 10 -2
0 -7 -4 -10 -10z"/>
<path d="M7181 7204 c0 -11 3 -14 6 -6 3 7 2 16 -1 19 -3 4 -6 -2 -5 -13z"/>
<path d="M7830 7065 l0 -495 1410 0 1410 0 0 495 0 495 -1410 0 -1410 0 0
-495z m1490 416 c38 -20 80 -89 80 -130 0 -30 -32 -105 -49 -116 -17 -10 -60
39 -50 57 13 24 18 99 7 123 -12 27 -67 41 -97 26 -10 -6 -21 -8 -24 -4 -4 3
-12 -7 -18 -23 -8 -21 -8 -43 0 -82 9 -45 8 -58 -6 -78 -21 -33 -33 -27 -60
26 -29 56 -29 86 0 140 27 52 75 80 137 80 25 0 61 -8 80 -19z m-26 -110 c7
-11 -44 -19 -85 -13 -22 3 -27 7 -18 13 18 11 96 11 103 0z m-12 -55 c35 -1 2
-14 -44 -18 -34 -2 -49 1 -53 11 -3 8 0 11 8 8 8 -3 20 -1 28 4 8 5 21 6 29 2
8 -3 23 -6 32 -7z m-24 -33 c-10 -2 -26 -2 -35 0 -10 3 -2 5 17 5 19 0 27 -2
18 -5z m5 -63 c-7 -26 -39 -26 -46 -1 -3 15 1 21 17 23 29 5 35 1 29 -22z
m-414 -153 c12 26 14 27 26 9 11 -14 26 -18 69 -17 l56 0 -1 -32 c-1 -23 -3
-26 -6 -9 -5 27 -23 29 -30 2 -4 -17 -14 -20 -54 -20 -44 0 -49 2 -49 22 0 21
0 21 -15 2 -13 -16 -16 -17 -25 -4 -8 13 -10 12 -10 -3 0 -23 -24 -17 -28 7
-2 10 -1 30 3 44 l7 27 22 -28 22 -28 13 28z m251 13 c0 -5 -4 -10 -10 -10 -5
0 -10 5 -10 10 0 6 5 10 10 10 6 0 10 -4 10 -10z m81 -28 c1 -17 3 -21 6 -9 6
23 71 24 80 1 5 -15 7 -15 15 0 6 10 22 16 43 16 32 0 35 -2 35 -31 0 -27 -3
-30 -27 -27 -21 2 -28 8 -26 23 1 20 1 20 -13 1 -8 -11 -14 -26 -14 -33 0 -7
-7 -13 -15 -13 -8 0 -12 6 -9 14 3 8 1 23 -5 33 -10 17 -10 16 -11 -4 0 -20
-5 -22 -55 -22 -30 1 -55 5 -55 10 0 5 7 9 15 9 11 0 15 11 15 36 0 41 19 37
21 -4z m-83 -31 c-2 -27 -8 -36 -23 -38 -11 -2 -14 0 -7 3 23 11 12 21 -18 16
-21 -3 -32 0 -36 12 -12 31 3 46 46 44 41 -1 41 -2 38 -37z m362 8 c0 -27 -3
-30 -27 -27 -23 2 -28 8 -26 26 3 28 -14 20 -27 -12 -8 -18 -9 -17 -9 12 -1
31 0 32 44 32 44 0 45 -1 45 -31z m106 14 c13 -17 13 -17 14 0 0 11 8 17 25
17 21 0 25 -5 25 -30 0 -28 -2 -30 -40 -30 -33 0 -40 3 -40 20 0 11 -4 20 -10
20 -5 0 -10 -9 -10 -20 0 -11 -4 -20 -10 -20 -5 0 -10 9 -10 20 0 11 -4 20
-10 20 -5 0 -10 -9 -10 -20 0 -11 -4 -20 -10 -20 -5 0 -10 14 -10 30 0 29 2
30 41 30 28 0 46 -6 55 -17z m132 -15 c2 -20 -1 -28 -12 -28 -9 0 -16 9 -16
20 0 27 -18 25 -23 -2 -3 -16 -5 -13 -6 10 -1 31 1 33 27 30 21 -2 28 -9 30
-30z m-708 -97 c0 -5 -6 -12 -12 -14 -7 -3 1 -4 17 -2 17 2 47 6 68 9 20 3 37
2 37 -2 0 -12 94 -1 102 12 4 6 8 -4 8 -21 0 -29 -3 -33 -25 -33 -14 0 -25 5
-25 11 0 8 -4 8 -12 1 -17 -13 -71 -12 -80 2 -6 8 -8 7 -8 -1 0 -7 -11 -13
-25 -13 -14 0 -25 6 -26 13 0 8 -2 8 -6 -2 -5 -11 -7 -11 -15 0 -7 11 -11 11
-15 2 -2 -7 -9 -13 -14 -13 -10 0 -12 43 -2 53 10 10 33 8 33 -2z m276 -1 c5
-5 33 -11 62 -13 41 -2 52 1 53 13 0 10 2 11 6 3 2 -7 20 -13 39 -13 25 0 33
-4 28 -12 -6 -10 -4 -10 7 0 7 6 25 12 40 12 22 0 26 -4 22 -21 -4 -15 -12
-20 -33 -17 -15 1 -35 -4 -44 -11 -10 -9 -16 -10 -16 -2 0 6 -11 11 -25 11
-14 0 -25 6 -25 13 0 9 -2 9 -8 0 -5 -8 -32 -12 -75 -12 -67 1 -67 1 -67 30 0
29 17 38 36 19z m-771 -180 c4 6 15 8 26 5 11 -4 44 -6 75 -6 51 0 55 -2 52
-22 -3 -21 -25 -23 -190 -16 -14 0 -15 4 -6 25 8 17 14 21 24 13 8 -7 14 -7
19 1z m323 -3 c12 1 22 -2 22 -8 0 -5 5 -7 11 -4 6 4 28 8 50 10 36 3 40 1 37
-18 -4 -26 -50 -36 -74 -16 -13 10 -17 10 -24 0 -4 -8 -16 -11 -28 -7 -11 4
-50 7 -86 8 -58 1 -66 4 -66 21 0 11 5 17 13 14 6 -2 21 -1 31 3 11 3 36 4 56
0 20 -4 46 -5 58 -3z m214 -1 c3 3 43 4 89 4 46 -1 94 -2 107 -2 18 0 22 -5
20 -22 -2 -13 -10 -21 -23 -21 -11 0 -26 -4 -32 -8 -8 -5 -13 -4 -13 3 0 6 -4
9 -9 5 -6 -3 -16 1 -23 8 -11 12 -15 12 -25 -2 -11 -14 -12 -14 -13 4 0 15 -2
17 -9 7 -12 -20 -119 -21 -131 -2 -14 22 -12 33 5 26 8 -3 15 -1 15 5 0 6 6 6
19 0 10 -6 21 -8 23 -5z m258 5 c0 -5 -6 -11 -12 -14 -7 -2 -10 -8 -5 -12 4
-5 13 -1 20 9 10 13 24 16 67 14 30 -2 56 -7 57 -12 1 -5 7 -13 15 -17 9 -6 6
-9 -12 -9 -43 -2 -134 -2 -147 -1 -14 1 -18 33 -6 44 9 10 23 9 23 -2z m302
-2 c18 1 31 -6 38 -18 13 -25 7 -27 -55 -25 -109 3 -125 7 -125 27 0 16 3 17
15 7 9 -8 15 -8 15 -2 0 14 29 21 60 15 14 -3 37 -5 52 -4z m121 1 c51 11 104
1 110 -21 6 -24 2 -26 -53 -23 -128 7 -126 6 -114 39 4 10 10 13 16 7 5 -5 24
-6 41 -2z m192 -1 c11 0 41 1 66 2 51 2 69 -5 69 -27 0 -15 -11 -16 -95 -16
-92 0 -105 4 -105 29 0 19 4 22 23 18 12 -3 31 -6 42 -6z m-1298 -72 c7 -4 14
-3 17 1 3 5 15 8 28 6 13 -1 29 -3 36 -3 6 -1 12 -9 12 -20 0 -17 -9 -18 -125
-18 -121 0 -125 0 -125 21 0 21 4 22 73 21 40 -1 78 -5 84 -8z m198 2 c11 0
27 1 35 2 8 1 48 1 88 1 65 -2 72 -4 72 -22 0 -12 -7 -21 -17 -21 -58 -5 -111
-4 -130 3 -13 4 -23 4 -23 0 0 -6 -40 -8 -92 -3 -12 1 -18 9 -18 26 0 24 3 25
33 20 17 -3 41 -6 52 -6z m355 1 c3 0 6 -9 7 -20 2 -17 -5 -19 -68 -18 -70 1
-85 8 -76 32 4 11 35 13 137 6z m438 0 c306 3 384 1 396 -11 22 -20 -15 -27
-154 -29 -208 -3 -254 0 -262 13 -6 9 -10 9 -16 -1 -6 -8 -33 -12 -84 -11 -42
1 -81 -2 -87 -6 -6 -3 -11 1 -11 10 0 15 -1 15 -16 0 -12 -12 -25 -14 -48 -9
-17 4 -48 6 -68 5 -22 -1 -38 3 -38 9 0 6 -4 8 -10 5 -5 -3 -10 1 -10 9 0 12
16 16 73 18 39 2 76 1 80 0 5 -2 119 -3 255 -2z"/>
<path d="M9036 7043 c-11 -11 -6 -23 9 -23 8 0 15 4 15 9 0 13 -16 22 -24 14z"/>
<path d="M1652 7457 c-12 -7 -25 -21 -29 -32 -9 -29 -4 -104 8 -127 9 -16 7
-24 -10 -42 -24 -25 -17 -37 28 -51 21 -6 23 -5 18 14 -4 18 -1 21 28 21 28 0
32 -3 28 -20 -6 -23 5 -25 42 -8 30 13 31 22 7 46 -16 16 -16 22 -5 48 18 42
16 105 -5 132 -20 26 -76 36 -110 19z m105 -73 c5 -14 -52 -24 -90 -17 -20 4
-25 9 -18 17 13 15 103 14 108 0z m-16 -61 c12 3 19 1 17 -5 -5 -13 -118 -17
-118 -5 0 4 9 7 19 7 11 0 23 5 26 10 5 8 11 7 21 -1 8 -6 23 -9 35 -6z m-28
-40 c-7 -2 -19 -2 -25 0 -7 3 -2 5 12 5 14 0 19 -2 13 -5z"/>
<path d="M11208 7437 c-45 -17 -61 -100 -30 -155 12 -21 11 -26 -7 -43 -27
-26 -26 -33 4 -47 37 -17 48 -15 42 8 -4 17 0 20 28 20 28 0 32 -3 28 -20 -6
-23 10 -26 45 -7 l23 13 -21 27 c-19 24 -20 29 -7 54 26 50 1 150 -38 154 -5
0 -17 2 -25 3 -8 1 -27 -2 -42 -7z m92 -80 c0 -9 -16 -13 -55 -13 -83 0 -71
24 13 25 28 1 42 -3 42 -12z m-24 -57 c13 0 24 -4 24 -9 0 -4 -25 -8 -55 -7
-30 0 -55 4 -55 8 0 4 9 8 19 8 11 0 23 5 27 12 6 9 9 9 12 0 2 -7 15 -12 28
-12z m-23 -37 c-7 -2 -19 -2 -25 0 -7 3 -2 5 12 5 14 0 19 -2 13 -5z"/>
<path d="M2432 7270 c0 -14 2 -19 5 -12 2 6 2 18 0 25 -3 6 -5 1 -5 -13z"/>
<path d="M2465 7280 c-3 -5 -1 -10 4 -10 6 0 11 5 11 10 0 6 -2 10 -4 10 -3 0
-8 -4 -11 -10z"/>
<path d="M13196 6895 c-11 -8 -15 -15 -9 -15 6 0 16 7 23 15 16 19 11 19 -14
0z"/>
<path d="M13477 6903 c-12 -11 -8 -23 7 -23 8 0 18 4 21 10 4 6 -1 7 -11 3
-12 -4 -15 -3 -10 5 8 13 3 16 -7 5z"/>
<path d="M12858 6893 c7 -3 16 -2 19 1 4 3 -2 6 -13 5 -11 0 -14 -3 -6 -6z"/>
<path d="M13085 6880 c-19 -8 -19 -9 3 -9 12 -1 22 4 22 9 0 6 -1 10 -2 9 -2
0 -12 -4 -23 -9z"/>
<path d="M13548 6883 c7 -3 16 -2 19 1 4 3 -2 6 -13 5 -11 0 -14 -3 -6 -6z"/>
<path d="M11360 6869 c0 -5 5 -7 10 -4 6 3 10 8 10 11 0 2 -4 4 -10 4 -5 0
-10 -5 -10 -11z"/>
<path d="M11685 6870 c-3 -6 1 -7 9 -4 18 7 21 14 7 14 -6 0 -13 -4 -16 -10z"/>
<path d="M5148 6823 c7 -3 16 -2 19 1 4 3 -2 6 -13 5 -11 0 -14 -3 -6 -6z"/>
<path d="M5208 6823 c7 -3 16 -2 19 1 4 3 -2 6 -13 5 -11 0 -14 -3 -6 -6z"/>
<path d="M5328 6823 c7 -3 16 -2 19 1 4 3 -2 6 -13 5 -11 0 -14 -3 -6 -6z"/>
<path d="M6338 6823 c7 -3 16 -2 19 1 4 3 -2 6 -13 5 -11 0 -14 -3 -6 -6z"/>
<path d="M6638 6823 c7 -3 16 -2 19 1 4 3 -2 6 -13 5 -11 0 -14 -3 -6 -6z"/>
<path d="M6828 6823 c7 -3 16 -2 19 1 4 3 -2 6 -13 5 -11 0 -14 -3 -6 -6z"/>
<path d="M6978 6823 c7 -3 16 -2 19 1 4 3 -2 6 -13 5 -11 0 -14 -3 -6 -6z"/>
<path d="M12875 6811 c-3 -6 4 -8 16 -6 30 6 37 15 11 15 -11 0 -23 -4 -27 -9z"/>
<path d="M13000 6809 c0 -5 5 -7 10 -4 6 3 10 8 10 11 0 2 -4 4 -10 4 -5 0
-10 -5 -10 -11z"/>
<path d="M11440 6780 c0 -5 5 -10 11 -10 5 0 7 5 4 10 -3 6 -8 10 -11 10 -2 0
-4 -4 -4 -10z"/>
<path d="M13130 6755 c0 -14 -3 -15 -15 -5 -9 7 -17 11 -20 9 -2 -3 5 -10 16
-17 16 -10 20 -10 25 3 4 9 4 19 0 22 -3 4 -6 -2 -6 -12z"/>
<path d="M13158 6753 c6 -2 18 -2 25 0 6 3 1 5 -13 5 -14 0 -19 -2 -12 -5z"/>
<path d="M3421 6724 c0 -11 3 -14 6 -6 3 7 2 16 -1 19 -3 4 -6 -2 -5 -13z"/>
<path d="M12941 6674 c0 -11 3 -14 6 -6 3 7 2 16 -1 19 -3 4 -6 -2 -5 -13z"/>
<path d="M13025 6670 c3 -5 8 -10 11 -10 2 0 4 5 4 10 0 6 -5 10 -11 10 -5 0
-7 -4 -4 -10z"/>
<path d="M4998 6653 c7 -3 16 -2 19 1 4 3 -2 6 -13 5 -11 0 -14 -3 -6 -6z"/>
<path d="M5038 6653 c7 -3 16 -2 19 1 4 3 -2 6 -13 5 -11 0 -14 -3 -6 -6z"/>
<path d="M5438 6653 c7 -3 16 -2 19 1 4 3 -2 6 -13 5 -11 0 -14 -3 -6 -6z"/>
<path d="M5918 6653 c7 -3 16 -2 19 1 4 3 -2 6 -13 5 -11 0 -14 -3 -6 -6z"/>
<path d="M6178 6653 c7 -3 16 -2 19 1 4 3 -2 6 -13 5 -11 0 -14 -3 -6 -6z"/>
<path d="M6398 6653 c7 -3 16 -2 19 1 4 3 -2 6 -13 5 -11 0 -14 -3 -6 -6z"/>
<path d="M6668 6653 c7 -3 16 -2 19 1 4 3 -2 6 -13 5 -11 0 -14 -3 -6 -6z"/>
<path d="M13021 6614 c0 -11 3 -14 6 -6 3 7 2 16 -1 19 -3 4 -6 -2 -5 -13z"/>
<path d="M13073 6615 c0 -8 4 -12 9 -9 4 3 8 9 8 15 0 5 -4 9 -8 9 -5 0 -9 -7
-9 -15z"/>
<path d="M13115 6620 c3 -5 8 -10 11 -10 2 0 4 5 4 10 0 6 -5 10 -11 10 -5 0
-7 -4 -4 -10z"/>
<path d="M13148 6623 c7 -3 16 -2 19 1 4 3 -2 6 -13 5 -11 0 -14 -3 -6 -6z"/>
<path d="M13196 6618 c3 -4 9 -8 15 -8 5 0 9 4 9 8 0 5 -7 9 -15 9 -8 0 -12
-4 -9 -9z"/>
<path d="M13370 6608 c0 -12 3 -18 7 -14 11 10 12 36 2 36 -5 0 -9 -10 -9 -22z"/>
<path d="M13480 6626 c0 -2 7 -7 16 -10 8 -3 12 -2 9 4 -6 10 -25 14 -25 6z"/>
<path d="M13618 6623 c7 -3 16 -2 19 1 4 3 -2 6 -13 5 -11 0 -14 -3 -6 -6z"/>
<path d="M11450 6610 c0 -5 5 -10 11 -10 5 0 7 5 4 10 -3 6 -8 10 -11 10 -2 0
-4 -4 -4 -10z"/>
<path d="M11610 6610 c0 -5 5 -10 11 -10 5 0 7 5 4 10 -3 6 -8 10 -11 10 -2 0
-4 -4 -4 -10z"/>
<path d="M12447 6609 c7 -7 15 -10 18 -7 3 3 -2 9 -12 12 -14 6 -15 5 -6 -5z"/>
<path d="M11178 6603 c7 -3 16 -2 19 1 4 3 -2 6 -13 5 -11 0 -14 -3 -6 -6z"/>
<path d="M11708 6603 c7 -3 16 -2 19 1 4 3 -2 6 -13 5 -11 0 -14 -3 -6 -6z"/>
<path d="M12348 6603 c7 -3 16 -2 19 1 4 3 -2 6 -13 5 -11 0 -14 -3 -6 -6z"/>
<path d="M4908 6583 c7 -3 16 -2 19 1 4 3 -2 6 -13 5 -11 0 -14 -3 -6 -6z"/>
<path d="M2891 6554 c0 -11 3 -14 6 -6 3 7 2 16 -1 19 -3 4 -6 -2 -5 -13z"/>
<path d="M11510 6530 c0 -5 5 -10 11 -10 5 0 7 5 4 10 -3 6 -8 10 -11 10 -2 0
-4 -4 -4 -10z"/>
<path d="M11935 6530 c-3 -5 -1 -10 4 -10 6 0 11 5 11 10 0 6 -2 10 -4 10 -3
0 -8 -4 -11 -10z"/>
<path d="M12445 6530 c-3 -5 -1 -10 4 -10 6 0 11 5 11 10 0 6 -2 10 -4 10 -3
0 -8 -4 -11 -10z"/>
<path d="M5608 6483 c7 -3 16 -2 19 1 4 3 -2 6 -13 5 -11 0 -14 -3 -6 -6z"/>
<path d="M5858 6483 c7 -3 16 -2 19 1 4 3 -2 6 -13 5 -11 0 -14 -3 -6 -6z"/>
<path d="M6168 6483 c7 -3 16 -2 19 1 4 3 -2 6 -13 5 -11 0 -14 -3 -6 -6z"/>
<path d="M11155 6460 c-3 -5 -1 -10 4 -10 6 0 11 5 11 10 0 6 -2 10 -4 10 -3
0 -8 -4 -11 -10z"/>
<path d="M11120 6449 c0 -5 5 -7 10 -4 6 3 10 8 10 11 0 2 -4 4 -10 4 -5 0
-10 -5 -10 -11z"/>
<path d="M9258 6383 c7 -3 16 -2 19 1 4 3 -2 6 -13 5 -11 0 -14 -3 -6 -6z"/>
<path d="M9523 6383 c9 -2 23 -2 30 0 6 3 -1 5 -18 5 -16 0 -22 -2 -12 -5z"/>
<path d="M9998 6383 c7 -3 16 -2 19 1 4 3 -2 6 -13 5 -11 0 -14 -3 -6 -6z"/>
<path d="M11865 6360 c-3 -5 -1 -10 4 -10 6 0 11 5 11 10 0 6 -2 10 -4 10 -3
0 -8 -4 -11 -10z"/>
<path d="M12200 6360 c0 -5 5 -10 11 -10 5 0 7 5 4 10 -3 6 -8 10 -11 10 -2 0
-4 -4 -4 -10z"/>
<path d="M12445 6360 c-3 -5 -1 -10 4 -10 6 0 11 5 11 10 0 6 -2 10 -4 10 -3
0 -8 -4 -11 -10z"/>
<path d="M11238 6353 c7 -3 16 -2 19 1 4 3 -2 6 -13 5 -11 0 -14 -3 -6 -6z"/>
<path d="M8718 6323 c7 -3 16 -2 19 1 4 3 -2 6 -13 5 -11 0 -14 -3 -6 -6z"/>
<path d="M9101 6304 c0 -11 3 -14 6 -6 3 7 2 16 -1 19 -3 4 -6 -2 -5 -13z"/>
<path d="M9197 6303 c3 -7 6 -13 8 -13 2 0 5 6 8 13 3 8 -1 14 -8 14 -7 0 -11
-6 -8 -14z"/>
<path d="M12867 6310 c14 -6 21 -15 17 -24 -4 -11 0 -13 15 -9 20 5 20 6 -3
24 -13 11 -30 19 -38 18 -7 0 -3 -4 9 -9z"/>
<path d="M13000 6288 c0 -4 9 -8 20 -8 11 0 20 4 20 8 0 4 -9 8 -20 8 -11 0
-20 -4 -20 -8z"/>
<path d="M13238 6288 c5 -5 16 -8 23 -6 8 3 3 7 -10 11 -17 4 -21 3 -13 -5z"/>
<path d="M11156 6277 c3 -10 9 -15 12 -12 3 3 0 11 -7 18 -10 9 -11 8 -5 -6z"/>
<path d="M11950 6279 c0 -5 5 -7 10 -4 6 3 10 8 10 11 0 2 -4 4 -10 4 -5 0
-10 -5 -10 -11z"/>
<path d="M8821 6224 c0 -11 3 -14 6 -6 3 7 2 16 -1 19 -3 4 -6 -2 -5 -13z"/>
<path d="M2212 6170 c0 -14 2 -19 5 -12 2 6 2 18 0 25 -3 6 -5 1 -5 -13z"/>
<path d="M2442 6165 c0 -16 2 -22 5 -12 2 9 2 23 0 30 -3 6 -5 -1 -5 -18z"/>
<path d="M12957 6091 c-4 -17 -3 -21 5 -13 5 5 8 16 6 23 -3 8 -7 3 -11 -10z"/>
<path d="M5040 6091 c0 -10 19 -25 25 -20 1 2 -3 10 -11 17 -8 7 -14 8 -14 3z"/>
<path d="M12916 6085 c-3 -8 -1 -15 4 -15 13 0 22 18 11 24 -5 3 -11 -1 -15
-9z"/>
<path d="M13016 6085 c-3 -8 -1 -15 4 -15 6 0 10 7 10 15 0 8 -2 15 -4 15 -2
0 -6 -7 -10 -15z"/>
<path d="M5868 6073 c7 -3 16 -2 19 1 4 3 -2 6 -13 5 -11 0 -14 -3 -6 -6z"/>
<path d="M8991 6054 c0 -11 3 -14 6 -6 3 7 2 16 -1 19 -3 4 -6 -2 -5 -13z"/>
<path d="M9352 6061 c-11 -7 -11 -9 2 -14 10 -4 16 -1 16 8 0 17 -1 17 -18 6z"/>
<path d="M8788 6053 c7 -3 16 -2 19 1 4 3 -2 6 -13 5 -11 0 -14 -3 -6 -6z"/>
<path d="M8918 6053 c7 -3 16 -2 19 1 4 3 -2 6 -13 5 -11 0 -14 -3 -6 -6z"/>
<path d="M9490 6050 c0 -5 7 -7 15 -4 8 4 15 8 15 10 0 2 -7 4 -15 4 -8 0 -15
-4 -15 -10z"/>
<path d="M11512 5985 c0 -16 2 -22 5 -12 2 9 2 23 0 30 -3 6 -5 -1 -5 -18z"/>
<path d="M11342 5980 c0 -14 2 -19 5 -12 2 6 2 18 0 25 -3 6 -5 1 -5 -13z"/>
<path d="M11380 5980 l-25 -8 28 -1 c15 -1 27 4 27 9 0 6 -1 10 -2 9 -2 -1
-14 -5 -28 -9z"/>
<path d="M11550 5979 c0 -5 9 -9 20 -9 11 0 20 2 20 4 0 2 -9 6 -20 9 -11 3
-20 1 -20 -4z"/>
<path d="M12011 5974 c0 -11 3 -14 6 -6 3 7 2 16 -1 19 -3 4 -6 -2 -5 -13z"/>
<path d="M13489 5977 c5 -5 21 -7 37 -5 27 3 26 4 -8 9 -22 3 -34 1 -29 -4z"/>
<path d="M11648 5973 c7 -3 16 -2 19 1 4 3 -2 6 -13 5 -11 0 -14 -3 -6 -6z"/>
<path d="M11778 5973 c6 -2 18 -2 25 0 6 3 1 5 -13 5 -14 0 -19 -2 -12 -5z"/>
<path d="M13068 5973 c7 -3 16 -2 19 1 4 3 -2 6 -13 5 -11 0 -14 -3 -6 -6z"/>
<path d="M13208 5973 c7 -3 16 -2 19 1 4 3 -2 6 -13 5 -11 0 -14 -3 -6 -6z"/>
<path d="M13300 5970 c0 -5 7 -7 15 -4 8 4 15 8 15 10 0 2 -7 4 -15 4 -8 0
-15 -4 -15 -10z"/>
<path d="M3151 5864 c0 -11 3 -14 6 -6 3 7 2 16 -1 19 -3 4 -6 -2 -5 -13z"/>
<path d="M9372 5815 c0 -16 2 -22 5 -12 2 9 2 23 0 30 -3 6 -5 -1 -5 -18z"/>
<path d="M8576 5815 c-3 -8 -1 -15 4 -15 6 0 10 7 10 15 0 8 -2 15 -4 15 -2 0
-6 -7 -10 -15z"/>
<path d="M8808 5823 c7 -3 16 -2 19 1 4 3 -2 6 -13 5 -11 0 -14 -3 -6 -6z"/>
<path d="M8980 5821 c0 -5 9 -7 20 -4 11 3 20 7 20 9 0 2 -9 4 -20 4 -11 0
-20 -4 -20 -9z"/>
<path d="M9068 5823 c7 -3 16 -2 19 1 4 3 -2 6 -13 5 -11 0 -14 -3 -6 -6z"/>
<path d="M9173 5816 c-9 -11 -7 -14 12 -12 13 0 21 4 19 8 -2 3 2 9 8 11 7 3
4 6 -7 6 -11 0 -25 -6 -32 -13z"/>
<path d="M9456 5813 c-6 -14 -5 -15 5 -6 7 7 10 15 7 18 -3 3 -9 -2 -12 -12z"/>
<path d="M2711 5774 c0 -11 3 -14 6 -6 3 7 2 16 -1 19 -3 4 -6 -2 -5 -13z"/>
<path d="M9301 5734 c0 -11 3 -14 6 -6 3 7 2 16 -1 19 -3 4 -6 -2 -5 -13z"/>
<path d="M12176 5735 c-3 -8 -1 -15 4 -15 6 0 10 7 10 15 0 8 -2 15 -4 15 -2
0 -6 -7 -10 -15z"/>
<path d="M12546 5733 c-6 -14 -5 -15 5 -6 7 7 10 15 7 18 -3 3 -9 -2 -12 -12z"/>
<path d="M12640 5730 c-9 -6 -10 -10 -3 -10 6 0 15 5 18 10 8 12 4 12 -15 0z"/>
<path d="M11298 5653 c7 -3 16 -2 19 1 4 3 -2 6 -13 5 -11 0 -14 -3 -6 -6z"/>
<path d="M6030 5619 c0 -5 5 -7 10 -4 6 3 10 8 10 11 0 2 -4 4 -10 4 -5 0 -10
-5 -10 -11z"/>
<path d="M12968 5613 c7 -3 16 -2 19 1 4 3 -2 6 -13 5 -11 0 -14 -3 -6 -6z"/>
<path d="M8470 5589 c0 -5 5 -7 10 -4 6 3 10 8 10 11 0 2 -4 4 -10 4 -5 0 -10
-5 -10 -11z"/>
<path d="M8874 5588 c10 -6 22 -6 26 -2 5 5 -3 10 -18 11 -22 1 -24 0 -8 -9z"/>
<path d="M9120 5590 c0 -5 5 -10 11 -10 5 0 7 5 4 10 -3 6 -8 10 -11 10 -2 0
-4 -4 -4 -10z"/>
<path d="M9318 5593 c6 -2 18 -2 25 0 6 3 1 5 -13 5 -14 0 -19 -2 -12 -5z"/>
<path d="M9376 5587 c3 -10 9 -15 12 -12 3 3 0 11 -7 18 -10 9 -11 8 -5 -6z"/>
<path d="M9626 5585 c4 -8 8 -15 10 -15 2 0 4 7 4 15 0 8 -4 15 -10 15 -5 0
-7 -7 -4 -15z"/>
<path d="M11416 5565 c-3 -8 -1 -15 4 -15 6 0 10 7 10 15 0 8 -2 15 -4 15 -2
0 -6 -7 -10 -15z"/>
<path d="M11757 5559 c7 -7 15 -10 18 -7 3 3 -2 9 -12 12 -14 6 -15 5 -6 -5z"/>
<path d="M12435 5560 c-3 -5 -1 -10 4 -10 6 0 11 5 11 10 0 6 -2 10 -4 10 -3
0 -8 -4 -11 -10z"/>
<path d="M6625 5520 c3 -5 8 -10 11 -10 2 0 4 5 4 10 0 6 -5 10 -11 10 -5 0
-7 -4 -4 -10z"/>
<path d="M8821 5494 c0 -11 3 -14 6 -6 3 7 2 16 -1 19 -3 4 -6 -2 -5 -13z"/>
<path d="M11295 5480 c-3 -6 1 -7 9 -4 18 7 21 14 7 14 -6 0 -13 -4 -16 -10z"/>
<path d="M11468 5483 c7 -3 16 -2 19 1 4 3 -2 6 -13 5 -11 0 -14 -3 -6 -6z"/>
<path d="M11948 5483 c7 -3 16 -2 19 1 4 3 -2 6 -13 5 -11 0 -14 -3 -6 -6z"/>
<path d="M12025 5480 c3 -5 8 -10 11 -10 2 0 4 5 4 10 0 6 -5 10 -11 10 -5 0
-7 -4 -4 -10z"/>
<path d="M12338 5483 c7 -3 16 -2 19 1 4 3 -2 6 -13 5 -11 0 -14 -3 -6 -6z"/>
<path d="M12603 5483 c9 -2 25 -2 35 0 9 3 1 5 -18 5 -19 0 -27 -2 -17 -5z"/>
<path d="M8832 5410 c0 -14 2 -19 5 -12 2 6 2 18 0 25 -3 6 -5 1 -5 -13z"/>
<path d="M8995 5420 c-3 -6 1 -7 9 -4 18 7 21 14 7 14 -6 0 -13 -4 -16 -10z"/>
<path d="M11238 5403 c7 -3 16 -2 19 1 4 3 -2 6 -13 5 -11 0 -14 -3 -6 -6z"/>
<path d="M11388 5403 c7 -3 16 -2 19 1 4 3 -2 6 -13 5 -11 0 -14 -3 -6 -6z"/>
<path d="M11508 5403 c7 -3 16 -2 19 1 4 3 -2 6 -13 5 -11 0 -14 -3 -6 -6z"/>
<path d="M13002 5361 c-11 -7 -11 -9 0 -14 9 -3 15 1 15 9 0 8 -1 14 -1 14 -1
0 -7 -4 -14 -9z"/>
<path d="M13130 5350 c0 -11 2 -20 4 -20 2 0 6 9 9 20 3 11 1 20 -4 20 -5 0
-9 -9 -9 -20z"/>
<path d="M9222 5340 c0 -14 2 -19 5 -12 2 6 2 18 0 25 -3 6 -5 1 -5 -13z"/>
<path d="M12855 5351 c-3 -5 -1 -12 5 -16 5 -3 10 1 10 9 0 18 -6 21 -15 7z"/>
<path d="M8815 5330 c-3 -5 -1 -10 4 -10 6 0 11 5 11 10 0 6 -2 10 -4 10 -3 0
-8 -4 -11 -10z"/>
<path d="M9020 5330 c-13 -8 -12 -10 3 -10 9 0 17 5 17 10 0 12 -1 12 -20 0z"/>
<path d="M12450 5321 c0 -6 4 -13 10 -16 6 -3 7 1 4 9 -7 18 -14 21 -14 7z"/>
<path d="M12200 5310 c-9 -6 -10 -10 -3 -10 6 0 15 5 18 10 8 12 4 12 -15 0z"/>
<path d="M12910 5275 c0 -8 4 -15 10 -15 5 0 7 7 4 15 -4 8 -8 15 -10 15 -2 0
-4 -7 -4 -15z"/>
<path d="M12940 5270 c0 -5 7 -10 15 -10 8 0 15 5 15 10 0 6 -7 10 -15 10 -8
0 -15 -4 -15 -10z"/>
<path d="M12980 5270 c0 -5 5 -10 10 -10 6 0 10 5 10 10 0 6 -4 10 -10 10 -5
0 -10 -4 -10 -10z"/>
<path d="M8371 5254 c0 -11 3 -14 6 -6 3 7 2 16 -1 19 -3 4 -6 -2 -5 -13z"/>
<path d="M8541 5254 c0 -11 3 -14 6 -6 3 7 2 16 -1 19 -3 4 -6 -2 -5 -13z"/>
<path d="M9191 5254 c0 -11 3 -14 6 -6 3 7 2 16 -1 19 -3 4 -6 -2 -5 -13z"/>
<path d="M8755 5250 c-3 -5 1 -10 9 -10 9 0 16 5 16 10 0 6 -4 10 -9 10 -6 0
-13 -4 -16 -10z"/>
<path d="M9470 5249 c0 -5 5 -7 10 -4 6 3 10 8 10 11 0 2 -4 4 -10 4 -5 0 -10
-5 -10 -11z"/>
<path d="M10068 5253 c7 -3 16 -2 19 1 4 3 -2 6 -13 5 -11 0 -14 -3 -6 -6z"/>
<path d="M11698 5238 c5 -5 16 -8 23 -6 8 3 3 7 -10 11 -17 4 -21 3 -13 -5z"/>
<path d="M11345 5230 c3 -5 8 -10 11 -10 2 0 4 5 4 10 0 6 -5 10 -11 10 -5 0
-7 -4 -4 -10z"/>
<path d="M11533 5233 c9 -2 25 -2 35 0 9 3 1 5 -18 5 -19 0 -27 -2 -17 -5z"/>
<path d="M11936 5145 c-3 -8 -1 -15 4 -15 6 0 10 7 10 15 0 8 -2 15 -4 15 -2
0 -6 -7 -10 -15z"/>
<path d="M12446 5145 c-3 -8 -1 -15 4 -15 6 0 10 7 10 15 0 8 -2 15 -4 15 -2
0 -6 -7 -10 -15z"/>
<path d="M11595 5140 c-3 -5 -1 -10 4 -10 6 0 11 5 11 10 0 6 -2 10 -4 10 -3
0 -8 -4 -11 -10z"/>
<path d="M11700 5140 c-9 -6 -10 -10 -3 -10 6 0 15 5 18 10 8 12 4 12 -15 0z"/>
<path d="M11847 5139 c7 -7 15 -10 18 -7 3 3 -2 9 -12 12 -14 6 -15 5 -6 -5z"/>
<path d="M13100 5098 c0 -4 7 -8 15 -8 8 0 15 4 15 8 0 5 -7 9 -15 9 -8 0 -15
-4 -15 -9z"/>
<path d="M11268 5063 c7 -3 16 -2 19 1 4 3 -2 6 -13 5 -11 0 -14 -3 -6 -6z"/>
<path d="M11718 5063 c7 -3 16 -2 19 1 4 3 -2 6 -13 5 -11 0 -14 -3 -6 -6z"/>
<path d="M12128 5063 c7 -3 16 -2 19 1 4 3 -2 6 -13 5 -11 0 -14 -3 -6 -6z"/>
<path d="M9365 4860 c-3 -5 -1 -10 4 -10 6 0 11 5 11 10 0 6 -2 10 -4 10 -3 0
-8 -4 -11 -10z"/>
<path d="M9458 4853 c7 -3 16 -2 19 1 4 3 -2 6 -13 5 -11 0 -14 -3 -6 -6z"/>
<path d="M9648 4853 c7 -3 16 -2 19 1 4 3 -2 6 -13 5 -11 0 -14 -3 -6 -6z"/>
<path d="M8462 4600 c0 -14 2 -19 5 -12 2 6 2 18 0 25 -3 6 -5 1 -5 -13z"/>
<path d="M8990 4597 c0 -10 8 -17 18 -17 9 0 13 4 7 8 -5 4 -13 11 -17 16 -5
5 -8 2 -8 -7z"/>
<path d="M9897 4589 c7 -7 15 -10 18 -7 3 3 -2 9 -12 12 -14 6 -15 5 -6 -5z"/>
<path d="M9995 4590 c-3 -5 -1 -10 4 -10 6 0 11 5 11 10 0 6 -2 10 -4 10 -3 0
-8 -4 -11 -10z"/>
<path d="M0 10 c0 -7 3183 -10 9530 -10 6347 0 9530 3 9530 10 0 7 -3183 10
-9530 10 -6347 0 -9530 -3 -9530 -10z"/>
</g>
</svg>
